<svg xmlns="http://www.w3.org/2000/svg" width="35.986" height="35.986" viewBox="0 0 35.986 35.986"><defs><style>.discA,.discB{fill:none;stroke:coral;stroke-linejoin:round;stroke-width:2px;}.discB{stroke-linecap:round;}</style></defs><g transform="translate(-336.5 -611)"><g transform="translate(356.475 630.975)"><path class="discA" d="M362.177,630.839A5.838,5.838,0,1,1,356.34,625,5.839,5.839,0,0,1,362.177,630.839Z" transform="translate(-350.5 -625)"/><line class="discB" x2="4.63" y2="4.63" transform="translate(9.966 9.966)"/></g><g transform="translate(337.5 612)"><path class="discB" d="M354.286,645.571a16.786,16.786,0,1,1,16.786-16.786" transform="translate(-337.5 -612)"/><path class="discB" d="M348.8,636.584v-3.649l-7.3-5.839,3.287-5.109h8.39v-4.379l-2.189-1.46,6.369-3.649" transform="translate(-335.662 -611.77)"/><path class="discB" d="M359.912,615.755l-2.551,4.737h-2.554l-2.554,2.554" transform="translate(-330.72 -610.274)"/></g></g></svg>