<svg xmlns="http://www.w3.org/2000/svg" width="33.572" height="33.571" viewBox="0 0 33.572 33.571"><defs><style>.makeA{fill:#ffa502;}</style></defs><path class="makeA" d="M31.6,17.945v-3.12a.984.984,0,0,0-.984-.984,29.671,29.671,0,0,0-5.716.522,8.88,8.88,0,0,0-3.692-2.138,6.885,6.885,0,1,0-8.854,0,8.882,8.882,0,0,0-3.692,2.138,29.676,29.676,0,0,0-5.716-.522.984.984,0,0,0-.984.984v3.12A2.955,2.955,0,0,0,0,20.726v1.967a2.955,2.955,0,0,0,1.967,2.781v3.12a.984.984,0,0,0,.984.984,22.888,22.888,0,0,1,13.29,3.835.987.987,0,0,0,1.091,0,22.888,22.888,0,0,1,13.29-3.835.984.984,0,0,0,.984-.984v-3.12a2.955,2.955,0,0,0,1.967-2.781V20.726A2.956,2.956,0,0,0,31.6,17.945ZM11.868,6.956a4.918,4.918,0,1,1,4.918,4.918A4.956,4.956,0,0,1,11.868,6.956ZM2.951,23.677a.985.985,0,0,1-.984-.984V20.726a.984.984,0,0,1,1.967,0v1.967A.985.985,0,0,1,2.951,23.677ZM15.8,30.829a24.609,24.609,0,0,0-11.868-3.2v-2.15A2.955,2.955,0,0,0,5.9,22.693V20.726a2.955,2.955,0,0,0-1.967-2.781V15.822A22.232,22.232,0,0,1,15.8,19.292Zm.984-13.242a23.375,23.375,0,0,0-5.722-2.63,6.9,6.9,0,0,1,3.755-1.116h3.934a6.9,6.9,0,0,1,3.755,1.116A23.374,23.374,0,0,0,16.786,17.588ZM29.638,27.625a24.61,24.61,0,0,0-11.868,3.2V19.293a22.229,22.229,0,0,1,11.868-3.47v2.122a2.955,2.955,0,0,0-1.967,2.781v1.967a2.955,2.955,0,0,0,1.967,2.781ZM31.6,22.693a.984.984,0,0,1-1.967,0V20.726a.984.984,0,0,1,1.967,0Z" transform="translate(0 -0.006)"/></svg>