<svg xmlns="http://www.w3.org/2000/svg" width="39.89" height="35.469" viewBox="0 0 39.89 35.469"><defs><style>.yourA{fill:none;stroke:#2ed573;stroke-linecap:round;stroke-linejoin:round;stroke-miterlimit:10;stroke-width:2px;}</style></defs><g transform="translate(-2528.698 -7154.194)"><path class="yourA" d="M678.822,47.8a10.042,10.042,0,1,0-9.884-10.041A9.964,9.964,0,0,0,678.822,47.8Z" transform="translate(1878.882 7140.867)"/><path class="yourA" d="M682.2,32.285l-6.589,6.694-3.295-3.347" transform="translate(1880.448 7142.99)"/><path class="yourA" d="M671.389,42H659.034a2.554,2.554,0,0,1-2.472-2.51V21.082a2.554,2.554,0,0,1,2.472-2.51h29.652a2.554,2.554,0,0,1,2.472,2.51v7.531" transform="translate(1873.136 7136.623)"/><path class="yourA" d="M690.123,19.2,673.65,32.583,657.013,19.028" transform="translate(1873.345 7136.834)"/></g></svg>