<svg width="734" height="566" viewBox="0 0 734 566" fill="none" xmlns="http://www.w3.org/2000/svg">
<path d="M730.659 561.015H2.68449C1.4276 561.015 0.288572 561.959 0.210017 563.256C0.131461 564.631 1.23123 565.81 2.60595 565.81H730.659C731.994 565.81 733.055 564.749 733.055 563.413C733.055 562.076 731.994 561.015 730.659 561.015Z" fill="url(#paint0_linear_2897_19058)"/>
<path d="M255.437 105.214C277.108 105.214 294.675 87.6363 294.675 65.9532C294.675 44.2701 277.108 26.6925 255.437 26.6925C233.766 26.6925 216.198 44.2701 216.198 65.9532C216.198 87.6363 233.766 105.214 255.437 105.214Z" fill="url(#paint1_linear_2897_19058)"/>
<path d="M270.205 101.205C250.763 109.34 228.335 100.184 220.205 80.73C212.074 61.2765 221.226 38.8362 240.669 30.7011C260.111 22.566 282.539 31.7229 290.669 51.1764C298.8 70.6299 289.648 93.0702 270.205 101.205Z" fill="url(#paint2_linear_2897_19058)"/>
<path d="M282.176 82.2566C291.085 67.4826 286.337 48.2797 271.572 39.3656C256.806 30.4515 237.614 35.2019 228.705 49.9758C219.796 64.7498 224.544 83.9528 239.309 92.8669C254.075 101.781 273.267 97.0306 282.176 82.2566Z" fill="white"/>
<path d="M266.867 93.2667C251.823 99.594 234.463 92.4807 228.139 77.4288C221.815 62.3769 228.924 45.0063 243.968 38.679C259.011 32.3517 276.372 39.465 282.696 54.5169C289.019 69.5688 281.91 86.9394 266.867 93.2667Z" fill="white"/>
<path d="M231.202 74.4027L226.332 76.4462C225.546 76.7999 225.154 77.7039 225.468 78.5292C225.821 79.3152 226.725 79.7081 227.55 79.3937L232.42 77.3502C233.206 76.9965 233.598 76.0925 233.284 75.2672C232.931 74.442 232.027 74.0883 231.202 74.4027Z" fill="url(#paint3_linear_2897_19058)"/>
<path d="M264.706 88.1184C263.921 88.4721 263.528 89.376 263.842 90.2013L265.885 95.0745C266.238 95.8605 267.142 96.2535 267.966 95.9391C268.752 95.5854 269.145 94.6815 268.831 93.8562L266.788 88.983C266.435 88.1577 265.531 87.804 264.706 88.1184Z" fill="url(#paint4_linear_2897_19058)"/>
<path d="M283.324 52.5518L278.454 54.5955C277.668 54.9492 277.275 55.8531 277.589 56.6784C277.943 57.4644 278.846 57.8574 279.671 57.543L284.542 55.4994C285.327 55.1457 285.72 54.2418 285.406 53.4164C285.052 52.5911 284.11 52.2374 283.324 52.5518Z" fill="url(#paint5_linear_2897_19058)"/>
<path d="M242.868 36.0066C242.082 36.3603 241.689 37.2642 242.003 38.0895L244.046 42.9627C244.4 43.7487 245.303 44.1417 246.128 43.8273C246.913 43.4736 247.306 42.5697 246.992 41.7444L244.949 36.8712C244.596 36.0459 243.693 35.6529 242.868 36.0066Z" fill="#119C59"/>
<path d="M253.866 22.7232L254.298 16.5138C254.337 16.0029 254.769 15.6099 255.28 15.6492L262.389 16.1601C262.9 16.1994 263.293 16.6317 263.254 17.1426L262.821 23.352C262.782 23.8629 262.35 24.2559 261.839 24.2166L254.73 23.7057C254.219 23.6664 253.827 23.1948 253.866 22.7232Z" fill="#119C59"/>
<path d="M226.136 34.5132L221.423 30.4653C221.03 30.1509 220.441 30.1902 220.126 30.5832L215.492 36.0066C215.177 36.3996 215.217 36.9891 215.61 37.3035L220.323 41.3514C220.716 41.6658 221.305 41.6265 221.619 41.2335L226.254 35.8101C226.568 35.4171 226.529 34.8276 226.136 34.5132Z" fill="url(#paint6_linear_2897_19058)"/>
<path d="M233.756 24.3345C233.284 24.531 232.774 24.2952 232.577 23.8629L230.849 19.7364C230.653 19.2648 230.889 18.7539 231.321 18.5574L239.726 15.0204C240.197 14.8239 240.708 15.0597 240.904 15.492L242.633 19.6185C242.829 20.0901 242.593 20.601 242.161 20.7975L233.756 24.3345Z" fill="url(#paint7_linear_2897_19058)"/>
<path d="M235.955 25.8279C231.87 26.1423 227.825 23.8236 226.136 19.815C224.054 14.8239 226.411 9.04682 231.399 6.96392C236.387 4.88102 242.161 7.23903 244.243 12.2301C245.932 16.2387 244.753 20.7189 241.65 23.4306L242.593 25.6707C246.874 22.4088 248.563 16.5138 246.403 11.3262C243.811 5.15612 236.701 2.20862 230.496 4.80242C224.329 7.39622 221.383 14.5095 223.975 20.7189C226.136 25.9065 231.517 28.8147 236.859 28.068L235.955 25.8279Z" fill="url(#paint8_linear_2897_19058)"/>
<path d="M239.962 29.0112C240.944 28.6182 241.926 28.2252 242.907 27.9108L240.433 21.9765L235.798 23.9415L238.273 29.8365C238.823 29.5221 239.373 29.247 239.962 29.0112Z" fill="url(#paint9_linear_2897_19058)"/>
<path d="M258.069 64.7742C258.697 66.2283 257.99 67.9182 256.537 68.547C255.084 69.1758 253.395 68.4684 252.766 67.0143C252.138 65.5602 252.845 63.8703 254.298 63.2415C255.791 62.652 257.48 63.3201 258.069 64.7742Z" fill="url(#paint10_linear_2897_19058)"/>
<path d="M258.501 42.3732L256.458 66.0318C256.419 66.6213 255.869 67.0536 255.28 67.0143C254.691 66.975 254.259 66.4248 254.298 65.8353C254.298 65.7567 254.101 66.7786 258.501 42.3732Z" fill="url(#paint11_linear_2897_19058)"/>
<path d="M276.215 77.6253L255.005 66.975C254.455 66.6999 254.259 66.0711 254.534 65.5209C254.808 64.9707 255.437 64.7742 255.987 65.0493C256.065 65.0493 255.162 64.4991 276.215 77.6253Z" fill="url(#paint12_linear_2897_19058)"/>
<path d="M256.498 65.4423C256.733 66.0318 256.458 66.7392 255.869 66.975C255.28 67.2108 254.573 66.9357 254.338 66.3462C254.102 65.7567 254.377 65.0493 254.966 64.8135C255.555 64.5777 256.262 64.8528 256.498 65.4423Z" fill="url(#paint13_linear_2897_19058)"/>
<path d="M547.271 235.926C546.996 235.611 546.524 235.454 546.092 235.572C544.011 236.122 540.279 235.297 538.394 234.629L536.391 224.607C537.844 223.271 540.986 221.07 543.107 220.756C543.539 220.717 543.893 220.402 544.05 219.97L546.603 212.346C546.76 211.913 546.642 211.481 546.328 211.167C544.796 209.634 543.657 205.979 543.304 204.053L550.963 197.294C552.848 197.883 556.344 199.495 557.64 201.185C557.915 201.538 558.347 201.695 558.779 201.617L566.635 200.045C567.067 199.966 567.42 199.652 567.538 199.22C568.088 197.137 570.68 194.307 572.173 193.01L581.835 196.272C582.228 198.198 582.621 202.01 581.796 204.014C581.639 204.407 581.717 204.879 581.992 205.232L587.295 211.245C587.57 211.56 588.041 211.717 588.473 211.599C590.555 211.049 594.286 211.874 596.172 212.542L598.175 222.564C596.721 223.9 593.579 226.101 591.458 226.415C591.026 226.454 590.673 226.769 590.516 227.201L587.962 234.825C587.805 235.258 587.923 235.69 588.237 236.004C589.769 237.537 590.908 241.192 591.262 243.118L583.603 249.877C581.717 249.288 578.222 247.676 576.925 245.987C576.65 245.633 576.218 245.476 575.786 245.554L567.931 247.126C567.499 247.205 567.145 247.519 567.027 247.952C566.477 250.034 563.885 252.864 562.393 254.161L552.73 250.899C552.298 248.973 551.945 245.161 552.77 243.157C552.927 242.764 552.848 242.292 552.573 241.939L547.271 235.926ZM569.305 233.45C574.765 232.349 578.261 227.044 577.161 221.581C576.061 216.119 570.759 212.621 565.299 213.721C559.84 214.822 556.344 220.127 557.444 225.59C558.543 231.053 563.846 234.55 569.305 233.45ZM570.562 239.777C579.518 237.969 585.292 229.245 583.485 220.324C581.678 211.363 572.958 205.586 564.042 207.394C555.126 209.202 549.313 217.926 551.12 226.847C552.927 235.808 561.646 241.585 570.562 239.777Z" fill="#14B86E"/>
<path d="M612.276 271.767C612.354 271.414 612.629 271.178 612.982 271.099L619.228 269.842C619.581 269.763 619.935 269.92 620.131 270.195C621.152 271.532 623.941 272.828 625.434 273.3L631.482 267.955C631.207 266.423 630.265 263.514 629.086 262.335C628.851 262.1 628.772 261.746 628.851 261.392L630.893 255.379C631.011 255.065 631.286 254.829 631.639 254.75C633.328 254.515 635.803 252.746 636.981 251.724L635.371 243.786C633.918 243.275 630.932 242.607 629.283 243.039C628.929 243.118 628.576 243.039 628.379 242.764L624.177 238.009C623.941 237.734 623.902 237.38 624.02 237.065C624.648 235.493 624.373 232.467 624.059 230.935L616.4 228.341C615.221 229.363 613.179 231.603 612.708 233.253C612.629 233.607 612.354 233.843 612.001 233.921L605.755 235.179C605.402 235.258 605.048 235.1 604.852 234.825C603.831 233.489 601.042 232.192 599.55 231.721L593.501 237.065C593.776 238.598 594.718 241.506 595.897 242.685C596.132 242.921 596.211 243.275 596.132 243.629L594.09 249.641C593.972 249.956 593.697 250.192 593.344 250.27C591.655 250.506 589.18 252.275 588.002 253.296L589.612 261.235C591.066 261.746 594.051 262.414 595.7 261.982C596.054 261.903 596.407 261.982 596.604 262.257L600.806 267.012C601.042 267.287 601.081 267.641 600.964 267.955C600.335 269.527 600.61 272.553 600.924 274.086L608.583 276.68C609.801 275.658 611.844 273.418 612.276 271.767ZM614.436 262.217C609.055 263.318 603.831 259.82 602.77 254.475C601.671 249.091 605.166 243.864 610.508 242.803C615.889 241.703 621.113 245.201 622.174 250.545C623.273 255.89 619.817 261.117 614.436 262.217Z" fill="#14B86E"/>
<path d="M174.171 145.732L167.258 143.138L161.17 147.383C160.463 147.854 159.521 147.344 159.56 146.518L159.914 139.13L154.022 134.65C153.354 134.139 153.551 133.078 154.375 132.842L161.524 130.877L163.959 123.881C164.234 123.095 165.295 122.938 165.766 123.646L169.851 129.816L177.235 129.973C178.06 129.973 178.531 130.955 178.02 131.624L173.386 137.401L175.507 144.475C175.742 145.3 174.957 146.047 174.171 145.732Z" fill="url(#paint14_linear_2897_19058)"/>
<path d="M184.776 101.48L181.006 91.3803L171.383 94.2492L167.219 84.4635L157.714 86.0748L153.393 79.2366L149.937 81.4374L155.711 90.555L164.745 89.0223L169.065 99.201L178.531 96.3714L181.909 105.528L184.776 101.48Z" fill="url(#paint15_linear_2897_19058)"/>
<path d="M589.337 148.012L579.871 142.863L574.49 151.313L564.946 146.636L558.779 154.103L551.081 151.745L549.902 155.675L560.193 158.819L566.045 151.706L575.983 156.618L581.285 148.247L589.848 152.963L589.337 148.012Z" fill="#119C59"/>
<path d="M340.081 20.6403L336.035 30.6225L345.108 34.9848L341.534 45.0456L349.665 50.2725L348.25 58.2111L352.257 58.9578L354.181 48.3468L346.444 43.3557L350.175 32.9019L341.259 28.6182L344.912 19.5399L340.081 20.6403Z" fill="#14B86E"/>
<path d="M578.536 278.409L576.533 274.479L572.055 274.636L570.131 270.117L565.417 271.728L563.021 266.698L558.504 267.641L555.401 263.161L557.09 261.982L559.408 265.361L564.2 264.34L566.478 269.174L571.27 267.523L573.391 272.553L577.79 272.396L579.636 276.012L582.464 275.344L582.974 277.348L578.536 278.409Z" fill="#14B86E"/>
<path d="M495.738 96.843L493.656 90.6336L503.279 86.1534L501.355 76.6822L508.032 72.1233L505.754 68.7436L496.799 74.8351L498.645 83.7954L488.629 88.4721L491.771 97.8255L495.738 96.843Z" fill="#14B86E"/>
<path d="M572.579 82.7715L572.579 82.7723C577.777 90.7167 576.858 100.209 572.292 107.327C567.727 114.444 559.556 119.123 550.303 117.494L550.302 117.494C546.753 116.882 543.096 117.7 539.979 119.603L539.978 119.604L529.491 126.049L529.49 126.05C526.843 127.683 523.497 126.986 521.846 124.435L521.844 124.433L517.8 118.265C517.8 118.264 517.799 118.264 517.799 118.263C516.135 115.691 516.671 112.117 519.081 110.034C520.534 108.791 521.864 107.681 523.08 106.666C525.797 104.398 527.938 102.612 529.578 100.909C531.987 98.4079 533.366 96.0427 534.015 92.5332C535.862 82.7944 542.925 76.3855 550.82 74.3963C558.711 72.4081 567.407 74.8371 572.579 82.7715Z" fill="#EDFDFC" stroke="#14B86E"/>
<path d="M548.386 91.8352L548.608 91.641L548.545 91.3528C548.35 90.4559 548.158 89.4952 548.043 88.5397C547.822 85.8325 548.747 84.0982 549.908 83.2042C551.091 82.2933 552.53 82.2273 553.481 82.8403L553.485 82.8426C554.725 83.6263 555.301 85.5028 554.507 87.4159L554.506 87.4202C554.166 88.2612 553.604 89.0036 552.901 89.731C552.344 90.3077 551.717 90.8554 551.057 91.4326C550.878 91.5891 550.697 91.7477 550.514 91.9097L550.277 92.1189L550.365 92.4223C551.284 95.6212 552.723 98.5824 554.643 101.224L554.912 101.594L555.305 101.359C557.826 99.8493 559.91 99.5509 561.342 99.8982C562.756 100.241 563.564 101.209 563.662 102.387L563.662 102.388C563.799 103.968 562.756 105.66 561.213 106.327L561.208 106.329C560.745 106.535 559.908 106.782 558.824 106.575C557.744 106.368 556.364 105.7 554.832 103.978L554.536 103.644L554.171 103.901C549.782 106.993 544.738 110.82 540.788 113.877C538.813 115.406 537.111 116.743 535.899 117.701C535.294 118.18 534.811 118.564 534.478 118.829C534.438 118.861 534.401 118.89 534.366 118.918L533.501 117.725C533.546 117.69 533.594 117.652 533.645 117.611C533.976 117.348 534.456 116.968 535.058 116.494C536.262 115.545 537.955 114.22 539.917 112.703C543.844 109.669 548.845 105.871 553.177 102.792L553.587 102.501L553.294 102.093C551.518 99.621 550.166 96.9161 549.199 93.9752L548.964 93.2597L548.396 93.7542C543.413 98.0924 538.733 101.98 535.26 104.817C532.899 106.745 531.081 108.2 530.113 108.975C529.983 109.079 529.868 109.17 529.77 109.249L528.905 108.056C529.029 107.957 529.18 107.837 529.356 107.696C531.823 105.733 539.331 99.7583 548.386 91.8352ZM552.711 84.2896L552.622 84.1002L552.424 84.0309C551.785 83.8072 550.855 84.0646 550.243 84.9444C549.629 85.8273 549.34 87.3015 549.764 89.5852L549.925 90.451L550.586 89.8693C551.708 88.8827 552.543 88.0873 552.934 87.2367C553.358 86.315 553.237 85.4041 552.711 84.2896ZM556.452 102.42L555.896 102.733L556.333 103.199C556.989 103.895 557.848 104.586 558.754 104.909C559.212 105.072 559.703 105.148 560.192 105.062C560.69 104.974 561.15 104.724 561.544 104.294L561.544 104.294C562.015 103.779 562.287 103.205 562.214 102.643C562.137 102.048 561.703 101.645 561.153 101.447C560.092 101.065 558.388 101.331 556.452 102.42Z" fill="#14B86E" stroke="#94DD8B"/>
<path d="M523.344 106.437C525.297 104.808 526.95 103.43 528.327 102.138L539.81 119.708L529.491 126.049L529.49 126.05C526.843 127.683 523.497 126.986 521.846 124.435L521.844 124.433L517.8 118.265C517.8 118.264 517.8 118.264 517.799 118.264C516.135 115.691 516.671 112.117 519.082 110.033C520.638 108.694 522.056 107.511 523.344 106.437Z" fill="#14B86E" stroke="#94DD8B"/>
<path d="M70.3993 425.155C70.3993 425.155 70.0458 423.505 70.0065 422.915C69.928 422.247 69.8494 420.243 69.8494 420.243C69.8494 420.243 69.8494 413.287 70.3601 413.326C70.8707 413.365 71.5384 414.544 71.6955 414.976C71.8526 415.409 72.049 415.88 72.2061 416.313C72.3632 416.745 72.7953 416.981 73.3451 416.824C73.895 416.666 73.6594 414.819 73.463 414.19C72.8345 412.265 70.0458 407.431 69.8102 406.92C69.4959 406.291 71.6955 394.226 72.1275 390.021C73.0309 383.183 74.3271 376.187 74.4056 375.441L86.5817 348.481L78.4512 340.149C78.4512 340.149 64.5077 369.899 63.9578 371.432C63.7221 372.179 62.8187 388.213 62.8187 388.213C62.8973 396.152 62.9759 403.108 62.9366 404.483C62.9366 404.483 61.7975 408.492 60.8942 410.968C60.0301 413.483 60.1871 416.116 60.0693 416.863C60.03 416.981 59.4409 419.496 59.8729 422.64C60.2264 425.352 61.1691 422.601 61.1691 422.601C61.1691 422.601 61.4047 417.413 61.7975 417.492C62.1117 417.57 61.7975 420.4 62.1903 423.387C62.2689 424.173 62.3867 424.919 62.4653 425.627C62.7009 427.474 63.9185 427.828 63.9578 425.863C63.9578 425.155 63.9578 424.015 63.84 423.19C63.7222 422.286 63.8793 421.422 63.8793 420.675C63.8793 419.142 63.8792 418.042 63.9578 418.081C64.0363 418.12 64.272 417.806 64.3898 418.631C64.5469 419.614 64.3898 421.775 64.7433 423.229C64.9397 424.055 65.2147 425.784 65.2147 425.784C65.2147 425.784 66.0002 428.535 66.1573 428.496C67.0607 428.456 67.0607 426.334 66.668 425.273C66.7465 424.448 66.393 422.64 66.393 422.64C66.393 422.64 66.4716 418.828 67.0215 418.828C67.4535 418.828 69.0246 427.985 69.928 427.906C70.7528 427.945 70.3993 425.155 70.3993 425.155Z" fill="#F7A491"/>
<path d="M81.633 364.162C81.633 364.162 76.5662 363.297 73.8953 362.275C70.321 360.939 67.9644 359.76 67.9644 359.76C67.9644 359.76 71.8921 342.94 76.8019 332.722C78.8443 328.517 80.8867 326.473 83.7147 325.962C83.7147 325.962 89.7242 329.931 89.4885 339.442C89.4493 341.761 81.633 364.162 81.633 364.162Z" fill="url(#paint16_linear_2897_19058)"/>
<path d="M97.187 420.714L103.746 481.079C103.746 481.079 100.526 493.852 100.918 497.467C101.311 501.083 108.028 548.675 108.028 548.675L107.753 551.348V559.247H132.773C132.773 559.247 127.47 556.81 120.047 551.937C119.497 551.583 118.24 550.444 117.926 548.164C115.923 533.505 119.85 484.577 119.85 484.577L122.953 420.911L97.187 420.714Z" fill="#F7A491"/>
<path d="M77.0765 433.408C75.6625 433.762 73.5023 485.677 72.3239 487.996C64.9005 502.576 63.1329 546.907 63.1329 546.907L60.9727 553.234L58.6553 560.976C58.6553 560.976 66.0788 563.02 69.9673 560.779L69.5352 553.155L69.1425 546.16L87.8779 490.904L98.1294 434.548L77.0765 433.408Z" fill="#F7A491"/>
<path d="M114.312 332.879C111.288 328.634 98.8367 316.294 97.4619 316.333C93.4163 316.412 80.1797 316.412 77.5874 317.748V320.656C77.666 333.625 79.3156 346.555 82.5757 359.092C84.8538 367.856 87.014 377.17 86.7391 380.55L86.8177 380.628C94.4768 388.253 106.574 387.663 113.566 379.292C113.566 379.292 113.527 369.978 114.626 361.529C116.276 348.206 121.814 343.451 114.312 332.879Z" fill="#94DD8B"/>
<path d="M93.3771 303.129C93.3771 303.129 93.7306 311.775 92.9844 315.076C92.2381 318.338 91.2169 318.613 97.6977 319.595C100.251 319.988 102.686 320.578 102.686 320.578C102.686 320.578 102.018 315.744 101.94 313.74C101.783 310.399 102.686 300.063 102.686 300.063L93.3771 303.129Z" fill="#F7A491"/>
<path d="M98.326 307.452C99.6614 308.198 100.918 308.631 102.057 308.827C102.293 304.74 102.686 300.063 102.686 300.063L93.8091 303.011C94.8303 304.779 96.2835 306.312 98.326 307.452Z" fill="#F47458"/>
<path d="M95.4195 278.92C95.4195 278.92 91.7274 280.217 89.6849 284.304C87.6425 288.391 86.8962 299.828 94.9482 304.308C98.9152 306.509 103.511 306.941 105.71 305.015C107.91 303.011 107.635 298.609 107.439 294.915C106.967 287.605 105.357 276.601 95.4195 278.92Z" fill="#F7A491"/>
<path d="M89.4887 293.304C89.9601 295.229 89.3316 297.077 88.114 297.43C86.8964 297.784 85.5609 296.526 85.0896 294.64C84.6182 292.714 85.2467 290.867 86.4643 290.513C87.6819 290.12 89.0567 291.378 89.4887 293.304Z" fill="#F7A491"/>
<path d="M69.5355 553.116C66.1183 554.688 62.4654 553.706 60.9729 553.234L58.6162 561.015C58.6162 561.015 66.079 563.216 69.9675 561.015L69.5355 553.116Z" fill="url(#paint17_linear_2897_19058)"/>
<path d="M107.517 561.212H133.519C134.462 561.133 134.697 560.308 134.383 559.797C133.715 558.775 130.652 558.029 127.235 556.378C121.264 557.046 108.695 552.762 107.753 551.348C107.203 554.217 106.967 561.055 107.517 561.212Z" fill="url(#paint18_linear_2897_19058)"/>
<path d="M159.756 352.529C160.267 351.821 161.956 348.402 161.956 348.402C161.956 348.402 163.723 342.547 163.331 342.625C163.134 342.665 162.388 343.49 161.524 345.298C161.013 346.398 160.424 348.284 159.874 349.228C158.931 350.878 157.871 351.546 158.146 350.918C158.342 350.446 158.971 350.053 159.56 349.071C160.935 346.673 162.192 342.743 161.642 342.822C161.17 342.9 159.835 345.612 158.342 347.695C157.675 348.599 155.868 349.778 154.689 350.485C154.689 349.974 154.847 349.463 154.925 349.188C155.082 348.717 157.125 346.005 156.339 345.651C155.514 345.298 150.605 351.232 150.605 351.232L148.601 354.69L148.405 354.808C148.405 354.808 123.856 364.437 123.032 364.162C121.107 363.533 114.508 344.433 114.508 344.433L100.8 346.909C100.604 346.791 115.215 375.362 117.965 376.777C120.361 377.995 145.852 364.712 150.644 361.882C157.243 359.328 159.835 356.302 160.895 354.769C161.485 353.944 163.684 350.328 163.684 350.328C163.684 350.328 164.155 345.337 163.802 345.258C162.584 345.101 162.27 349.817 162.27 349.817C162.27 349.817 160.62 352.057 160.345 352.332C159.638 353.079 159.756 352.529 159.756 352.529Z" fill="#F8A492"/>
<path d="M91.9629 327.809C90.0775 335.748 100.093 353.472 100.093 353.472C100.093 353.472 114.312 346.555 116.826 343.568C116.826 343.568 107.006 327.338 106.417 326.276C105.121 323.997 100.486 319.281 97.3832 320.146C95.38 320.696 91.9629 327.809 91.9629 327.809Z" fill="#119C59"/>
<path d="M94.2018 308.198C95.2623 300.928 107.36 286.073 102.686 279.863C98.9152 274.833 92.3165 276.326 88.1138 277.78C69.1033 284.343 70.2031 308.238 64.1936 312.011C53.3136 318.809 46.5972 323.015 45.8116 338.302C44.869 356.419 60.2659 365.694 78.7657 361.253C88.703 358.856 91.3346 355.594 95.3409 346.201C97.1477 341.957 100.761 328.752 99.7793 322.307C98.9152 316.491 93.3377 314.054 94.2018 308.198Z" fill="#473B1E"/>
<path d="M101.429 294.836C101.429 296.998 100.643 298.727 99.6615 298.727C98.6796 298.727 97.894 296.959 97.894 294.836C97.894 292.675 98.6796 290.946 99.6615 290.946C100.643 290.946 101.429 292.675 101.429 294.836Z" fill="#F7A491"/>
<path d="M125.271 459.975L126.174 424.173C126.331 414.033 124.328 404.012 120.322 394.816L113.566 379.292C110.816 380.196 108.263 380.943 105.357 381.296C99.1115 382.004 92.9449 381.296 86.739 380.55C86.739 380.786 86.6997 381.021 86.6605 381.179C85.5214 386.445 79.237 398.195 76.6054 414.269C73.581 432.504 72.4812 459.779 72.8347 461.94C101.586 463.237 108.42 464.298 125.271 459.975Z" fill="#25282B"/>
<path d="M483.366 280.688L505.008 302.343C505.008 302.343 546.25 318.495 550.845 328.399C555.441 338.302 546.682 337.831 537.019 336.455C527.357 335.08 499.941 318.023 499.941 318.023L474.843 288.981L483.366 280.688Z" fill="#14B86E"/>
<path d="M546.76 324.076L541.419 322.189L531.049 327.023C531.049 327.023 525.708 330.639 523.115 339.638C520.523 348.638 523.115 402.401 527.436 411.047C531.717 419.653 546.76 324.076 546.76 324.076Z" fill="#EDFDFC"/>
<path d="M580.775 539.636C580.775 539.636 584.585 542.073 584.899 543.212C585.213 544.352 588.002 556.574 586.942 557.989C585.881 559.404 582.071 558.736 583.564 559.758C584.703 560.544 591.93 561.133 596.565 559.876C597.9 559.522 597.311 548.086 597.507 546.356C597.782 543.841 599.55 538.103 598.489 536.61C597.979 535.863 594.993 534.606 592.323 533.545C589.495 532.444 586.392 529.339 586.392 529.339L580.775 539.636Z" fill="#F7A491"/>
<path d="M592.048 533.466C592.048 533.466 589.809 555.12 587.177 556.732C586.47 557.164 582.778 557.478 582.425 559.247C582.425 559.286 582.346 561.055 583.446 561.094L597.468 561.055C597.468 561.055 597.625 550.404 597.507 546.239C597.507 546.239 599.432 535.588 598.803 534.802C598.214 533.977 592.048 533.466 592.048 533.466Z" fill="#002A24"/>
<path d="M635.685 539.636C635.685 539.636 639.495 542.073 639.809 543.212C640.123 544.352 642.912 556.574 641.852 557.989C640.791 559.404 636.981 558.736 638.474 559.758C639.613 560.544 646.84 561.133 651.475 559.876C652.81 559.522 652.221 548.086 652.417 546.356C652.692 543.841 654.46 538.103 653.399 536.61C652.889 535.863 649.904 534.606 647.233 533.545C644.405 532.444 641.302 529.339 641.302 529.339L635.685 539.636Z" fill="#F7A491"/>
<path d="M566.753 398.824C566.753 398.824 579.596 424.33 582.228 431.168L601.788 480.804L644.915 531.58C644.915 531.58 641.773 539.754 636.981 541.916C636.981 541.916 584.977 499.904 580.696 493.262C574.176 483.162 544.482 421.382 544.482 421.382L538.944 409.514L566.753 398.824Z" fill="#25282B"/>
<path d="M535.723 398.549L535.919 420.282C535.919 420.282 526.65 491.297 528.417 495.541C532.817 505.838 581.05 540.697 581.05 540.697L587.609 529.418L552.927 490.708L566.045 453.019C569.738 444.255 577.515 427.356 577.318 417.845C577.161 409.71 561.018 390.846 561.018 390.846L535.723 398.549Z" fill="#25282B"/>
<path d="M556.54 428.653C569.306 425.745 579.675 421.225 580.735 417.649C581.207 416.038 574.097 399.807 568.834 378.152C567.106 371.078 567.42 364.437 564.671 339.678C564.082 334.412 561.921 323.408 553.791 320.578C550.924 319.595 549.353 319.713 549.353 319.713C549.274 319.713 539.023 319.792 534.309 322.425C533.131 323.997 528.81 332.643 527.671 356.144C527.161 366.402 525.118 399.374 525.55 404.719C525.629 405.505 525.707 406.291 525.786 407.038C527.632 421.186 542.557 431.836 556.54 428.653Z" fill="url(#paint19_linear_2897_19058)"/>
<path d="M532.816 340.464C532.856 340.503 532.856 340.464 532.816 340.464C538.08 339.874 551.159 322.7 551.159 322.7L551.12 322.661L543.029 309.849C543.029 309.849 531.127 312.011 533.445 315.665C535.762 319.281 537.098 328.006 537.098 328.006C537.058 328.123 537.019 328.241 536.941 328.359C536.155 330.128 533.484 335.394 532.816 340.464Z" fill="#F7A491"/>
<path d="M533.484 315.665C531.167 312.05 543.068 309.849 543.068 309.849L543.736 310.91C543.736 311.814 543.657 312.639 543.382 313.347C542.086 316.962 538.983 320.185 535.802 321.718C535.213 319.477 534.427 317.159 533.484 315.665Z" fill="#FE875E"/>
<path d="M536.352 289.61C536.626 289.374 545.66 304.229 543.461 310.36C541.3 316.491 533.995 321.364 529.674 319.163C524.882 316.766 517.616 299.71 522.015 292.478C526.375 285.247 536.352 289.61 536.352 289.61Z" fill="#F7A491"/>
<path d="M523.272 282.929C528.574 281.789 538.08 283.361 543.421 287.134C549.981 291.771 550.217 299.985 547.271 305.33C544.325 310.714 546.092 314.644 546.092 314.644C546.092 314.644 536.862 314.054 534.977 307.766C534.191 305.133 535.173 303.325 533.406 301.832C532.031 300.692 530.892 297.352 529.517 294.679C529.517 294.679 523.547 291.496 521.269 294.129C520.483 295.033 516.438 284.383 523.272 282.929Z" fill="#473B1E"/>
<path d="M532.463 303.011C533.288 304.936 534.859 306.155 535.959 305.683C537.098 305.212 537.333 303.247 536.548 301.321C535.723 299.395 534.152 298.177 533.052 298.648C531.913 299.12 531.638 301.085 532.463 303.011Z" fill="#F7A491"/>
<path d="M647.036 533.466C647.036 533.466 644.719 555.12 642.087 556.692C641.38 557.125 637.688 557.439 637.335 559.208C637.335 559.247 637.217 561.094 638.356 561.055L652.378 561.015C652.378 561.015 652.535 550.365 652.456 546.199C652.456 546.199 654.381 535.549 653.753 534.763C653.164 533.977 647.036 533.466 647.036 533.466Z" fill="#002A24"/>
<path d="M336.978 433.448C325.823 410.103 322.759 375.323 334.935 347.695C355.399 301.085 411.763 282.064 407.599 229.245C406.539 215.922 400.647 205.232 391.927 198.355C368.989 180.238 332.107 189.827 305.752 202.481C288.941 210.577 273.308 222.014 258.894 236.869L251.588 143.61C283.207 121.17 321.463 109.419 359.641 106.432C437.882 100.262 498.292 129.659 504.419 207.944C510.036 279.352 461.803 310.989 429.438 346.673C411.488 366.48 407.403 381.768 408.817 399.414C409.524 408.571 412.98 419.85 418.479 427.042L336.978 433.448ZM393.145 561.015C317.103 566.989 308.305 464.77 385.132 458.757C460.781 452.783 468.912 555.042 393.145 561.015Z" fill="url(#paint20_linear_2897_19058)"/>
<path d="M471.779 285.404C471.622 284.776 472.172 285.286 471.19 280.217C470.915 278.763 470.012 277.23 469.344 276.405C468.991 275.972 468.126 275.226 467.616 274.911C466.752 274.4 466.084 275.226 466.241 275.737C466.398 276.208 467.302 277.859 467.498 278.33C467.655 278.802 467.734 279.981 467.341 280.374C466.948 280.767 460.664 273.536 460.271 272.907C459.957 272.357 459.21 270.038 459.21 270.038C459.21 270.038 458.66 268.309 457.993 268.781C457.561 269.056 457.089 270.47 458.346 273.261C459.446 275.697 460.978 277.623 460.821 277.78C460.349 278.134 457.639 274.872 457.639 274.872C457.639 274.872 456.697 273.064 456.029 272.396C455.636 271.178 454.89 269.684 454.104 270.274C453.947 270.392 454.458 272.986 454.458 272.986C454.458 272.986 455.4 274.715 455.832 275.54C456.539 277.033 458.189 278.841 458.739 279.785C459.21 280.571 458.739 280.413 458.7 280.492C458.66 280.571 457.953 279.667 456.893 278.33C456.343 277.662 455.597 277.034 455.086 276.169C454.615 275.383 453.79 274.361 453.319 273.772C451.905 272.082 451.158 273.221 452.219 275.029C452.612 275.697 453.083 276.444 453.554 277.191C455.361 280.099 457.561 282.339 457.364 282.614C457.089 282.968 453.279 278.606 453.279 278.606C453.279 278.606 450.608 276.798 452.18 279.431C454.026 282.496 456.029 284.422 456.147 284.54C456.775 285.09 458.464 287.684 460.939 289.256C463.413 290.828 467.419 293.225 467.419 293.225C467.891 293.775 469.069 295.583 470.68 298.138L476.689 290.906C474.489 288.627 471.897 285.876 471.779 285.404Z" fill="#F8A492"/>
<path d="M467.066 295.583L475.354 288.313L503.83 316.412C503.83 316.412 547.9 320.264 548.017 320.303L549.785 320.853C565.771 326.394 559.212 339.442 556.109 341.446C548.921 346.162 509.054 343.333 496.289 335.394C485.801 328.949 467.066 295.583 467.066 295.583Z" fill="url(#paint21_linear_2897_19058)"/>
<path d="M170.322 335.905C170.636 337.084 170.833 337.477 171.226 338.263C173.818 343.333 179.867 350.564 179.867 350.564L184.541 339.324C184.541 339.324 183.795 335.787 182.459 330.757C177.942 331.975 173.622 332.722 170.322 335.905Z" fill="#F8A492"/>
<path d="M197.109 326.159C197.109 326.159 171.029 338.145 170.204 337.909C169.654 337.752 159.52 319.595 159.402 302.539C159.363 294.64 167.022 285.169 175.585 287.055C179.906 287.998 179.827 289.295 186.19 299.159C192.553 309.063 197.109 326.159 197.109 326.159Z" fill="#119C59"/>
<path d="M219.38 541.169C219.38 541.169 218.751 552.094 218.751 552.133C218.516 553.509 217.612 556.967 217.612 558.225C217.612 562.98 238.704 554.216 233.991 552.094C233.559 551.898 231.32 550.483 231.163 548.832C230.927 546.356 230.377 541.326 230.377 541.326L219.38 541.169Z" fill="#F7A491"/>
<path d="M233.913 552.016C233.913 552.016 228.964 553.47 226.411 553.823C223.858 554.177 220.519 551.151 218.751 551.976C216.788 552.88 216.866 561.055 216.866 561.055C216.866 561.055 243.418 563.373 250.881 560.976C253.866 559.993 244.046 555.395 233.913 552.016Z" fill="#473B1E"/>
<path d="M176.253 541.169C176.253 541.169 175.624 552.094 175.624 552.133C175.389 553.509 174.485 556.967 174.485 558.225C174.485 562.98 195.577 554.216 190.864 552.094C190.432 551.898 187.525 549.383 187.408 547.771C187.172 545.295 187.29 541.326 187.29 541.326L176.253 541.169Z" fill="#F7A491"/>
<path d="M190.786 552.016C190.786 552.016 185.837 553.47 183.284 553.823C180.731 554.177 177.392 551.151 175.625 551.976C173.661 552.88 173.582 561.055 173.582 561.055C173.582 561.055 200.252 563.766 207.754 560.976C210.66 559.876 200.919 555.395 190.786 552.016Z" fill="#473B1E"/>
<path d="M182.694 341.957L201.273 314.172C201.351 313.936 201.508 313.425 201.783 312.679C202.726 309.928 204.651 304.19 206.379 298.491V298.413C206.929 296.408 208.029 292.95 209.128 289.57C210.346 285.837 211.838 281.199 211.917 280.413C211.878 280.295 211.799 280.02 211.681 279.706C211.014 277.82 210.071 273.339 209.757 271.374C209.56 270.117 209.325 267.091 210.739 267.091C212.899 267.091 211.878 270.117 212.899 272.003C213.252 270.745 213.999 268.23 214.392 265.715L214.745 259.82C214.824 259.388 214.352 256.126 215.884 256.126H215.963C217.337 256.244 217.298 259.702 217.887 265.558C218.084 264.89 218.241 264.064 218.398 263.318C218.398 262.925 218.673 261.156 218.869 260.213C218.594 258.562 218.751 256.008 220.401 256.244C221.226 256.362 221.147 259.977 221.147 259.977C221.147 260.488 221.108 264.261 221.108 265.008C221.265 263.75 221.933 258.287 223.19 258.287C224.25 258.287 224.329 259.741 224.329 260.92C224.329 261.589 223.661 267.484 223.622 268.191C224.132 267.287 224.722 262.099 225.193 262.099C227.275 262.099 226.528 269.488 225.743 271.414C225.664 271.61 225.586 272.003 225.507 272.435C225.232 273.732 224.8 275.933 223.74 277.937C222.443 280.295 220.637 284.068 220.362 284.658C220.165 285.837 219.537 290.081 218.751 295.387C218.398 297.666 218.044 300.181 217.652 302.736H217.612C217.534 303.286 217.141 305.094 215.688 311.735C213.684 320.892 213.488 321.285 213.37 321.443C212.506 323.093 192.474 352.136 191.61 353.354L191.1 354.101L182.694 341.957Z" fill="#F7A491"/>
<path d="M217.219 277.191C217.219 277.191 215.727 273.064 213.017 273.064C213.017 273.064 214.509 272.475 215.805 273.575C217.101 274.636 217.219 277.191 217.219 277.191Z" fill="#F47458"/>
<path d="M178.178 269.213L175.782 285.365C175.782 285.365 184.894 293.186 190.197 291.535C194.635 290.16 191.611 283.95 191.611 283.95C191.611 283.95 189.254 275.344 189.961 270.824C190.707 266.265 178.178 269.213 178.178 269.213Z" fill="#F7A491"/>
<path d="M179.906 274.125C182.184 275.265 186.701 276.837 190.196 277.23C189.843 274.99 189.686 272.593 189.961 270.824C190.314 268.741 187.8 268.23 185.051 268.309C181.437 268.623 178.177 269.252 178.177 269.252L177.706 272.357C178.413 273.104 179.159 273.732 179.906 274.125Z" fill="#FE875E"/>
<path d="M166.709 250.624C166.316 250.624 170.322 268.663 176.449 271.767C182.616 274.872 191.768 273.261 193.496 268.388C195.381 263.003 188.468 244.611 179.788 242.292C171.147 239.934 166.709 250.624 166.709 250.624Z" fill="#F7A491"/>
<path d="M173.818 234.039C168.908 237.065 166.63 241.546 165.884 243.393C163.566 244.572 160.778 247.087 159.442 253.886C157.792 262.257 163.645 268.741 169.851 270.667C176.057 272.593 177.117 276.994 177.117 276.994L177.746 272.278C177.746 272.278 176.371 268.152 174.289 266.108C172.207 264.064 175.271 261.038 175.546 258.602C175.742 256.715 174.446 253.06 174.721 249.956C174.721 249.956 178.178 244.375 181.555 243C187.369 240.681 180.141 230.149 173.818 234.039Z" fill="#002A24"/>
<path d="M176.449 261.746C177.235 263.829 176.921 265.912 175.703 266.383C174.486 266.855 172.875 265.558 172.05 263.475C171.265 261.392 171.579 259.309 172.797 258.838C174.014 258.366 175.625 259.663 176.449 261.746Z" fill="#F7A491"/>
<path d="M199.348 342.429L235.169 336.18C235.169 336.18 231.085 325.215 229.631 325.215C228.178 325.215 202.53 337.163 202.53 337.163L200.487 341.525L199.348 342.429Z" fill="#F8A492"/>
<path d="M181.006 368.642C181.006 368.642 177.431 387.074 178.885 401.064C180.338 415.055 180.456 464.73 180.456 464.73L174.917 544.234L188.115 544.549C188.115 544.549 203.747 465.084 203.472 467.128C203.197 469.171 208.696 411.164 208.696 411.164L190.039 366.873L181.006 368.642Z" fill="#25282B"/>
<path d="M184.501 367.777C184.501 367.777 182.184 384.401 185.09 391.672C187.997 398.942 210.071 470.429 210.346 476.285C210.621 482.101 217.966 546.553 217.966 546.553L233.284 546.081L236.584 474.477L229.631 384.44L222.876 361.686L184.501 367.777Z" fill="#25282B"/>
<path d="M175.821 285.365C175.821 285.365 179.591 287.998 183.126 287.723C186.662 287.409 191.65 283.95 191.65 283.95L190.943 281.435C190.943 281.435 181.83 280.02 181.595 280.178C181.359 280.295 175.821 285.365 175.821 285.365Z" fill="#F7A491"/>
<path d="M216.081 324.704C216.081 324.704 229.631 338.341 235.759 336.023C241.886 333.704 244.4 325.726 229.474 314.054C216.12 303.6 216.081 324.704 216.081 324.704Z" fill="#F8A492"/>
<path d="M225.272 341.564C223.269 329.853 208.657 293.461 207.518 286.78C206.968 283.518 199.073 283.439 191.571 283.872C183.637 284.304 175.782 285.405 175.782 285.405C175.782 285.405 168.79 286.623 165.687 289.727C162.584 292.832 161.799 301.36 166.198 317.552C169.694 330.324 174.054 337.359 176.175 346.673C176.607 349.778 176.999 352.883 177.471 356.498C178.256 370.41 177.471 388.842 177.471 388.842C177.471 388.842 215.609 397.291 229.907 384.48C229.946 384.401 227.354 353.511 225.272 341.564Z" fill="#14B86E"/>
<path d="M235.013 316.412C235.013 316.412 220.048 329.617 219.184 329.617C218.634 329.617 197.817 313.268 193.025 299.867C190.354 292.439 195.931 284.147 202.294 284.186C206.693 284.186 208.657 285.404 217.416 293.304C226.175 301.203 235.013 316.412 235.013 316.412Z" fill="#119C59"/>
<path d="M463.688 54.792L431.244 76.7607C427.945 79.0008 423.467 78.1362 421.228 74.835L399.272 42.3732C397.033 39.072 397.897 34.5918 401.197 32.3517L433.64 10.383C436.939 8.14291 441.417 9.00751 443.656 12.3087L465.612 44.7705C467.851 48.0717 466.987 52.5519 463.688 54.792Z" fill="#14B86E"/>
<path d="M447.387 31.7622C453.083 40.1724 450.883 51.6087 442.478 57.2679C434.072 62.9664 422.642 60.7656 416.986 52.3554C411.291 43.9452 413.491 32.5089 421.896 26.8497C430.262 21.1512 441.692 23.352 447.387 31.7622Z" fill="white"/>
<path d="M426.138 34.4739L433.68 42.6876C434.229 43.2771 434.19 44.2203 433.601 44.7705C433.012 45.3207 432.069 45.2814 431.519 44.6919C431.441 44.6133 431.362 44.4954 431.284 44.3775L426.138 34.4739Z" fill="#14B86E"/>
<path d="M431.873 42.7662L443.224 36.3996L433.326 44.8491C432.776 45.3207 431.991 45.2421 431.519 44.6919C431.048 44.1417 431.127 43.3557 431.677 42.8841C431.716 42.8841 431.794 42.8055 431.873 42.7662Z" fill="#119C59"/>
<path d="M143.731 232.664H77.9799C66.118 232.664 56.5342 223.035 56.5342 211.206V197.569C56.5342 185.7 66.1573 176.111 77.9799 176.111H143.731C155.593 176.111 165.177 185.74 165.177 197.569V211.206C165.177 223.075 155.593 232.664 143.731 232.664Z" fill="#14B86E"/>
<path d="M152.293 211.324L179.042 223.31L161.131 198.237L152.293 211.324Z" fill="#14B86E"/>
<path d="M92.7095 202.56C92.7095 204.879 90.6277 206.726 88.0354 206.726C85.4431 206.726 83.3613 204.879 83.3613 202.56C83.3613 200.241 85.4431 198.394 88.0354 198.394C90.6277 198.394 92.7095 200.281 92.7095 202.56Z" fill="white"/>
<path d="M114.509 202.56C114.509 204.879 112.427 206.726 109.835 206.726C107.242 206.726 105.161 204.879 105.161 202.56C105.161 200.241 107.242 198.394 109.835 198.394C112.427 198.394 114.509 200.281 114.509 202.56Z" fill="white"/>
<path d="M136.347 202.56C136.347 204.879 134.265 206.726 131.673 206.726C129.081 206.726 126.999 204.879 126.999 202.56C126.999 200.241 129.081 198.394 131.673 198.394C134.226 198.394 136.347 200.281 136.347 202.56Z" fill="white"/>
<path d="M388.864 11.2476L384.465 1.81561L388.118 0.125702L390.631 5.43121L396.719 1.73701L398.84 5.23471L388.864 11.2476Z" fill="#119C59"/>
<path d="M139.254 146.558L129.473 150.055L128.099 146.243L133.637 144.278L130.573 137.833L134.226 136.064L139.254 146.558Z" fill="#119C59"/>
<path d="M544.6 51.8052C545.346 54.1239 546.053 56.4426 546.76 58.7613C547.31 60.5691 547.742 63.5166 549.51 64.5384C549.942 64.7742 550.688 64.6956 550.884 64.1847C551.749 62.259 550.492 59.7831 549.903 57.8967C549.156 55.578 548.41 53.2593 547.703 50.9406C547.075 48.9756 543.972 49.8009 544.6 51.8052Z" fill="#94DD8B"/>
<path d="M569.109 49.29C565.338 62.1018 565.338 61.7088 565.613 63.0057C565.849 64.0275 567.224 64.3419 567.931 63.5952C568.795 62.6913 568.598 62.9664 572.212 50.1153C572.723 48.1503 569.698 47.325 569.109 49.29Z" fill="#94DD8B"/>
<path d="M583.406 77.8218C585.606 76.7607 587.845 75.6996 590.044 74.6385C592.008 73.6953 594.561 72.9486 595.896 71.1408C596.486 70.3548 595.661 69.333 594.836 69.2937C592.636 69.2151 590.319 70.905 588.434 71.8482C586.234 72.9093 584.035 73.9704 581.835 75.0708C579.95 75.9354 581.56 78.6864 583.406 77.8218Z" fill="#94DD8B"/>
<path d="M576.179 116.296C578.458 119.205 580.736 122.231 583.289 124.903C584.663 126.357 586.667 124.235 585.449 122.742C583.053 119.873 580.618 117.082 578.34 114.174C577.122 112.642 575.001 114.764 576.179 116.296Z" fill="#94DD8B"/>
<path d="M584.506 101.363C586.549 102.266 588.631 103.092 590.712 103.917C592.598 104.664 594.876 106 596.918 105.686C598.018 105.528 598.136 104.074 597.508 103.406C596.722 102.542 596.329 102.62 591.812 100.891C589.77 100.105 587.767 99.2796 585.685 98.4936C584.074 97.8648 582.896 100.655 584.506 101.363Z" fill="#94DD8B"/>
<defs>
<linearGradient id="paint0_linear_2897_19058" x1="0.206285" y1="563.398" x2="733.045" y2="563.398" gradientUnits="userSpaceOnUse">
<stop stop-color="#53CD9F"/>
<stop offset="1" stop-color="#0D7A5C"/>
</linearGradient>
<linearGradient id="paint1_linear_2897_19058" x1="216.198" y1="69.3377" x2="294.676" y2="69.3975" gradientUnits="userSpaceOnUse">
<stop stop-color="#119C59"/>
<stop offset="0.407986" stop-color="#119C59"/>
<stop offset="0.756944" stop-color="#14B86E"/>
</linearGradient>
<linearGradient id="paint2_linear_2897_19058" x1="217.238" y1="69.2481" x2="293.637" y2="69.3063" gradientUnits="userSpaceOnUse">
<stop stop-color="#119C59"/>
<stop offset="0.407986" stop-color="#119C59"/>
<stop offset="0.756944" stop-color="#14B86E"/>
</linearGradient>
<linearGradient id="paint3_linear_2897_19058" x1="225.359" y1="77.1203" x2="233.393" y2="77.1298" gradientUnits="userSpaceOnUse">
<stop stop-color="#119C59"/>
<stop offset="0.407986" stop-color="#119C59"/>
<stop offset="0.756944" stop-color="#14B86E"/>
</linearGradient>
<linearGradient id="paint4_linear_2897_19058" x1="263.734" y1="92.3728" x2="268.939" y2="92.3754" gradientUnits="userSpaceOnUse">
<stop stop-color="#119C59"/>
<stop offset="0.407986" stop-color="#119C59"/>
<stop offset="0.756944" stop-color="#14B86E"/>
</linearGradient>
<linearGradient id="paint5_linear_2897_19058" x1="277.481" y1="55.2695" x2="285.514" y2="55.279" gradientUnits="userSpaceOnUse">
<stop stop-color="#119C59"/>
<stop offset="0.407986" stop-color="#119C59"/>
<stop offset="0.756944" stop-color="#14B86E"/>
</linearGradient>
<linearGradient id="paint6_linear_2897_19058" x1="215.282" y1="36.3957" x2="226.463" y2="36.4041" gradientUnits="userSpaceOnUse">
<stop stop-color="#119C59"/>
<stop offset="0.407986" stop-color="#119C59"/>
<stop offset="0.756944" stop-color="#14B86E"/>
</linearGradient>
<linearGradient id="paint7_linear_2897_19058" x1="230.779" y1="20.085" x2="242.703" y2="20.0965" gradientUnits="userSpaceOnUse">
<stop stop-color="#119C59"/>
<stop offset="0.407986" stop-color="#119C59"/>
<stop offset="0.756944" stop-color="#14B86E"/>
</linearGradient>
<linearGradient id="paint8_linear_2897_19058" x1="223.033" y1="17.0703" x2="247.342" y2="17.0888" gradientUnits="userSpaceOnUse">
<stop stop-color="#119C59"/>
<stop offset="0.407986" stop-color="#119C59"/>
<stop offset="0.756944" stop-color="#14B86E"/>
</linearGradient>
<linearGradient id="paint9_linear_2897_19058" x1="235.798" y1="26.2453" x2="242.908" y2="26.2502" gradientUnits="userSpaceOnUse">
<stop stop-color="#119C59"/>
<stop offset="0.407986" stop-color="#119C59"/>
<stop offset="0.756944" stop-color="#14B86E"/>
</linearGradient>
<linearGradient id="paint10_linear_2897_19058" x1="252.536" y1="66.1504" x2="258.299" y2="66.1548" gradientUnits="userSpaceOnUse">
<stop stop-color="#119C59"/>
<stop offset="0.407986" stop-color="#119C59"/>
<stop offset="0.756944" stop-color="#14B86E"/>
</linearGradient>
<linearGradient id="paint11_linear_2897_19058" x1="254.295" y1="55.7572" x2="258.501" y2="55.7578" gradientUnits="userSpaceOnUse">
<stop stop-color="#119C59"/>
<stop offset="0.407986" stop-color="#119C59"/>
<stop offset="0.756944" stop-color="#14B86E"/>
</linearGradient>
<linearGradient id="paint12_linear_2897_19058" x1="254.41" y1="71.8229" x2="276.215" y2="71.8515" gradientUnits="userSpaceOnUse">
<stop stop-color="#119C59"/>
<stop offset="0.407986" stop-color="#119C59"/>
<stop offset="0.756944" stop-color="#14B86E"/>
</linearGradient>
<linearGradient id="paint13_linear_2897_19058" x1="254.253" y1="65.9947" x2="256.582" y2="65.9965" gradientUnits="userSpaceOnUse">
<stop stop-color="#119C59"/>
<stop offset="0.407986" stop-color="#119C59"/>
<stop offset="0.756944" stop-color="#14B86E"/>
</linearGradient>
<linearGradient id="paint14_linear_2897_19058" x1="151.107" y1="-0.342188" x2="173.829" y2="202.954" gradientUnits="userSpaceOnUse">
<stop stop-color="#53CD9F"/>
<stop offset="1" stop-color="#0D7A5C"/>
</linearGradient>
<linearGradient id="paint15_linear_2897_19058" x1="157.034" y1="-1.00461" x2="179.756" y2="202.291" gradientUnits="userSpaceOnUse">
<stop stop-color="#53CD9F"/>
<stop offset="1" stop-color="#0D7A5C"/>
</linearGradient>
<linearGradient id="paint16_linear_2897_19058" x1="75.529" y1="312.862" x2="82.9225" y2="396.127" gradientUnits="userSpaceOnUse">
<stop stop-color="#C9CD55"/>
<stop offset="0.5065" stop-color="#659C52"/>
<stop offset="1" stop-color="#287F50"/>
</linearGradient>
<linearGradient id="paint17_linear_2897_19058" x1="58.6023" y1="557.562" x2="69.949" y2="557.562" gradientUnits="userSpaceOnUse">
<stop stop-color="#FB9A2B"/>
<stop offset="1" stop-color="#E65925"/>
</linearGradient>
<linearGradient id="paint18_linear_2897_19058" x1="107.204" y1="556.266" x2="134.521" y2="556.266" gradientUnits="userSpaceOnUse">
<stop stop-color="#FB9A2B"/>
<stop offset="1" stop-color="#E65925"/>
</linearGradient>
<linearGradient id="paint19_linear_2897_19058" x1="525.491" y1="379.184" x2="580.758" y2="379.206" gradientUnits="userSpaceOnUse">
<stop stop-color="#119C59"/>
<stop offset="0.407986" stop-color="#119C59"/>
<stop offset="0.756944" stop-color="#14B86E"/>
</linearGradient>
<linearGradient id="paint20_linear_2897_19058" x1="251.588" y1="353.092" x2="504.87" y2="353.199" gradientUnits="userSpaceOnUse">
<stop stop-color="#119C59"/>
<stop offset="0.407986" stop-color="#119C59"/>
<stop offset="0.756944" stop-color="#14B86E"/>
</linearGradient>
<linearGradient id="paint21_linear_2897_19058" x1="467.066" y1="318.414" x2="560.106" y2="318.533" gradientUnits="userSpaceOnUse">
<stop stop-color="#119C59"/>
<stop offset="0.407986" stop-color="#119C59"/>
<stop offset="0.756944" stop-color="#14B86E"/>
</linearGradient>
</defs>
</svg>
