<svg width="148" height="125" viewBox="0 0 148 125" fill="none" xmlns="http://www.w3.org/2000/svg">
<path opacity="0.5" d="M0 0H59.4277V57.0055C59.4277 74.5574 54.9497 89.0568 45.9938 100.504C37.1897 111.951 24.2872 120.116 7.28615 125L0.227692 103.48C5.9959 101.496 10.7774 99.4353 14.5723 97.2985C18.3672 95.0092 21.4031 92.4908 23.68 89.7436C25.9569 86.8437 27.5508 83.5623 28.4615 79.8993C29.3723 76.2363 29.8277 71.9628 29.8277 67.0788H0V0ZM88.5723 0H148V57.0055C148 74.5574 143.522 89.0568 134.566 100.504C125.762 111.951 112.859 120.116 95.8585 125L88.8 103.48C94.5682 101.496 99.3497 99.4353 103.145 97.2985C106.939 95.0092 109.975 92.4908 112.252 89.7436C114.529 86.8437 116.123 83.5623 117.034 79.8993C117.945 76.2363 118.4 71.9628 118.4 67.0788H88.5723V0Z" fill="#CACCCF"/>
</svg>
