<svg width="649" height="504" viewBox="0 0 649 504" fill="none" xmlns="http://www.w3.org/2000/svg">
<path d="M11.9556 374.536C16.0314 374.247 23.9112 369.485 23.9112 369.485C24.0471 369.485 19.4279 364.866 19.1562 364.577C15.488 361.691 6.65711 358.227 2.44547 361.546C-0.543433 363.856 -0.679292 368.33 1.63032 371.217C4.07578 374.247 8.55914 374.825 11.9556 374.536Z" fill="#263238"/>
<path d="M27.0359 397.773C30.7041 396.33 36.8178 390.124 37.2253 389.691C40.486 393.299 44.0183 396.763 47.9582 400.082C50.132 401.959 52.4416 403.835 54.7512 405.567C53.5285 404.845 52.5774 404.412 52.4416 404.268C48.0941 402.536 38.8557 401.67 35.595 406C33.2854 409.031 34.2364 413.361 37.2253 415.526C40.2143 417.691 44.6976 417.113 47.9582 415.814C51.2189 414.515 56.5174 409.32 57.876 408.021C58.827 408.742 59.6421 409.32 60.4573 410.041C64.6689 413.217 69.0164 416.536 73.0922 419.711C74.5867 420.866 75.9453 422.021 77.3038 423.32C76.217 422.742 75.4018 422.309 75.266 422.165C70.9185 420.433 61.68 419.567 58.4194 423.897C56.1098 426.928 57.0608 431.258 60.0497 433.423C63.0386 435.588 67.522 435.01 70.7826 433.711C73.9074 432.557 78.7983 427.794 80.4286 426.062C81.7872 427.361 83.1458 428.515 84.5044 429.814C85.3195 430.68 86.2706 431.546 87.0857 432.412C87.9009 433.278 88.716 434.289 89.5312 435.155C91.0256 437.031 92.5201 438.763 94.0145 440.639C94.9656 441.938 95.9166 443.093 96.8676 444.247C95.509 443.093 92.656 440.928 92.3842 440.639C88.4443 438.186 79.3417 435.876 75.4018 439.629C72.6846 442.227 73.0922 446.701 75.6735 449.299C78.3907 451.897 82.8741 452.041 86.2706 451.32C89.9388 450.598 96.5959 445.691 97.411 444.969C98.9055 446.99 100.4 449.01 101.759 450.887C105.427 455.938 108.551 460.557 110.997 464.165L113.986 462.433C111.405 458.68 108.144 454.062 104.204 448.866C102.71 446.845 100.943 444.68 99.1772 442.371C99.5848 441.794 102.03 438.907 103.932 435.732C107.6 437.175 115.209 436.887 116.16 436.887C116.431 439.485 116.567 441.938 116.839 444.392C117.246 450.598 117.518 456.082 117.654 460.412L120.915 458.969C120.643 454.928 120.371 450.021 119.828 444.536C119.556 441.938 119.284 439.052 119.013 436.165C119.964 435.876 127.708 433.423 130.697 430.825C133.278 428.515 135.995 424.619 135.859 420.722C135.587 416.969 132.599 413.794 128.93 414.371C123.768 415.237 119.828 424.186 119.149 429.093C119.149 429.381 119.013 432.557 119.013 434.577C118.877 433.423 118.741 432.268 118.605 431.113C118.333 428.66 117.926 426.351 117.518 423.753C117.246 422.454 117.111 421.299 116.839 420C116.567 418.701 116.295 417.402 116.024 416.247C115.344 413.216 114.393 410.33 113.578 407.299C115.616 407.01 122.545 405.856 125.534 403.979C128.523 402.103 131.648 398.784 132.055 394.887C132.327 391.134 129.881 387.526 126.077 387.526C120.915 387.526 115.616 395.753 114.258 400.515C114.122 400.804 113.578 404.268 113.171 406.144C112.627 404.412 112.084 402.536 111.405 400.804C109.638 395.608 107.6 390.557 105.563 385.361C105.019 383.773 104.34 382.186 103.796 380.598C104.476 380.454 112.899 379.299 116.16 377.134C119.149 375.258 122.273 371.938 122.681 368.041C122.953 364.289 120.507 360.68 116.703 360.68C111.54 360.68 106.242 368.907 104.883 373.67C104.747 373.959 103.932 379.01 103.661 380.309C102.302 376.845 101.079 373.381 99.9923 369.918C98.4979 365.155 97.1393 360.392 96.3242 355.629C96.5959 355.629 105.291 354.474 108.687 352.165C111.676 350.289 114.801 346.969 115.209 343.072C115.48 339.32 113.035 335.711 109.231 335.711C104.068 335.711 98.7696 343.938 97.411 348.701C97.2752 349.134 96.3242 354.474 96.1883 355.485C96.1883 355.196 96.0524 354.907 96.0524 354.619C95.1014 349.567 94.8297 344.515 94.8297 339.753C94.8297 337.01 94.9656 334.412 95.1014 331.814C96.7317 331.814 104.204 331.526 107.465 329.938C110.589 328.351 114.122 325.464 114.937 321.567C115.616 317.814 113.442 314.062 109.774 313.629C104.612 313.052 98.4979 320.557 96.7317 325.031C96.5959 325.32 95.9166 327.918 95.3731 329.794C95.509 328.639 95.509 327.485 95.6449 326.33C96.0524 322.144 96.5959 318.392 97.1393 315.072C97.411 313.196 97.8186 311.464 98.0903 309.876C99.7206 309.01 106.106 305.113 108.144 302.083C110.182 299.196 112.084 294.866 111.133 291.113C110.182 287.505 106.514 285.052 103.117 286.495C98.362 288.515 96.1883 298.186 96.46 303.093C96.46 303.526 97.5469 310.021 97.6827 310.021H97.8186C97.411 311.608 97.1393 313.196 96.7317 314.928C96.0524 318.247 95.3731 322 94.9656 326.186C94.4221 330.371 94.0145 334.845 94.0145 339.608C94.0145 344.371 94.1504 349.423 94.9656 354.619V354.763C94.2863 353.32 92.2484 349.423 92.1125 349.134C89.3953 345.093 82.0589 339.031 77.168 340.619C73.6356 341.773 72.1412 346.103 73.6356 349.567C75.1301 353.175 79.07 355.196 82.4665 356.206C86.2706 357.217 94.558 355.629 95.2373 355.485C96.0524 360.392 97.2752 365.443 98.7696 370.351C99.5848 373.237 100.536 375.979 101.487 378.866C100.808 377.711 100.264 376.557 100.128 376.412C97.411 372.371 90.0746 366.309 85.1837 367.897C81.6513 369.052 80.1569 373.381 81.6513 376.845C83.1458 380.454 87.0857 382.474 90.4822 383.485C93.8787 384.351 100.943 383.196 102.845 382.763C103.253 383.918 103.661 384.928 103.932 386.082C105.834 391.278 107.736 396.474 109.367 401.526C109.91 403.402 110.454 405.134 110.997 407.01C110.454 405.856 109.91 404.99 109.91 404.845C107.193 400.804 99.8565 394.742 94.9656 396.33C91.4332 397.485 89.9388 401.814 91.4332 405.278C92.9277 408.887 96.8676 410.907 100.264 411.918C103.525 412.784 110.046 411.629 112.356 411.34C112.899 413.216 113.307 415.093 113.714 416.969C113.986 418.268 114.258 419.423 114.529 420.722C114.801 422.021 114.937 423.175 115.209 424.474C115.48 426.928 115.888 429.381 116.16 431.691C116.295 433.278 116.431 434.866 116.703 436.454C116.16 434.577 114.937 431.113 114.801 430.825C113.442 427.938 110.182 423.753 106.649 421.588C106.514 421.155 106.242 420.722 105.97 420.289C103.796 417.258 99.7206 416.392 96.8676 419.134C93.0635 422.887 94.2863 432.701 96.3242 437.175C96.46 437.464 97.9545 440.206 99.0413 441.794C98.362 440.928 97.5469 440.062 96.8676 439.052C95.3731 437.175 93.8787 435.443 92.1125 433.567C91.2974 432.701 90.4822 431.835 89.667 430.825C88.8519 429.959 87.9009 429.093 86.9499 428.082C84.7761 426.062 82.6024 424.041 80.2927 422.165C81.7872 420.722 87.0857 415.67 88.4443 412.351C89.9388 409.031 90.8898 404.412 89.1236 400.948C87.4933 397.629 83.4175 396.186 80.2927 398.351C75.9453 401.381 75.8094 411.34 77.168 416.103C77.3038 416.392 78.5266 419.711 79.2059 421.443C77.8473 420.289 76.3528 419.134 74.9942 417.979C70.7826 414.804 66.4351 411.629 62.0876 408.454C60.729 407.443 59.5063 406.577 58.1477 405.567C58.6911 405.134 65.0765 399.216 66.7068 395.464C68.2013 392.144 69.1523 387.526 67.3861 384.062C65.7558 380.742 61.68 379.299 58.5553 381.464C54.2078 384.495 54.0719 394.454 55.4305 399.217C55.5664 399.505 57.3325 404.268 57.876 405.423C55.0229 403.258 52.1699 401.093 49.4527 398.928C45.6486 395.897 42.1163 392.577 38.8557 389.113C39.1274 388.825 45.7845 382.763 47.4148 379.01C48.9093 375.691 49.8603 371.072 48.0941 367.608C46.4638 364.289 42.388 362.845 39.2632 365.01C34.9157 368.041 34.7799 378 36.1385 382.763C36.2743 383.196 38.1764 388.247 38.5839 389.113C38.4481 388.969 38.1764 388.68 38.0405 388.536C34.644 384.784 31.791 380.742 29.3455 376.845C27.8511 374.536 26.6283 372.371 25.4056 370.062C26.7642 369.052 32.8778 364.433 34.7799 361.113C36.5461 357.938 38.0405 353.464 36.6819 349.856C35.3233 346.392 31.5193 344.371 28.2586 346.247C23.6394 348.845 22.5525 358.66 23.3677 363.423C23.3677 363.711 24.1829 366.309 24.7263 368.186C24.1829 367.175 23.6394 366.165 23.2318 365.155C21.4657 361.402 19.9712 357.938 18.7485 354.907C18.0692 353.175 17.3899 351.588 16.8464 350C17.6616 348.268 21.0581 341.34 21.1939 337.588C21.4657 333.979 20.7864 329.217 17.9333 326.619C15.2161 324.165 11.0045 324.309 8.83075 327.485C5.84184 331.959 9.10247 341.34 11.9555 345.237C12.2272 345.526 16.5747 350.433 16.5747 350.289V350.144C17.1182 351.588 17.6616 353.175 18.205 354.907C19.4278 358.082 20.7864 361.546 22.5525 365.299C24.3187 369.052 26.2207 373.093 28.6662 377.134C31.1117 381.175 33.8289 385.217 37.2253 389.113L37.3612 389.258C36.0026 388.392 32.3344 386.371 31.9268 386.227C27.5793 384.495 18.3409 383.629 15.0803 387.959C12.7707 390.99 13.7217 395.32 16.7106 397.485C19.2919 399.649 23.7753 398.928 27.0359 397.773Z" fill="#263238"/>
<path d="M94.1505 330.948C94.2864 330.948 92.7919 324.454 92.656 324.021C91.0257 319.402 85.4555 311.464 80.2929 311.608C76.6246 311.752 74.1792 315.505 74.5868 319.258C75.1302 323.155 78.3908 326.33 81.5156 328.062C85.0479 330.227 94.1505 330.948 94.1505 330.948Z" fill="#263238"/>
<path d="M637.044 374.536C632.968 374.247 625.089 369.485 625.089 369.485C624.953 369.485 629.572 364.866 629.844 364.577C633.512 361.691 642.343 358.227 646.554 361.546C649.543 363.856 649.679 368.33 647.37 371.217C644.924 374.247 640.577 374.825 637.044 374.536Z" fill="#263238"/>
<path d="M622.1 397.773C618.432 396.33 612.318 390.124 611.91 389.691C608.65 393.299 605.117 396.763 601.177 400.082C599.004 401.959 596.694 403.835 594.384 405.567C595.607 404.845 596.558 404.412 596.694 404.268C601.042 402.536 610.28 401.67 613.541 406C615.85 409.031 614.899 413.361 611.91 415.526C608.921 417.691 604.438 417.113 601.177 415.814C597.917 414.515 592.618 409.32 591.26 408.021C590.309 408.742 589.493 409.32 588.678 410.041C584.467 413.216 580.119 416.536 576.043 419.711C574.549 420.866 573.19 422.021 571.832 423.319C572.919 422.742 573.734 422.309 573.87 422.165C578.217 420.433 587.456 419.567 590.716 423.897C593.026 426.928 592.075 431.258 589.086 433.423C586.097 435.588 581.614 435.01 578.353 433.711C575.228 432.557 570.337 427.794 568.707 426.062C567.348 427.361 565.99 428.515 564.631 429.814C563.816 430.68 562.865 431.546 562.05 432.412C561.235 433.278 560.42 434.289 559.604 435.155C558.11 437.031 556.616 438.763 555.121 440.639C554.17 441.938 553.219 443.093 552.268 444.247C553.627 443.093 556.48 440.928 556.751 440.639C560.691 438.185 569.794 435.876 573.734 439.629C576.451 442.227 576.043 446.701 573.462 449.299C570.745 451.897 566.262 452.041 562.865 451.32C559.197 450.598 552.54 445.691 551.725 444.969C550.23 446.99 548.736 449.01 547.377 450.887C543.709 455.938 540.584 460.557 538.139 464.165L535.15 462.433C537.731 458.68 540.992 454.062 544.932 448.866C546.426 446.845 548.192 444.68 549.958 442.371C549.551 441.794 547.105 438.907 545.203 435.732C541.535 437.175 533.927 436.887 532.976 436.887C532.704 439.484 532.568 441.938 532.297 444.392C531.889 450.598 531.617 456.082 531.482 460.412L528.221 458.536C528.493 454.495 528.764 449.588 529.308 444.103C529.58 441.505 529.851 438.618 530.123 435.732C529.172 435.443 521.428 432.99 518.439 430.392C515.858 428.082 513.141 424.186 513.276 420.289C513.548 416.536 516.537 413.361 520.205 413.938C525.368 414.804 529.308 423.753 529.987 428.66C529.987 428.948 530.123 432.124 530.123 434.144C530.259 432.99 530.395 431.835 530.531 430.68C530.802 428.227 531.21 425.917 531.617 423.319C531.889 422.021 532.025 420.866 532.297 419.567C532.568 418.268 532.84 416.969 533.112 415.814C533.791 412.783 534.742 409.897 535.557 406.866C533.519 406.577 526.591 405.423 523.602 403.546C520.613 401.67 517.488 398.35 517.08 394.454C516.809 390.701 519.254 387.093 523.058 387.093C528.221 387.093 533.519 395.32 534.878 400.082C535.014 400.371 535.557 403.835 535.965 405.711C536.508 403.979 537.052 402.103 537.731 400.371C539.497 395.175 541.535 390.124 543.573 384.928C544.116 383.34 544.796 381.752 545.339 380.165C544.66 380.021 536.237 378.866 532.976 376.701C529.987 374.825 526.862 371.505 526.455 367.608C526.183 363.856 528.628 360.247 532.433 360.247C537.595 360.247 542.894 368.474 544.252 373.237C544.388 373.526 545.203 378.577 545.475 379.876C546.834 376.412 548.056 372.948 549.143 369.484C550.638 364.722 551.996 359.959 552.811 355.196C552.54 355.196 543.845 354.041 540.448 351.732C537.459 349.856 534.335 346.536 533.927 342.639C533.655 338.887 536.101 335.278 539.905 335.278C545.067 335.278 550.366 343.505 551.725 348.268C551.86 348.701 552.811 354.041 552.947 355.051C552.947 354.763 553.083 354.474 553.083 354.185C554.034 349.134 554.306 344.082 554.306 339.32C554.306 336.577 554.17 333.979 554.034 331.381C552.404 331.381 544.932 331.093 541.671 329.505C538.546 327.917 535.014 325.031 534.199 321.134C533.519 317.381 535.693 313.629 539.361 313.196C544.524 312.618 550.638 320.124 552.404 324.598C552.54 324.887 553.219 327.484 553.762 329.361C553.627 328.206 553.627 327.051 553.491 325.897C553.083 321.711 552.54 317.959 551.996 314.639C551.725 312.763 551.317 311.031 551.045 309.443C549.415 308.577 543.03 304.68 540.992 301.649C538.954 298.763 537.052 294.433 538.003 290.68C538.954 287.072 542.622 284.618 546.018 286.062C550.774 288.082 552.947 297.752 552.676 302.66C552.676 303.093 551.589 309.588 551.453 309.588H551.317C551.725 311.175 551.996 312.763 552.404 314.495C553.083 317.814 553.762 321.567 554.17 325.752C554.713 329.938 555.121 334.412 555.121 339.175C555.121 343.938 554.985 348.99 554.17 354.185V354.33C554.849 352.887 556.887 348.99 557.023 348.701C559.74 344.66 567.077 338.598 571.968 340.185C575.5 341.34 576.994 345.67 575.5 349.134C574.006 352.742 570.066 354.763 566.669 355.773C562.865 356.783 554.578 355.196 553.898 355.051C553.083 359.959 551.86 365.01 550.366 369.917C549.551 372.804 548.6 375.546 547.649 378.433C548.328 377.278 548.872 376.124 549.007 375.979C551.725 371.938 559.061 365.876 563.952 367.464C567.484 368.618 568.979 372.948 567.484 376.412C565.99 380.021 562.05 382.041 558.653 383.051C555.257 383.917 548.192 382.763 546.29 382.33C545.883 383.484 545.475 384.495 545.203 385.649C543.301 390.845 541.399 396.041 539.769 401.093C539.226 402.969 538.682 404.701 538.139 406.577C538.682 405.423 539.226 404.557 539.226 404.412C541.943 400.371 549.279 394.309 554.17 395.897C557.702 397.051 559.197 401.381 557.702 404.845C556.208 408.454 552.268 410.474 548.872 411.484C545.611 412.35 539.09 411.196 536.78 410.907C536.237 412.783 535.829 414.66 535.421 416.536C535.15 417.835 534.878 418.99 534.606 420.289C534.335 421.588 534.199 422.742 533.927 424.041C533.655 426.495 533.248 428.948 532.976 431.258C532.84 432.845 532.704 434.433 532.433 436.021C532.976 434.144 534.199 430.68 534.335 430.392C535.693 427.505 538.954 423.319 542.486 421.155C542.622 420.722 542.894 420.289 543.165 419.856C545.339 416.825 549.415 415.959 552.268 418.701C556.072 422.454 554.849 432.268 552.811 436.742C552.676 437.031 551.181 439.773 550.094 441.361C550.774 440.495 551.589 439.629 552.268 438.618C553.762 436.742 555.257 435.01 557.023 433.134C557.838 432.268 558.653 431.402 559.469 430.392C560.284 429.526 561.235 428.66 562.186 427.649C564.359 425.629 566.533 423.608 568.843 421.732C567.348 420.289 562.05 415.237 560.691 411.917C559.197 408.598 558.246 403.979 560.012 400.515C561.642 397.196 565.718 395.753 568.843 397.917C573.19 400.948 573.326 410.907 571.968 415.67C571.832 415.959 570.609 419.278 569.93 421.01C571.288 419.856 572.783 418.701 574.141 417.546C578.353 414.371 582.701 411.196 587.048 408.021C588.407 407.01 589.629 406.144 590.988 405.134C590.445 404.701 584.059 398.783 582.429 395.031C580.934 391.711 579.983 387.093 581.75 383.629C583.38 380.309 587.456 378.866 590.58 381.031C594.928 384.062 595.064 394.021 593.705 398.783C593.569 399.072 591.803 403.835 591.26 404.99C594.113 402.825 596.966 400.66 599.683 398.495C603.487 395.464 607.019 392.144 610.28 388.68C610.008 388.392 603.351 382.33 601.721 378.577C600.226 375.258 599.275 370.639 601.042 367.175C602.672 363.856 606.748 362.412 609.872 364.577C614.22 367.608 614.356 377.567 612.997 382.33C612.861 382.763 610.959 387.814 610.552 388.68C610.688 388.536 610.959 388.247 611.095 388.103C614.492 384.35 617.345 380.309 619.79 376.412C621.285 374.103 622.507 371.938 623.73 369.629C622.371 368.618 616.258 364 614.356 360.68C612.59 357.505 611.095 353.031 612.454 349.423C613.812 345.959 617.616 343.938 620.877 345.814C625.496 348.412 626.583 358.227 625.768 362.99C625.768 363.278 624.953 365.876 624.409 367.753C624.953 366.742 625.496 365.732 625.904 364.722C627.67 360.969 629.164 357.505 630.387 354.474C631.066 352.742 631.746 351.155 632.289 349.567C631.474 347.835 628.078 340.907 627.942 337.155C627.67 333.546 628.349 328.783 631.202 326.185C633.92 323.732 638.131 323.876 640.305 327.051C643.294 331.526 640.033 340.907 637.18 344.804C636.908 345.093 632.561 350 632.561 349.856V349.711C632.017 351.155 631.474 352.742 630.931 354.474C629.708 357.649 628.349 361.113 626.583 364.866C624.817 368.618 622.915 372.66 620.469 376.701C618.024 380.742 615.307 384.783 611.91 388.68L611.774 388.825C613.133 387.959 616.801 385.938 617.209 385.794C621.556 384.062 630.795 383.196 634.055 387.526C636.365 390.557 635.414 394.887 632.425 397.051C629.844 399.649 625.36 398.928 622.1 397.773Z" fill="#263238"/>
<path d="M554.849 330.948C554.713 330.948 556.208 324.454 556.344 324.021C557.974 319.402 563.544 311.464 568.707 311.608C572.375 311.752 574.821 315.505 574.413 319.258C573.87 323.155 570.609 326.33 567.484 328.062C563.952 330.227 554.849 330.948 554.849 330.948Z" fill="#263238"/>
<path d="M489.501 150.969H165.884V456.804H489.501V150.969Z" fill="white" stroke="#263238" stroke-miterlimit="10"/>
<path d="M202.974 204.515H448.336" stroke="#263238" stroke-miterlimit="10"/>
<path d="M202.974 231.361H448.336" stroke="#263238" stroke-miterlimit="10"/>
<path d="M202.974 258.062H448.336" stroke="#263238" stroke-miterlimit="10"/>
<path d="M202.974 284.907H448.336" stroke="#263238" stroke-miterlimit="10"/>
<path d="M202.974 311.608H448.336" stroke="#263238" stroke-miterlimit="10"/>
<path d="M202.974 338.453H448.336" stroke="#263238" stroke-miterlimit="10"/>
<path d="M546.562 503.278H108.823V245.361L327.693 403.258L546.562 245.361V503.278Z" fill="#119C59" stroke="#263238" stroke-miterlimit="10"/>
<path d="M374.972 65.8145C374.972 65.8145 373.342 74.0413 375.515 76.6392C377.689 79.2371 385.976 88.6186 385.976 90.0619C385.976 91.5052 383.259 133.505 383.259 133.505L370.624 123.835L362.88 148.948C362.88 148.948 382.172 157.753 391.139 159.485C400.242 161.217 401.872 158.619 401.872 150.969C401.872 143.32 394.671 85.299 394.671 85.299C394.671 85.299 396.845 71.8763 396.845 69.567C396.845 67.2578 397.66 66.1031 395.758 64.9485C393.856 63.7938 378.232 62.0619 378.232 62.0619C378.232 62.0619 374.972 63.3609 374.972 65.8145Z" fill="white" stroke="#263238" stroke-miterlimit="10" stroke-linecap="round" stroke-linejoin="round"/>
<path d="M370.896 127.299L366.82 149.815L362.88 148.949L370.896 127.299Z" fill="#263238" stroke="#263238" stroke-miterlimit="10" stroke-linecap="round" stroke-linejoin="round"/>
<path d="M401.736 72.3094L370.624 67.8352V59.6083C370.624 58.8867 371.168 58.165 371.983 58.165C372.662 58.165 373.341 58.7424 373.341 59.6083V65.3815L399.426 69.1341L399.834 62.4949C399.834 61.7733 400.513 61.196 401.193 61.196C401.872 61.196 402.415 61.9176 402.415 62.6393L401.736 72.3094Z" fill="#263238"/>
<path d="M377.825 69.5671L394.807 71.299L395.894 64.8042L378.368 61.9176L377.825 69.5671Z" fill="white" stroke="#263238" stroke-miterlimit="10" stroke-linecap="round" stroke-linejoin="round"/>
<path d="M374.7 70.433C374.7 70.433 374.7 63.0722 375.515 62.4949C376.331 61.9176 388.15 62.7835 388.15 64.5155C388.15 66.2475 388.15 67.1134 386.792 67.1134C385.433 67.1134 382.716 67.4021 382.716 67.4021C382.716 67.4021 389.101 73.464 387.063 79.0928" fill="white"/>
<path d="M374.7 70.433C374.7 70.433 374.7 63.0722 375.515 62.4949C376.331 61.9176 388.15 62.7835 388.15 64.5155C388.15 66.2475 388.15 67.1134 386.792 67.1134C385.433 67.1134 382.716 67.4021 382.716 67.4021C382.716 67.4021 389.101 73.464 387.063 79.0928" stroke="#263238" stroke-miterlimit="10" stroke-linecap="round" stroke-linejoin="round"/>
<path d="M383.259 133.505L382.172 146.351" stroke="#263238" stroke-miterlimit="10" stroke-linecap="round" stroke-linejoin="round"/>
<path d="M243.732 127.876C243.732 127.876 204.876 160.062 205.963 163.526C206.914 166.99 235.716 196.289 245.362 203.505C254.872 210.722 260.171 213.897 260.171 213.897L266.148 217.938C266.148 217.938 263.703 222.268 265.197 222.99C266.692 223.856 272.262 226.742 272.941 225.155C273.757 223.567 277.697 211.588 277.153 208.701C276.61 205.815 262.073 203.361 261.122 202.351C260.171 201.34 236.259 161.938 236.259 161.938L254.736 146.495L243.732 127.876Z" fill="white" stroke="#263238" stroke-miterlimit="10" stroke-linecap="round" stroke-linejoin="round"/>
<path d="M243.052 128.887L250.117 149.237L254.736 146.206L243.052 128.887Z" fill="#263238" stroke="#263238" stroke-miterlimit="10" stroke-linecap="round" stroke-linejoin="round"/>
<path d="M266.013 217.794C266.013 217.794 267.779 221.835 270.768 222.124" stroke="#263238" stroke-miterlimit="10" stroke-linecap="round" stroke-linejoin="round"/>
<path d="M236.259 161.65L231.233 152.268" stroke="#263238" stroke-miterlimit="10" stroke-linecap="round" stroke-linejoin="round"/>
<path d="M269.545 453.052L269.137 476.722L287.343 477.155L288.973 451.32L269.545 453.052Z" fill="white" stroke="#263238" stroke-miterlimit="10" stroke-linecap="round" stroke-linejoin="round"/>
<path d="M269.681 451.753V457.67L288.565 458.536L288.973 452.474L269.681 451.753Z" fill="#263238" stroke="#263238" stroke-miterlimit="10" stroke-linecap="round" stroke-linejoin="round"/>
<path d="M278.239 470.515C278.239 470.515 275.793 460.557 272.261 460.268C268.593 460.124 266.827 463.01 265.468 465.753C264.11 468.495 255.279 477.876 252.29 480.186C249.301 482.495 242.644 485.526 241.693 492.309C240.742 499.093 244.546 501.835 247.127 502.557C249.708 503.278 261.528 503.423 268.593 502.557C275.658 501.691 294.814 503.711 295.901 502.557C296.987 501.402 298.482 497.649 297.531 495.052C296.58 492.454 294.678 489.711 294.678 489.711C294.678 489.711 296.716 483.505 295.493 480.186C294.27 476.722 291.825 472.536 292.232 470.66C292.64 468.783 296.987 464.742 293.999 464.454C291.01 464.309 286.119 468.062 283.13 469.072C280.005 470.371 278.239 470.515 278.239 470.515Z" fill="#263238" stroke="#263238" stroke-miterlimit="10" stroke-linecap="round" stroke-linejoin="round"/>
<path d="M291.011 490.722C288.158 491.155 277.425 496.639 270.496 498.371C263.703 500.103 257.725 500.247 254.465 498.515C251.204 496.783 248.487 491.732 246.041 488.557C243.596 485.381 241.694 493.464 241.694 493.464L241.422 493.608C241.014 499.526 244.547 501.979 246.992 502.557C249.574 503.134 261.393 503.423 268.458 502.557C275.523 501.691 294.679 503.711 295.766 502.557C296.853 501.402 298.347 497.649 297.396 495.052C296.445 492.454 294.543 489.711 294.543 489.711C293.184 489.711 293.864 490.289 291.011 490.722Z" fill="white" stroke="#263238" stroke-miterlimit="10" stroke-linecap="round" stroke-linejoin="round"/>
<path d="M261.801 471.814C261.801 471.814 267.235 470.515 274.028 477.588L270.36 480.763C270.36 480.763 263.295 474.99 258.948 474.99L261.801 471.814Z" fill="white" stroke="#263238" stroke-miterlimit="10" stroke-linecap="round" stroke-linejoin="round"/>
<path d="M256.774 476.144C256.774 476.144 262.209 474.845 269.002 481.917L265.333 485.093C265.333 485.093 258.269 479.32 253.921 479.32L256.774 476.144Z" fill="white" stroke="#263238" stroke-miterlimit="10" stroke-linecap="round" stroke-linejoin="round"/>
<path d="M272.534 475.423L278.24 470.515" stroke="#263238" stroke-miterlimit="10" stroke-linecap="round" stroke-linejoin="round"/>
<path d="M265.333 485.093C265.333 485.093 266.692 488.268 264.382 490.144C261.937 492.021 246.177 488.845 246.313 486.536C246.449 484.227 253.921 479.32 253.921 479.32C253.921 479.32 259.899 480.619 265.333 485.093Z" fill="white" stroke="#263238" stroke-miterlimit="10" stroke-linecap="round" stroke-linejoin="round"/>
<path d="M384.618 453.052L385.025 476.722L366.82 477.155L365.19 451.32L384.618 453.052Z" fill="white" stroke="#263238" stroke-miterlimit="10" stroke-linecap="round" stroke-linejoin="round"/>
<path d="M365.598 455.794V459.258L384.89 458.969L384.754 453.917L365.054 453.629L365.598 455.794Z" fill="#263238" stroke="#263238" stroke-miterlimit="10" stroke-linecap="round" stroke-linejoin="round"/>
<path d="M376.059 470.515C376.059 470.515 378.504 460.557 382.037 460.268C385.705 460.124 387.471 463.01 388.829 465.753C390.188 468.495 399.019 477.876 402.008 480.186C404.997 482.495 411.654 485.526 412.605 492.309C413.556 499.093 409.752 501.835 407.171 502.557C404.589 503.134 392.769 503.423 385.705 502.557C378.64 501.691 359.484 503.711 358.397 502.557C357.31 501.402 355.816 497.649 356.767 495.051C357.718 492.454 359.62 489.711 359.62 489.711C359.62 489.711 357.582 483.505 358.805 480.186C360.027 476.722 362.473 472.536 362.065 470.66C361.658 468.783 357.31 464.742 360.299 464.454C363.288 464.309 368.179 468.062 371.168 469.072C374.157 470.371 376.059 470.515 376.059 470.515Z" fill="#263238" stroke="#263238" stroke-miterlimit="10" stroke-linecap="round" stroke-linejoin="round"/>
<path d="M363.152 490.722C366.005 491.155 376.738 496.639 383.667 498.371C390.46 500.103 396.438 500.247 399.698 498.515C402.959 496.783 405.676 491.732 408.121 488.557C410.567 485.381 412.469 493.464 412.469 493.464L412.741 493.608C413.148 499.526 409.616 501.979 407.17 502.557C404.589 503.134 392.769 503.423 385.705 502.557C378.64 501.691 359.484 503.711 358.397 502.557C357.31 501.402 355.816 497.649 356.767 495.052C357.718 492.454 359.62 489.711 359.62 489.711C360.978 489.711 360.435 490.289 363.152 490.722Z" fill="white" stroke="#263238" stroke-miterlimit="10" stroke-linecap="round" stroke-linejoin="round"/>
<path d="M392.498 471.814C392.498 471.814 387.063 470.515 380.27 477.588L383.938 480.763C383.938 480.763 391.003 474.99 395.351 474.99L392.498 471.814Z" fill="white" stroke="#263238" stroke-miterlimit="10" stroke-linecap="round" stroke-linejoin="round"/>
<path d="M397.524 476.144C397.524 476.144 392.09 474.845 385.297 481.917L388.965 485.093C388.965 485.093 396.03 479.32 400.378 479.32L397.524 476.144Z" fill="white" stroke="#263238" stroke-miterlimit="10" stroke-linecap="round" stroke-linejoin="round"/>
<path d="M381.629 475.423L376.059 470.515" stroke="#263238" stroke-miterlimit="10" stroke-linecap="round" stroke-linejoin="round"/>
<path d="M388.829 485.093C388.829 485.093 387.471 488.268 389.78 490.144C392.226 492.021 407.986 488.845 407.85 486.536C407.714 484.227 400.242 479.32 400.242 479.32C400.242 479.32 394.264 480.619 388.829 485.093Z" fill="white" stroke="#263238" stroke-miterlimit="10" stroke-linecap="round" stroke-linejoin="round"/>
<path d="M277.968 203.361C277.968 203.361 267.371 249.402 263.431 288.371C259.491 327.34 253.242 455.072 253.242 455.072H301.88C301.88 455.072 316.417 325.464 318.726 302.371C320.9 279.423 320.9 264.845 320.9 264.845L348.343 455.072H406.22C406.22 455.072 384.075 334.412 375.244 278.99C366.413 223.567 354.05 201.918 354.05 201.918L277.968 203.361Z" fill="#A0A4A8" stroke="#263238" stroke-miterlimit="10" stroke-linecap="round" stroke-linejoin="round"/>
<path d="M319.541 206.681C319.134 207.98 307.586 226.454 311.118 227.753C314.65 229.196 321.308 229.196 321.308 225.443C321.308 221.691 321.308 210.433 321.308 210.433C321.308 210.433 322.259 231.505 326.198 230.639C330.138 229.629 335.437 230.639 334.214 225.876C332.856 221.114 322.666 206.103 322.666 206.103C322.666 206.103 320.764 202.495 319.541 206.681Z" fill="#A0A4A8" stroke="#263238" stroke-miterlimit="10" stroke-linecap="round" stroke-linejoin="round"/>
<path d="M321.308 208.268C321.308 208.268 331.361 223.423 330.41 224.722C329.459 226.165 328.101 227.464 327.15 225.443C326.199 223.279 321.308 208.268 321.308 208.268Z" stroke="#263238" stroke-miterlimit="10"/>
<path d="M321.036 206.536C321.036 206.536 313.564 223.423 314.515 224C315.466 224.722 317.775 224.722 318.454 222.268C318.998 219.959 321.036 206.536 321.036 206.536Z" stroke="#263238" stroke-miterlimit="10"/>
<path d="M351.197 254.454C351.604 256.907 352.012 259.072 352.148 261.093" stroke="#263238" stroke-miterlimit="10" stroke-linecap="round" stroke-linejoin="round"/>
<path d="M340.735 208.124C340.735 208.124 346.306 229.052 349.838 246.804" stroke="#263238" stroke-miterlimit="10" stroke-linecap="round" stroke-linejoin="round"/>
<path d="M336.795 208.124C336.795 208.124 340.328 234.392 342.094 241.464" stroke="#263238" stroke-miterlimit="10" stroke-linecap="round" stroke-linejoin="round"/>
<path d="M288.565 244.495C288.43 246.371 288.158 247.959 288.022 249.402" stroke="#263238" stroke-miterlimit="10" stroke-linecap="round" stroke-linejoin="round"/>
<path d="M292.098 208.124C292.098 208.124 290.603 224.144 289.381 237.423" stroke="#263238" stroke-miterlimit="10" stroke-linecap="round" stroke-linejoin="round"/>
<path d="M288.565 208.99L286.799 231.505" stroke="#263238" stroke-miterlimit="10" stroke-linecap="round" stroke-linejoin="round"/>
<path d="M319.541 16.4536C319.541 16.4536 335.98 18.1856 332.176 27.2784C328.372 36.3711 324.432 38.1031 323.617 38.1031C322.802 38.1031 316.145 27.2784 316.145 27.2784L319.541 16.4536Z" fill="#263238" stroke="#263238" stroke-miterlimit="10" stroke-linecap="round" stroke-linejoin="round"/>
<path d="M317.639 24.8247C317.639 24.8247 324.024 28.5773 325.926 35.6495C327.828 42.7216 332.855 44.7422 334.214 44.4536C335.572 44.1649 337.474 48.4948 335.844 51.5258C334.214 54.4123 334.214 54.4123 334.214 54.4123C334.214 54.4123 335.572 74.3299 333.942 76.9278C332.312 79.5257 322.122 78.0824 322.122 78.0824C322.122 78.0824 319.949 87.4639 321.851 93.2371C323.753 99.0103 329.595 102.041 331.768 102.041C333.942 102.041 338.697 99.1546 344.947 102.619C351.332 106.082 372.39 123.113 372.39 123.113L361.114 155.732L349.023 148.948L357.582 204.66L275.115 206.68C275.115 206.68 275.93 166.99 273.756 159.629C271.583 152.268 268.05 145.629 268.05 145.629L257.589 154.433L243.052 127.588C243.052 127.588 264.518 104.783 272.941 102.763C281.5 100.742 291.69 103.34 294.951 99.0103C298.211 94.6804 295.494 73.8969 295.494 73.8969C295.494 73.8969 287.478 71.0103 282.859 56.1443C278.24 41.2783 294.135 25.835 294.135 25.835C294.135 25.835 301.064 17.8969 317.639 24.8247Z" fill="white" stroke="#263238" stroke-miterlimit="10" stroke-linecap="round" stroke-linejoin="round"/>
<path d="M321.986 77.9381L314.514 76.6392L320.492 84L321.986 77.9381Z" fill="#263238" stroke="#263238" stroke-miterlimit="10" stroke-linecap="round" stroke-linejoin="round"/>
<path d="M318.454 40.701C318.454 40.701 318.454 35.2164 323.073 35.2164" stroke="#263238" stroke-width="2" stroke-miterlimit="10" stroke-linecap="round" stroke-linejoin="round"/>
<path d="M330.817 60.7628L321.171 55.8556C321.171 55.8556 320.356 66.3917 323.889 66.103C327.557 65.8144 330.817 60.7628 330.817 60.7628Z" fill="#263238" stroke="#263238" stroke-miterlimit="10" stroke-linecap="round" stroke-linejoin="round"/>
<path d="M321.443 46.0412C321.443 46.0412 324.568 42.4329 327.149 45.4638" stroke="#263238" stroke-miterlimit="10" stroke-linecap="round" stroke-linejoin="round"/>
<path d="M321.171 59.1752L329.866 62.2061C330.546 61.4845 330.953 60.9072 330.953 60.9072L321.307 55.9999C321.171 55.8556 321.035 57.2989 321.171 59.1752Z" fill="white" stroke="#263238" stroke-miterlimit="10" stroke-linecap="round" stroke-linejoin="round"/>
<path d="M267.371 37.3815C267.371 37.3815 261.393 24.2475 252.834 25.6908C244.275 27.1341 237.754 37.0928 240.471 51.0928C240.471 51.0928 241.83 54.8454 242.917 58.165C242.917 58.165 232.184 54.7011 226.478 62.2062C220.771 69.8557 225.119 77.6495 231.64 81.4021C238.297 85.1547 242.101 84.866 242.101 84.866C242.101 84.866 227.564 89.4846 232.727 95.4021C237.89 101.175 253.921 97.4227 250.525 92.5155C247.264 87.6083 244.819 88.1856 244.819 88.1856C244.819 88.1856 257.997 82.9897 256.638 79.0928C255.28 75.3402 248.623 72.3093 248.623 72.3093C248.623 72.3093 261.258 76.9279 268.186 72.598C275.115 68.2681 269.002 49.5052 269.002 49.5052L267.371 37.3815Z" fill="#263238" stroke="#263238" stroke-miterlimit="10" stroke-linecap="round" stroke-linejoin="round"/>
<path d="M322.53 9.95875C322.53 9.95875 324.704 18.1856 320.9 25.1134C317.096 32.1856 308.808 44.0206 307.721 57.4433C306.634 70.866 310.167 87.4639 312.341 93.0928C314.514 98.5773 309.623 99.8763 305.955 99.4433C302.423 99.1546 301.064 96.8453 301.064 91.5051C301.064 86.3093 299.977 76.9278 299.977 76.9278C299.977 76.9278 285.984 75.4845 279.327 71.4433C272.67 67.402 263.159 53.402 267.235 37.2371C271.311 21.2165 282.316 16.4536 288.973 13.567C295.63 10.6804 304.597 10.9691 310.982 9.52576C317.367 8.22679 322.258 6.49483 322.53 9.95875Z" fill="#263238" stroke="#263238" stroke-miterlimit="10" stroke-linecap="round" stroke-linejoin="round"/>
<path d="M302.559 50.8042L300.113 61.3402C300.113 61.3402 294.95 58.7423 294.135 53.9794C293.32 49.3609 299.57 46.9073 304.053 51.0928" fill="white"/>
<path d="M302.559 50.8042L300.113 61.3402C300.113 61.3402 294.95 58.7423 294.135 53.9794C293.32 49.3609 299.57 46.9073 304.053 51.0928" stroke="#263238" stroke-miterlimit="10" stroke-linecap="round" stroke-linejoin="round"/>
<path d="M382.716 67.5464L379.184 67.8351" stroke="#263238" stroke-miterlimit="10" stroke-linecap="round" stroke-linejoin="round"/>
<path d="M357.038 59.031L448.607 72.7423L436.108 0.72168L354.185 42.5773L357.038 59.031Z" fill="#119C59" stroke="#263238" stroke-miterlimit="10" stroke-linecap="round" stroke-linejoin="round"/>
<path d="M354.169 42.7143L340.537 45.3612L343.347 61.6886L356.978 59.0416L354.169 42.7143Z" fill="#119C59" stroke="#263238" stroke-miterlimit="10" stroke-linecap="round" stroke-linejoin="round"/>
<path d="M372.255 122.969C372.255 122.969 351.061 106.082 344.811 102.474C338.561 99.0103 333.942 101.753 331.769 101.897C328.236 107.237 320.22 116.186 305.276 115.897C287.207 115.608 282.18 104.928 281.093 101.897C278.376 102.041 275.523 102.186 272.806 102.763C264.246 104.784 242.917 127.588 242.917 127.588L257.453 154.433L267.915 145.629C267.915 145.629 271.447 152.412 273.621 159.629C275.794 166.99 274.979 206.68 274.979 206.68L357.446 204.66L348.887 148.948L360.978 155.732L372.255 122.969Z" fill="#263238" stroke="#263238" stroke-miterlimit="10" stroke-linecap="round" stroke-linejoin="round"/>
<path d="M314.243 179.258C328.274 179.258 339.648 167.174 339.648 152.268C339.648 137.362 328.274 125.278 314.243 125.278C300.211 125.278 288.837 137.362 288.837 152.268C288.837 167.174 300.211 179.258 314.243 179.258Z" stroke="white" stroke-miterlimit="10"/>
<path d="M329.73 140.144H299.706L314.514 155.299L329.73 140.144Z" fill="#119C59"/>
<path d="M320.492 151.979L330.953 161.794V141.588L320.492 151.979Z" fill="#119C59"/>
<path d="M308.537 151.979L297.939 141.01V161.361L308.537 151.979Z" fill="#119C59"/>
<path d="M319.133 153.278L314.514 157.897L309.895 153.278L298.89 163.093H329.595L319.133 153.278Z" fill="#119C59"/>
</svg>
