<svg width="742" height="695" viewBox="0 0 742 695" fill="none" xmlns="http://www.w3.org/2000/svg">
<g clip-path="url(#clip0)">
<path opacity="1" d="M407.476 633.857C420.117 632.542 432.757 631.154 445.398 629.766C487.128 625.164 528.858 622.242 570.74 619.466C600.438 617.494 630.289 616.398 659.987 619.32C685.497 621.877 716.338 626.917 735.984 645.91C747.026 656.576 742.305 670.017 726.085 679.075C708.951 688.645 687.096 688.937 668.135 690.252C489.641 702.816 312.137 686.307 133.566 687.038C108.285 687.111 82.6224 688.718 57.417 689.813C42.1109 690.471 22.1598 693.247 7.08218 689.229C-2.43649 686.672 -1.75115 677.906 5.48305 673.304C18.733 664.976 38.608 664.027 53.6856 663.077C93.0549 660.593 132.424 657.89 171.717 654.895C250.38 648.905 328.966 641.892 407.476 633.857Z" fill="#E6E5E4"/>
<path d="M534.721 247.202L536.701 232.3L543.326 232.884L544.316 243.476L547.59 242.308L544.24 254.872L537.31 255.091L534.721 247.202Z" fill="#EBCEB1"/>
<path d="M575.309 340.195C585.361 341.072 596.783 340.633 603.408 333.328C608.815 327.411 609.271 318.645 607.52 310.975C607.292 310.098 607.063 309.149 606.225 308.637C605.54 308.199 604.55 308.199 603.712 308.272C594.803 308.929 585.894 309.587 576.984 310.244C571.958 310.61 561.983 313.312 559.241 309.514C556.195 305.277 556.119 294.831 555.129 289.863C552.388 276.86 549.646 263.93 546.905 250.928L533.122 252.096C533.274 264.077 533.427 275.984 533.503 287.964C533.579 296.511 533.731 305.058 533.807 313.605C534.036 336.396 555.891 338.515 575.309 340.195Z" fill="#CACCCF"/>
<path d="M633.563 314.481C641.711 320.471 645.214 331.137 647.27 341.072C655.57 381.834 651.382 423.838 646.965 465.184C646.509 469.786 645.29 471.831 640.645 469.786C611.48 457.295 582.848 441.223 550.941 439.251C558.937 413.318 559.774 385.924 565.181 359.334C566.78 351.664 568.76 343.921 572.187 336.835C576.679 327.557 583.837 317.476 591.757 310.61C599.22 304.108 611.099 306.957 620.009 309.149C623.74 310.025 627.471 310.975 630.822 312.728C631.812 313.239 632.725 313.824 633.563 314.481Z" fill="#CACCCF"/>
<path d="M245.353 333.109L253.425 335.301L259.898 331.794L261.421 332.671L260.279 334.497L266.523 332.963L271.244 335.154L272.386 341.583L268.96 347.573L262.03 348.011L254.644 344.578L243.374 342.021L245.353 333.109Z" fill="#EBCEB1"/>
<path d="M249.009 329.018L167.681 309.879C164.863 309.222 161.513 306.227 159.076 304.839C153.289 301.405 147.501 298.045 141.714 294.612C137.754 292.274 130.825 286.357 126.027 286.357C118.184 286.357 114.072 297.534 113.996 303.524C113.843 321.932 131.738 329.822 145.141 339.684L158.01 346.112L248.247 347.865L249.009 329.018Z" fill="#CACCCF"/>
<path d="M150.624 234.272C140.267 237.559 129.226 230.327 119.174 235.149C112.701 238.29 108.285 246.106 107.218 254.069C106.685 257.794 106.914 261.593 108.285 264.88C109.198 266.999 110.569 268.752 112.092 270.213C114.148 272.185 116.585 273.719 119.174 274.669C118.184 277.299 116.966 279.928 115.595 282.339C120.697 283.289 125.799 284.165 130.901 285.115C131.586 281.755 132.195 278.467 132.881 275.107C134.328 274.669 135.775 274.084 137.069 273.354C145.293 268.898 151.309 258.817 151.918 248.59C152.223 243.622 151.461 238.947 150.624 234.272Z" fill="#EBCEB1"/>
<path d="M98.1567 255.53C97.6998 254.799 97.319 254.069 96.9383 253.338C92.3693 244.28 89.8564 233.542 96.7098 224.776C103.639 215.863 117.803 211.919 128.616 214.622C134.556 216.083 140.876 218.055 146.74 216.229C148.491 215.644 150.167 214.768 151.157 213.234C152.07 211.846 152.299 210.092 153.289 208.778C155.497 205.563 161.589 206.367 162.884 209.946C163.264 211.042 163.264 212.211 163.874 213.161C165.168 215.352 168.29 215.425 170.879 215.717C171.717 215.79 172.631 216.01 173.088 216.667C174.078 217.763 173.164 219.589 171.793 220.319C169.966 221.342 166.767 221.05 165.625 223.022C164.787 224.41 166.082 227.186 165.854 228.793C165.092 234.491 159.99 239.678 154.507 241.65C149.329 243.549 144.608 241.504 139.43 240.189C137.983 239.824 136.384 238.947 134.937 238.728C133.109 238.509 131.358 239.313 129.606 239.678C127.474 240.116 125.19 239.897 122.981 239.678C120.773 239.532 118.489 239.459 116.433 240.262C114.376 241.066 112.625 242.965 112.777 245.084C112.93 247.64 115.671 249.686 115.595 252.242C115.519 254.507 113.463 256.187 112.625 258.233C111.94 259.84 111.94 261.739 110.645 263.054C110.112 263.638 109.351 263.93 108.818 264.588C108.132 265.391 107.98 266.487 107.066 267.072C106.076 267.656 104.706 267.218 103.944 266.341C103.183 265.465 102.878 264.369 102.497 263.346C101.507 260.424 99.6797 258.013 98.1567 255.53Z" fill="#333333"/>
<path d="M117.727 281.17C115.442 280.951 112.93 280.732 110.95 281.828C109.122 282.777 108.056 284.604 107.066 286.284C81.1752 331.575 69.9812 384.098 75.2356 435.16C106.076 429.828 137.45 427.49 168.823 428.147C165.93 408.278 163.112 388.408 160.218 368.538C158.086 353.855 156.03 339.245 152.527 324.781C149.481 312.144 145.293 299.725 140.191 287.672C136.917 280.148 125.037 281.901 117.727 281.17Z" fill="#CACCCF"/>
<path d="M184.739 660.447L190.754 665.853C194.638 669.359 193.724 675.642 188.851 677.687C185.957 678.856 181.921 678.71 176.362 675.057L163.569 661.105L165.625 656.575L184.129 653.873L184.739 660.447Z" fill="#1A1A1A"/>
<path d="M172.174 423.399L201.948 540.206L193.191 654.53L163.797 656.941L157.02 553.867C157.02 553.867 92.5216 440.931 96.1768 438.448C99.9081 436.037 172.174 423.399 172.174 423.399Z" fill="#119C59"/>
<path d="M93.5877 660.447L99.6036 665.853C103.487 669.286 102.65 675.642 97.776 677.687C94.8823 678.929 90.8464 678.71 85.2875 675.057L72.4182 661.105V654.53L77.2918 650.439L91.4556 652.923L93.5877 660.447Z" fill="#1A1A1A"/>
<path d="M151.842 430.777L142.628 550.726L99.2227 656.283L68.6868 650.439L95.4152 550.36C95.4152 550.36 70.3621 423.837 74.7026 422.596C78.9669 421.427 151.842 430.777 151.842 430.777Z" fill="#119C59"/>
<path d="M72.4182 426.175L83.9168 399.366L124.2 386.582L116.509 337.638L156.639 331.429L163.645 400.242L173.469 428.367L76.4541 445.387L72.4182 426.175Z" fill="#119C59"/>
<path d="M118.717 316.308C118.793 308.783 118.412 300.163 112.32 295.269C110.95 294.173 109.274 293.297 107.523 293.297C103.868 293.297 101.431 296.73 99.6035 299.725C98.9943 295.269 98.6897 290.302 101.431 286.576C104.934 281.901 112.473 281.317 117.651 284.312C122.753 287.307 125.647 293.005 126.789 298.629C127.855 304.327 127.474 310.098 127.398 315.869C127.398 324.27 128.312 332.671 129.226 340.999C125.723 340.779 122.296 341.437 118.869 341.583C116.813 334.278 118.641 324.124 118.717 316.308Z" fill="#119C59"/>
<path d="M145.826 308.491C144.989 301.186 143.085 293.151 136.841 289.06C135.242 288.037 133.262 286.941 133.338 285.115C133.414 284.019 134.252 283.143 135.165 282.631C138.364 280.878 142.704 282.412 145.065 285.115C147.425 287.891 148.263 291.47 148.948 294.977C151.766 308.856 153.441 322.955 153.974 337.054C154.05 339.172 148.644 338.003 147.73 337.054C146.283 335.52 147.045 331.794 147.045 329.895C147.045 322.736 146.664 315.577 145.826 308.491Z" fill="#119C59"/>
<path d="M614.755 634.807L613.536 642.623L616.354 657.452L625.415 656.649L627.167 634.587L625.796 631.081L614.755 634.807Z" fill="#514943"/>
<path d="M571.959 656.283L557.719 666.291L559.546 673.815L585.589 667.825L583.533 657.014L571.959 656.283Z" fill="#514943"/>
<path d="M543.936 459.267L544.392 562.049L568.227 658.548H587.721L586.503 546.635L598.23 462.043L589.625 445.241L546.448 449.989L543.936 459.267Z" fill="#119C59"/>
<path d="M593.204 534.874L613.536 633.053L631.279 631.081L636.152 554.451L645.214 470.59L636.076 446.045H586.579L593.204 534.874Z" fill="#119C59"/>
<path d="M640.341 279.49C638.513 262.689 616.277 252.462 606.759 269.555C603.941 274.669 601.657 280.294 601.504 286.138C601.352 291.982 603.713 298.045 608.51 301.478C608.51 301.478 608.586 301.478 608.586 301.551C608.053 302.939 607.52 304.4 606.987 305.788C606.835 306.081 606.759 306.446 606.911 306.738C607.063 307.103 607.444 307.249 607.825 307.395C609.576 308.053 611.252 308.637 613.003 309.295C613.841 309.587 614.754 309.952 615.668 309.806C617.648 309.587 618.943 307.615 619.4 305.715C619.552 305.277 619.628 304.839 619.704 304.327C630.974 302.866 641.559 290.448 640.341 279.49Z" fill="#EACDB0"/>
<path d="M530.838 91.4589C525.736 105.777 533.731 121.263 548.58 126.158C563.506 131.052 579.649 123.382 584.751 109.137C589.853 94.8192 581.858 79.3326 567.009 74.4382C552.159 69.5438 535.94 77.1411 530.838 91.4589ZM548.352 97.1568C550.18 92.1164 555.891 89.4135 561.145 91.1667C566.399 92.9199 569.217 98.3987 567.389 103.439C565.562 108.48 559.851 111.182 554.596 109.429C549.342 107.676 546.524 102.197 548.352 97.1568Z" fill="#119C59"/>
<path d="M469.309 86.0532C468.319 91.7511 467.938 97.449 468.09 103.074L453.317 107.968L458.115 131.344L473.725 130.468C475.781 135.8 478.447 140.914 481.569 145.735L471.365 157.058L487.737 174.955L500.758 166.701C505.251 170.28 510.201 173.494 515.531 176.197L512.562 190.88L536.092 198.551L543.098 185.182C549.037 186.132 554.977 186.497 560.84 186.351L565.942 200.523L590.31 195.921L589.396 180.945C594.955 178.973 600.286 176.416 605.312 173.421L617.115 183.283L635.771 167.577L627.167 155.086C630.898 150.776 634.248 146.027 637.066 140.914L652.372 143.763L660.368 121.19L646.432 114.47C647.422 108.772 647.803 103.074 647.651 97.449L662.424 92.5547L657.626 69.1786L641.94 70.0552C639.883 64.7225 637.218 59.609 634.096 54.7877L644.376 43.4649L628.004 25.5676L614.983 33.8223C610.49 30.2428 605.54 27.0286 600.21 24.3257L603.179 9.64263L579.649 1.89931L572.644 15.2675C566.704 14.3178 560.764 13.9526 554.901 14.0987L549.799 0L525.431 4.60217L526.345 19.5775C520.786 21.5498 515.455 24.1066 510.429 27.1016L498.626 17.2399L479.97 32.9457L488.575 45.4373C484.843 49.7472 481.493 54.4955 478.675 59.609L463.369 56.76L455.373 79.3326L469.309 86.0532ZM625.263 116.223L578.888 101.028C579.192 94.2348 575.842 87.7333 570.054 83.7886L585.894 39.301C616.658 52.304 633.335 84.8113 625.263 116.223ZM557.033 120.387C564.115 120.679 570.892 117.465 575.004 111.913L621.379 127.107C607.825 156.693 573.938 172.691 541.194 164.947L557.033 120.387ZM554.596 109.356C549.342 107.603 546.524 102.124 548.352 97.0838C550.179 92.0433 555.891 89.3404 561.145 91.0937C566.399 92.8469 569.217 98.3256 567.389 103.366C565.562 108.407 559.85 111.109 554.596 109.356ZM490.402 84.3L536.777 99.4944C536.473 106.288 539.823 112.79 545.61 116.734L529.771 161.222C499.007 148.219 482.33 115.639 490.402 84.3ZM494.286 73.4155C507.84 43.8301 541.727 27.8321 574.471 35.5755L558.632 80.0631C551.55 79.7709 544.773 82.9851 540.661 88.5369L494.286 73.4155Z" fill="#14B86E"/>
<path d="M481.112 75.1687C495.504 34.5528 541.651 12.7838 583.99 26.6633C626.329 40.4698 649.021 84.7383 634.553 125.354C620.161 165.97 574.014 187.739 531.675 173.86C489.412 160.053 466.72 115.785 481.112 75.1687ZM484.31 76.2644C470.527 115.127 492.23 157.569 532.741 170.791C573.253 184.014 617.496 163.194 631.279 124.331C645.062 85.4688 623.359 43.0266 582.848 29.8045C542.336 16.5093 498.169 37.3287 484.31 76.2644Z" fill="#14B86E"/>
<path d="M489.031 91.3859C484.919 120.46 501.367 149.169 529.847 161.149L535.406 145.443C538.68 148.146 541.955 150.776 545.305 153.259L541.193 164.874C549.113 166.774 557.109 167.212 564.8 166.482C573.938 172.033 582.695 176.635 590.538 180.361C590.081 180.507 589.701 180.726 589.244 180.872L590.157 195.848L565.79 200.45L560.688 186.278C554.824 186.497 548.884 186.059 542.945 185.109L535.939 198.478L512.485 190.953L515.455 176.27C510.124 173.567 505.175 170.353 500.682 166.774L487.66 175.028L471.364 157.058L481.644 145.735C478.522 140.914 475.857 135.8 473.801 130.468L458.19 131.344L453.393 107.968L468.166 103.074C467.938 97.449 468.395 91.7511 469.384 86.0532L455.449 79.3326L463.445 56.76L473.877 58.7324C477.989 70.5665 483.167 81.451 489.031 91.3859Z" fill="#119C59"/>
<path d="M483.016 80.3553C472.126 118.049 493.677 157.935 532.817 170.718C547.134 175.394 561.83 175.832 575.613 172.691C577.06 173.494 578.507 174.225 579.878 175.028C564.572 179.192 547.895 179.119 531.751 173.86C489.717 160.126 467.024 116.296 480.884 75.8992C481.569 77.4333 482.254 78.8943 483.016 80.3553Z" fill="#14B86E"/>
<path d="M597.088 22.4995C597.164 22.7917 600.057 10.7384 600.057 10.7384L581.248 4.67523C581.172 4.74828 593.585 11.0306 597.088 22.4995Z" fill="#119C59"/>
<path d="M321.351 295.415L310.69 300.529C311.223 304.4 311.908 308.272 312.822 312.071C313.736 315.942 314.802 319.668 316.02 323.393L327.899 323.686C341.454 324.051 349.297 338.515 341.911 349.326L335.362 358.896C340.236 365.105 345.795 370.876 351.963 376.136L362.471 370.657C374.351 364.448 388.743 373.214 387.981 386.217L387.296 397.612C394.835 400.68 402.678 403.091 410.598 404.698L416.842 394.91C423.924 383.806 440.905 384.536 446.997 396.151L452.328 406.378C456.364 405.867 460.399 405.21 464.359 404.333C468.395 403.456 472.279 402.434 476.162 401.265L476.467 389.869C476.848 376.866 491.925 369.342 503.195 376.428L513.171 382.71C519.644 378.035 525.66 372.702 531.142 366.785L525.431 356.704C518.958 345.308 528.096 331.502 541.651 332.232L553.53 332.89C556.729 325.658 559.241 318.134 560.917 310.537L550.713 304.546C539.138 297.753 539.9 281.463 552.007 275.618L562.668 270.505C562.135 266.633 561.45 262.762 560.536 258.963C559.622 255.091 558.556 251.366 557.338 247.64L545.458 247.348C531.904 246.983 524.06 232.519 531.447 221.707L537.996 212.138C533.122 205.929 527.563 200.158 521.395 194.898L510.887 200.377C499.007 206.586 484.615 197.82 485.377 184.817L486.062 173.421C478.523 170.353 470.68 167.942 462.76 166.335L456.516 176.124C449.434 187.228 432.453 186.497 426.361 174.882L421.03 164.655C416.994 165.167 412.958 165.824 408.999 166.701C404.963 167.577 401.079 168.6 397.195 169.769L396.891 181.165C396.51 194.168 381.433 201.692 370.162 194.606L360.187 188.323C353.714 192.999 347.698 198.331 342.216 204.248L347.927 214.329C354.399 225.725 345.262 239.532 331.707 238.801L319.828 238.144C316.629 245.376 314.116 252.9 312.441 260.497L322.645 266.487C334.144 273.281 333.458 289.571 321.351 295.415ZM426.513 272.843C426.132 273.135 425.675 273.427 425.295 273.792C424.762 274.304 424.229 274.815 423.772 275.326L373.437 268.021C378.463 251.366 390.647 237.048 407.247 229.086C411.435 227.113 416.461 229.378 417.451 233.761L426.513 272.843ZM479.437 249.247L444.637 271.528C443.19 270.797 441.667 270.213 440.144 269.921L431.006 230.912C430.016 226.529 433.519 222.438 438.164 222.511C453.927 222.876 468.7 228.647 480.198 238.363C483.701 241.358 483.32 246.764 479.437 249.247ZM437.402 275.984C442.961 276.349 447.073 281.024 446.693 286.284C446.312 291.617 441.438 295.561 435.956 295.196C430.397 294.831 426.285 290.156 426.665 284.896C427.046 279.563 431.843 275.618 437.402 275.984ZM453.241 287.307C453.394 285.626 453.318 283.946 452.937 282.266L487.433 260.132C491.24 257.648 496.494 259.255 498.093 263.346C499.16 266.049 500.073 268.898 500.683 271.82C503.805 285.188 502.206 298.556 497.027 310.244C495.124 314.481 489.565 315.869 485.833 312.947L453.241 287.307ZM416.537 337.2L434.966 301.551C438.773 301.917 442.733 301.04 446.007 298.922L477.99 324.051C481.493 326.827 481.493 332.013 477.99 334.716C470.375 340.633 461.237 345.016 451.033 347.208C440.905 349.399 430.777 349.18 421.335 346.989C416.766 345.893 414.481 341.145 416.537 337.2ZM379.224 282.412L420.116 288.329C420.497 290.594 421.411 292.785 422.858 294.685L404.277 330.771C402.221 334.789 396.662 335.885 393.16 332.963C383.108 324.489 375.569 312.947 372.447 299.36C371.685 296.146 371.229 292.858 371 289.644C370.695 285.261 374.731 281.755 379.224 282.412Z" fill="#119C59"/>
<g opacity="0.11">
<g opacity="0.11">
<path opacity="0.11" d="M352.877 279.563C356.38 235.295 396.739 201.984 442.885 205.271C489.032 208.632 523.756 247.348 520.329 291.617C516.826 335.885 476.467 369.196 430.321 365.909C384.174 362.621 349.45 323.832 352.877 279.563ZM369.401 280.732C366.584 316.308 394.53 347.354 431.539 350.057C468.624 352.76 500.987 325.95 503.805 290.448C506.622 254.872 478.675 223.826 441.667 221.123C404.582 218.493 372.219 245.23 369.401 280.732Z" fill="black"/>
</g>
</g>
<path d="M445.246 106.142C445.703 103.074 445.931 100.006 446.007 97.0107L430.092 91.7511L427.198 75.9723L440.144 65.7452C437.783 59.9012 434.661 54.4224 431.006 49.382L414.938 54.1302L402.907 43.0266L407.171 27.3939C401.917 24.1796 396.282 21.5498 390.266 19.5044L380.062 32.3613L363.537 30.0967L357.522 14.9753C350.973 15.3406 344.576 16.4363 338.408 18.1895L338.104 34.3336L323.331 41.7847L309.243 33.0187C304.293 36.9634 299.724 41.4195 295.764 46.3869L305.359 59.609L298.049 73.9999L281.22 74.8765C280.382 77.9446 279.697 81.1588 279.24 84.373C278.859 87.3681 278.631 90.2901 278.479 93.2121L294.394 98.4717L297.287 114.251L284.19 124.405C286.55 130.249 289.596 135.8 293.328 140.841L309.471 136.166L321.503 147.269L317.162 162.902C322.569 166.189 328.356 168.965 334.601 171.084L344.729 158.154L361.253 160.345L367.345 175.394C373.894 175.028 380.29 173.933 386.458 172.106L386.763 155.962L401.46 148.438L415.624 157.204C420.649 153.259 425.142 148.803 429.102 143.836L419.431 130.614L426.741 116.223L443.57 115.346C444.18 112.351 444.789 109.283 445.246 106.142ZM381.966 125.866C364.375 136.312 341.226 131.125 330.26 114.178C319.371 97.2299 324.853 75.0226 342.52 64.6495C360.111 54.1302 383.26 59.3899 394.149 76.2645C405.115 93.2121 399.632 115.419 381.966 125.866Z" fill="#119C59"/>
<path d="M408.999 67.5715C393.083 42.8075 359.121 35.0641 333.306 50.4047C307.491 65.7452 299.496 98.1795 315.487 123.017C331.402 147.781 365.365 155.451 391.103 140.183C416.918 124.843 424.914 92.2625 408.999 67.5715ZM388.286 135.727C364.984 149.534 334.448 142.594 320.056 120.241C305.664 97.8873 312.822 68.5942 336.124 54.7146C359.425 40.9082 390.037 47.8479 404.43 70.2013C418.822 92.5547 411.588 121.921 388.286 135.727Z" fill="white"/>
<path d="M320.894 146.904L321.351 147.342L317.315 162.902L317.01 162.975C322.417 166.262 328.204 169.038 334.448 171.157L334.372 170.865L344.653 158.227L361.177 160.418L367.421 175.248L367.193 175.467C373.742 175.101 380.138 174.006 386.306 172.179L386.078 172.033L386.611 156.035L401.308 148.511L415.471 156.985V157.277C420.497 153.332 424.99 148.876 428.95 143.909H428.645L419.279 130.687L426.589 116.296L443.266 115.2L443.418 115.419C444.256 112.424 444.865 109.283 445.322 106.142C445.779 103.074 446.007 100.006 446.084 97.0107L445.855 97.2299L441.438 95.6958C403.135 133.171 356.608 144.566 320.894 146.904Z" fill="#119C59"/>
<path d="M391.103 140.11C399.937 134.851 406.714 127.619 411.131 119.291C407.628 121.41 404.201 123.455 400.622 125.281C397.195 129.299 393.083 132.878 388.21 135.727C377.625 142.01 365.517 143.982 354.095 142.156C350.135 143.032 346.175 143.763 342.368 144.42C357.902 150.191 375.95 149.096 391.103 140.11Z" fill="#FAFAFA"/>
<path d="M339.246 30.9733L339.931 17.9704C339.931 17.9704 348.536 15.2675 354.704 15.2675C354.704 15.2675 344.348 17.0938 339.246 30.9733Z" fill="#119C59"/>
<path opacity="0.14" d="M410.598 666.657C412.121 665.999 413.491 665.122 413.72 664.246C413.948 663.296 413.187 662.347 412.121 661.762C409.227 660.228 402.602 660.959 399.251 660.959C393.236 660.886 387.144 660.959 381.128 661.178C378.387 661.251 348.155 661.981 350.973 666.949C353.486 671.332 369.629 672.281 374.046 672.208C381.356 672.062 388.743 671.843 395.977 670.747C399.708 670.163 403.364 669.286 406.79 668.118C407.704 667.825 409.227 667.314 410.598 666.657Z" fill="black"/>
<path d="M363.918 671.478C377.376 671.478 388.286 661.012 388.286 648.102C388.286 635.191 377.376 624.726 363.918 624.726C350.46 624.726 339.55 635.191 339.55 648.102C339.55 661.012 350.46 671.478 363.918 671.478Z" fill="#435B6E"/>
<path d="M354.552 662.054L346.632 647.298L356.075 633.346L373.361 634.149L381.204 648.978L371.838 662.858L354.552 662.054Z" fill="#2E414C"/>
<path d="M363.918 656.649C368.839 656.649 372.827 652.822 372.827 648.102C372.827 643.381 368.839 639.555 363.918 639.555C358.997 639.555 355.009 643.381 355.009 648.102C355.009 652.822 358.997 656.649 363.918 656.649Z" fill="#22323A"/>
<path d="M401.46 574.759L427.198 527.642L448.596 540.207L416.842 583.744L408.389 582.503C407.552 582.356 406.79 581.918 406.257 581.261L401.46 574.759Z" fill="#2E414C"/>
<path d="M405.039 567.6C412.121 570.084 419.355 572.422 426.818 574.759C430.016 575.709 431.996 571.034 428.645 570.011C420.878 567.673 413.415 565.263 406.105 562.779C403.135 561.756 402.145 566.578 405.039 567.6Z" fill="#435B6E"/>
<path d="M400.851 575.417C407.476 577.754 414.177 580.092 421.106 582.357C424.076 583.306 425.751 579.142 422.629 578.12C415.471 575.855 408.465 573.518 401.688 571.107C398.947 570.084 398.109 574.394 400.851 575.417Z" fill="#435B6E"/>
<path d="M414.405 550.141C422.553 552.552 431.006 554.817 439.763 557.008C443.494 557.958 446.769 551.31 442.809 550.361C433.595 548.169 424.837 545.904 416.309 543.494C412.806 542.544 411.054 549.192 414.405 550.141Z" fill="#435B6E"/>
<path d="M409.836 558.761C417.451 561.318 425.294 563.729 433.366 566.066C436.793 567.089 439.23 561.683 435.575 560.661C427.198 558.323 419.05 555.839 411.131 553.283C407.932 552.187 406.714 557.666 409.836 558.761Z" fill="#435B6E"/>
<path opacity="0.15" d="M415.471 583.525L439.23 543.567L442.961 547.219L416.613 583.598L415.471 583.525Z" fill="white"/>
<path d="M466.491 534.436C466.796 526.4 460.323 517.707 452.023 512.813C443.723 507.918 432.681 506.311 425.371 510.256C414.253 516.246 414.557 532.536 432.681 543.129C450.728 553.794 466.034 546.635 466.491 534.436Z" fill="#5C7789"/>
<path d="M435.879 538.088C417.832 527.496 416.461 512.74 426.817 508.064C433.595 504.923 444.332 507.042 452.632 511.936C460.932 516.83 467.71 525.012 467.938 532.244C468.243 543.129 454.003 548.68 435.879 538.088Z" fill="#435B6E"/>
<path d="M439.077 510.037L452.023 514.128L461.085 523.697L458.419 533.559L439.458 530.418L429.939 515.589L439.077 510.037Z" fill="#2E414C"/>
<path d="M444.332 524.939C439.534 522.09 437.631 517.853 439.839 515.735C441.743 513.909 446.007 514.347 449.662 516.538C453.317 518.73 455.678 522.163 454.84 524.574C453.927 527.35 449.129 527.715 444.332 524.939Z" fill="#22323A"/>
<path d="M496.19 399.22L465.882 349.399L484.92 338.953L515.227 388.773L510.582 397.612C509.821 399.073 508.221 399.95 506.47 399.877L496.19 399.22Z" fill="#2E414C"/>
<path d="M476.391 368.1C482.635 362.402 488.803 356.631 494.895 350.641C497.408 348.157 492.991 343.555 490.479 346.039C484.463 351.956 478.295 357.8 471.974 363.498C469.309 365.909 473.802 370.438 476.391 368.1Z" fill="#435B6E"/>
<path d="M482.94 378.985C489.184 373.287 495.352 367.516 501.444 361.526C503.957 359.042 499.54 354.44 497.027 356.923C491.012 362.841 484.844 368.685 478.523 374.382C475.858 376.793 480.275 381.395 482.94 378.985Z" fill="#435B6E"/>
<path d="M489.489 389.869C495.733 384.171 501.901 378.4 507.993 372.41C510.506 369.926 506.089 365.324 503.576 367.808C497.56 373.725 491.392 379.569 485.072 385.267C482.407 387.678 486.823 392.28 489.489 389.869Z" fill="#435B6E"/>
<path d="M495.961 400.827C502.205 395.129 508.374 389.358 514.466 383.368C516.978 380.884 512.562 376.282 510.049 378.765C504.033 384.683 497.865 390.527 491.545 396.224C488.879 398.635 493.372 403.164 495.961 400.827Z" fill="#435B6E"/>
<path opacity="0.08" d="M511.648 395.64L510.201 398.562L478.675 349.838L486.519 344.359L511.648 395.64Z" fill="white"/>
<path d="M489.869 318.061C482.483 314.774 470.908 317.184 462.075 322.59C453.241 327.923 446.083 336.835 446.083 344.651C446.007 356.412 461.542 362.183 480.807 350.495C500.073 338.88 501.139 323.028 489.869 318.061Z" fill="#5C7789"/>
<path d="M477.685 345.82C458.42 357.508 443.875 353.198 444.713 342.533C445.246 335.52 452.708 327.046 461.542 321.713C470.375 316.381 481.569 313.532 488.499 316.015C499.007 319.814 496.951 334.132 477.685 345.82Z" fill="#435B6E"/>
<path d="M453.851 334.351L464.359 324.708L477.99 320.471L485.986 326.388L473.269 341.583L454.46 344.286L453.851 334.351Z" fill="#2E414C"/>
<path d="M470.603 335.301C465.501 338.442 460.476 338.442 459.638 335.739C458.876 333.474 461.542 329.895 465.425 327.557C469.309 325.22 473.802 324.416 475.705 326.023C477.838 327.923 475.705 332.233 470.603 335.301Z" fill="#22323A"/>
<path d="M367.573 290.083L377.396 317.988C378.539 321.129 382.118 322.882 385.392 321.786L389.047 320.618C392.322 319.522 394.149 316.088 393.007 312.947L383.184 285.042C382.042 281.901 378.463 280.148 375.188 281.243L371.533 282.412C368.258 283.435 366.431 286.941 367.573 290.083Z" fill="#2E414C"/>
<path d="M373.132 308.856C380.138 308.71 387.068 308.71 394.073 308.71C396.053 308.71 396.282 311.705 394.226 311.705C387.22 311.705 380.29 311.778 373.284 311.852C371.305 311.852 371.152 308.856 373.132 308.856Z" fill="#52575C"/>
<path d="M370.01 300.017C377.016 299.871 383.945 299.871 390.951 299.871C392.931 299.871 393.159 302.866 391.103 302.866C384.098 302.866 377.168 302.939 370.162 303.012C368.182 303.012 368.03 300.017 370.01 300.017Z" fill="#52575C"/>
<path d="M368.183 291.982C375.188 291.836 382.118 291.836 389.124 291.836C391.104 291.836 391.332 294.831 389.276 294.831C382.27 294.831 375.341 294.904 368.335 294.977C366.431 294.977 366.203 291.982 368.183 291.982Z" fill="#52575C"/>
<path d="M369.934 284.385C373.818 283.873 377.777 283.362 381.661 282.997C384.555 282.704 388.895 281.463 391.789 282.924C394.53 284.312 395.901 288.329 397.195 290.886C398.947 294.392 400.47 298.045 401.688 301.697C402.83 304.985 403.744 308.345 404.43 311.778C405.039 314.408 405.42 317.111 403.135 318.864C398.109 322.809 389.2 322.298 383.032 322.225C379.3 322.152 378.767 316.527 382.499 316.527C387.677 316.6 392.779 316.6 397.652 315.066C399.48 314.481 399.251 314.481 398.871 312.509C398.566 311.048 398.185 309.66 397.805 308.199C397.119 305.715 396.358 303.232 395.444 300.821C394.53 298.41 393.54 296 392.398 293.589C391.789 292.347 391.18 290.813 390.342 289.644C389.276 288.037 389.2 288.183 387.524 288.11C385.012 287.964 382.194 288.621 379.681 288.914C376.635 289.279 373.589 289.644 370.543 290.082C366.812 290.594 366.355 284.896 369.934 284.385Z" fill="#AFBDC6"/>
<path d="M356.303 287.891C359.045 287.161 361.862 286.795 364.603 285.992C365.06 285.846 365.441 285.7 365.898 285.626C369.553 284.531 371.761 289.79 368.106 291.032C367.193 291.324 366.203 291.69 365.213 291.909C363.004 292.712 361.024 294.027 361.101 296.657C361.253 300.09 362.7 303.889 364.07 307.03C365.517 310.464 367.269 313.678 369.477 316.673C370.772 318.426 370.619 318.864 372.828 318.572C374.731 318.353 376.711 318.061 378.615 317.842C380.595 317.622 381.737 319.01 381.813 320.471C382.499 321.64 382.422 323.101 380.976 324.051C376.635 326.827 370.772 329.53 365.974 325.877C363.461 323.978 362.547 320.618 361.329 317.915C359.882 314.7 358.435 311.486 356.988 308.272C354.932 303.743 350.287 297.168 351.658 292.055C352.343 289.863 354.095 288.475 356.303 287.891Z" fill="#2E414C"/>
<path d="M411.664 305.423C419.736 304.62 427.503 303.232 435.422 301.698C440.753 300.675 445.931 299.798 451.033 298.191C456.135 296.657 461.085 294.904 466.263 293.516C470.07 292.493 482.102 288.037 484.539 292.858C485.986 295.707 482.94 299.287 481.188 301.332C478.523 304.4 475.782 307.468 472.964 310.317C464.435 318.791 454.84 326.242 444.332 332.379C436.032 337.273 427.122 341.291 417.68 343.263C416.613 343.482 415.471 343.701 414.405 343.847C413.948 343.921 413.415 343.994 413.034 343.774C412.425 343.482 412.121 342.825 411.892 342.167C408.542 331.94 405.8 321.567 403.744 311.048C403.516 309.733 403.287 308.272 403.897 307.03C404.963 305.058 409.684 305.642 411.664 305.423Z" fill="#AFBDC6"/>
<path d="M357.598 288.622C355.999 288.841 355.085 290.375 355.618 291.909L365.746 320.106C366.203 321.348 367.497 322.152 368.792 322.005L381.661 320.179L391.18 346.916C390.875 346.55 386.915 346.477 385.544 345.966C383.108 345.016 380.975 344.724 378.31 344.505C361.481 342.898 343.586 342.386 329.27 352.394C306.197 368.465 283.58 385.121 260.888 401.703C237.891 418.505 215.046 435.599 192.658 453.131C192.201 453.496 191.744 453.861 191.287 454.153C180.246 462.846 169.204 471.685 158.238 480.451C152.527 484.981 146.816 489.583 141.029 494.112C134.861 499.006 130.977 504.047 122.296 501.417C114.529 499.079 106.685 493.747 101.583 487.756C97.3951 482.789 94.5775 477.018 93.2069 470.736C91.6839 464.015 89.0186 455.614 96.2528 451.231C99.4511 449.332 102.573 447.36 105.543 445.241C152.147 414.852 199.511 384.61 245.43 352.979C248.704 350.714 251.902 348.523 255.177 346.258C267.208 338.003 287.236 323.174 299.039 314.554C321.96 297.753 324.625 285.261 337.875 264.88C343.205 256.626 348.155 248.152 352.953 239.605L369.858 287.161L357.598 288.622Z" fill="#52575C"/>
<path d="M393.312 216.813C410.674 213.672 453.318 234.053 464.588 238.582C475.858 243.111 468.471 251.585 468.471 251.585C466.491 251.877 464.435 252.169 462.456 252.535C457.049 253.411 451.566 254.288 446.16 255.311C442.2 256.041 438.24 256.772 434.356 257.575C432.377 257.94 430.397 258.379 428.417 258.744C426.818 259.109 425.371 259.84 423.848 260.278C422.096 260.789 420.345 261.301 418.67 261.958C415.471 263.2 411.968 264.953 409.379 267.218C408.466 268.021 407.019 270.067 407.552 271.382C407.628 271.528 434.889 344.359 434.889 344.359C435.194 345.235 434.585 346.112 433.595 346.185L391.18 347.062C391.18 347.062 393.16 345.601 392.626 340.487C392.322 336.981 391.56 333.474 390.723 330.114C389.809 326.535 388.743 323.028 387.677 319.522L398.414 318.061C401.688 317.622 403.592 314.262 402.297 311.121L392.55 286.795C392.093 285.626 390.799 284.823 389.581 284.969L377.092 286.43C370.924 268.752 363.842 251.439 355.846 234.418C354.856 236.171 353.943 237.925 352.953 239.751L352.191 237.632C359.045 229.378 375.95 219.954 393.312 216.813Z" fill="#CACCCF"/>
<path d="M387.753 319.303C388.895 322.809 389.961 326.315 390.799 329.895C391.636 333.328 392.398 336.762 392.703 340.268C393.159 345.382 391.256 346.843 391.256 346.843L381.737 320.106L387.753 319.303Z" fill="#C1D0DB"/>
<path d="M377.168 286.284L369.934 287.16L353.029 239.605C354.019 237.852 355.009 236.098 355.922 234.272C363.918 251.293 371 268.679 377.168 286.284Z" fill="#C1D0DB"/>
<path d="M264.848 401.557C264.467 401.849 264.01 402.142 263.629 402.434C239.109 420.331 214.818 438.521 190.983 457.222C190.526 457.587 189.993 457.952 189.536 458.317C177.733 467.595 166.006 476.945 154.279 486.295C148.187 491.19 142.095 496.011 135.927 500.832C129.302 506.019 125.266 511.425 115.976 508.649C107.675 506.165 99.3751 500.54 93.8923 494.112C89.3995 488.852 86.4296 482.643 84.9828 475.995C83.3837 468.836 80.49 459.924 88.1811 455.176C91.5317 453.131 94.8822 451.085 98.0805 448.821C142.399 420.039 189.231 389.942 233.093 360.138L264.848 401.557Z" fill="#25282B"/>
<path d="M124.731 484.845C130.25 480.944 131.428 473.49 127.361 468.195C123.295 462.901 115.524 461.771 110.005 465.672C104.486 469.573 103.308 477.028 107.375 482.322C111.441 487.617 119.212 488.746 124.731 484.845Z" fill="white"/>
<path opacity="0.08" d="M261.649 382.856L251.978 370.292C250.151 367.954 250.684 364.594 253.121 362.841C268.884 351.737 321.046 314.627 324.32 309.879C327.138 305.715 330.184 301.624 333.154 297.534C334.829 295.196 340.464 284.531 343.129 283.8C349.145 282.193 351.963 298.191 353.333 301.917C355.999 309.368 358.512 316.819 361.101 324.27C361.862 326.608 360.187 329.018 357.598 329.164C351.963 329.457 342.749 330.625 335.971 334.789C327.214 340.268 283.733 373.141 269.569 383.879C267.132 385.705 263.553 385.267 261.649 382.856Z" fill="white"/>
<path d="M109.808 465.33C115.671 461.166 123.895 462.408 128.236 468.033C132.576 473.658 131.282 481.547 125.418 485.711C119.555 489.875 111.331 488.633 106.99 483.008C102.726 477.383 103.944 469.494 109.808 465.33ZM110.645 466.426C105.391 470.151 104.325 477.237 108.132 482.205C112.016 487.245 119.402 488.268 124.581 484.615C129.835 480.89 130.901 473.804 127.094 468.836C123.286 463.796 115.9 462.7 110.645 466.426Z" fill="#52575C"/>
<path d="M195.78 407.255L202.634 412.588L210.325 411.784L211.391 413.245L209.563 414.487L216.188 415.51L219.767 419.455L218.092 426.102L212.229 430.485L205.375 428.221L199.74 422.011L190.069 415.145L195.78 407.255Z" fill="#EBCEB1"/>
<path d="M203.014 405.867L141.029 346.696C138.897 344.651 137.526 340.268 136.155 337.711C132.881 331.648 129.606 325.658 126.408 319.595C124.2 315.504 121.306 306.592 117.042 304.108C110.036 300.09 100.06 307.907 96.6337 313.239C86.125 329.603 97.7759 345.966 104.172 361.672L112.092 374.09L191.897 422.303L203.014 405.867Z" fill="#CACCCF"/>
<path d="M87.2671 238.582C87.5717 245.887 90.6939 252.9 95.0344 258.817C97.2427 258.306 99.2988 257.21 101.355 256.114C110.417 251.22 119.402 245.96 126.941 238.947C134.48 232.008 140.724 222.511 143.694 214.695C137.221 209.946 127.169 207.609 118.869 208.047C103.639 208.997 86.658 222.438 87.2671 238.582Z" fill="#119C59"/>
<path d="M153.365 196.286C156.182 195.263 159.685 194.46 162.046 196.286C164.863 198.404 164.254 202.714 162.96 205.929C158.695 216.813 150.014 226.091 139.201 231.35C134.48 233.615 125.647 235.587 123.514 228.939C122.372 225.36 125.113 218.639 126.789 215.352C131.282 206.075 143.999 199.719 153.365 196.286Z" fill="#119C59"/>
<path d="M628.842 367.224L621.303 367.297C621.608 363.425 621.836 359.48 622.141 355.609C622.521 349.765 622.978 343.921 624.197 338.15C626.1 329.018 630.136 320.325 635.848 312.801C632.954 309.66 627.547 309.222 624.121 311.705C621.608 313.532 620.313 316.6 619.323 319.449C615.44 330.114 612.927 341.291 611.784 352.54C611.328 356.85 610.261 362.548 610.718 367.297L584.904 367.443C585.208 362.621 585.589 357.8 585.894 352.979C586.274 347.135 586.731 341.291 587.95 335.52C589.168 329.822 591.148 324.27 593.889 319.083C596.478 314.189 599.144 308.126 604.017 305.277C599.753 305.131 595.488 305.715 591.453 307.103C586.731 308.71 584.523 312.509 582.924 316.819C579.04 327.484 576.527 338.661 575.385 349.911C574.852 355.024 573.405 362.11 574.7 367.151C574.7 367.224 574.776 367.297 574.776 367.443H568.151L546.448 449.99H637.599L628.842 367.224Z" fill="#119C59"/>
<path d="M492.002 373.944L477.609 367.954L480.122 362.037L490.936 364.009L490.707 360.722L502.358 367.224L500.683 373.725L492.002 373.944Z" fill="#EBCEB1"/>
<path d="M634.706 332.452C633.64 331.867 632.345 331.429 630.898 331.137C624.959 329.895 618.714 331.429 613.384 334.205C604.931 338.588 597.849 345.455 590.006 350.714C581.02 356.704 572.035 362.694 562.973 368.685L499.16 363.79L496.495 376.866L572.339 396.882C583.914 388.335 595.108 380.007 607.14 372.264C617.877 365.324 630.974 359.919 637.828 348.815C641.788 342.533 640.722 335.593 634.706 332.452Z" fill="#CACCCF"/>
<path d="M600.133 265.245C598.001 262.031 596.402 258.233 594.042 255.53C591.148 252.316 586.198 250.635 584.751 246.618C583 241.723 586.122 236.098 590.843 234.126C593.661 232.884 596.859 232.665 599.981 232.884C601.504 232.957 603.103 233.176 604.474 233.688C607.139 234.783 609.119 237.267 609.576 239.97C609.881 241.942 609.424 244.061 610.185 245.887C612.85 252.023 620.465 252.827 626.177 254.288C632.04 255.749 637.523 255.968 642.625 259.694C650.468 265.465 653.286 276.349 650.088 285.334C646.889 294.319 638.361 301.113 628.766 303.524C623.359 304.912 627.928 300.967 629.223 299.725C631.888 297.241 634.248 294.173 635.467 290.74C637.066 286.284 636.609 281.024 633.259 277.518C630.365 274.45 625.872 273.354 621.684 272.55C619.019 272.039 616.125 271.089 613.384 271.163C611.48 271.163 609.881 271.674 607.977 271.309C604.398 270.578 602.037 268.094 600.133 265.245Z" fill="#534741"/>
<path d="M653.438 308.126C655.266 309.879 657.627 311.559 660.139 310.975C661.815 310.61 663.109 309.149 663.642 307.615C664.175 306.007 664.175 304.327 664.023 302.647C663.185 292.42 658.616 282.558 651.23 275.107C649.783 273.719 648.032 272.258 645.976 272.477C643.158 272.77 641.254 276.495 640.112 278.614C639.198 280.294 642.625 282.558 643.463 284.311C644.453 286.503 644.757 288.987 644.072 291.324C643.539 293.297 643.31 294.977 644.376 296.876C646.509 301.113 650.088 304.912 653.438 308.126Z" fill="#119C59"/>
<path d="M625.111 260.862C628.309 263.857 631.431 266.999 634.173 270.432C639.351 277.08 641.94 284.677 645.9 291.982C648.032 295.853 650.545 293.005 653.134 290.521C655.723 287.964 657.703 284.896 658.845 281.463C660.825 275.692 660.368 269.117 657.626 263.638C655.342 259.109 651.687 255.457 648.032 251.877C643.234 247.129 635.315 244.937 628.385 245.01C625.187 245.084 616.506 246.252 615.211 249.759C613.917 253.046 622.902 258.817 625.111 260.862Z" fill="#119C59"/>
</g>
<defs>
<clipPath id="clip0">
<rect width="742" height="695" fill="white"/>
</clipPath>
</defs>
</svg>
