<svg width="25" height="24" viewBox="0 0 25 24" fill="none" xmlns="http://www.w3.org/2000/svg">
<path d="M17.6665 3.00006C17.9291 2.73741 18.241 2.52907 18.5841 2.38693C18.9273 2.24479 19.2951 2.17163 19.6665 2.17163C20.0379 2.17163 20.4057 2.24479 20.7489 2.38693C21.0921 2.52907 21.4039 2.73741 21.6665 3.00006C21.9291 3.2627 22.1375 3.57451 22.2796 3.91767C22.4218 4.26083 22.4949 4.62862 22.4949 5.00006C22.4949 5.37149 22.4218 5.73929 22.2796 6.08245C22.1375 6.42561 21.9291 6.73741 21.6665 7.00006L8.1665 20.5001L2.6665 22.0001L4.1665 16.5001L17.6665 3.00006Z" stroke="#25282B" stroke-width="2" stroke-linecap="round" stroke-linejoin="round"/>
</svg>
