<svg width="146" height="22" viewBox="0 0 146 22" fill="none" xmlns="http://www.w3.org/2000/svg">
<path d="M0.358887 0.848145H4.19027V18.2367H14.9771V21.4787H0.358887V0.848145Z" fill="#FAF9F7"/>
<path d="M32.3649 13.698C32.3649 13.9534 32.3452 14.3169 32.3059 14.7885H19.9571C20.1732 15.9477 20.7332 16.8712 21.637 17.5589C22.5605 18.2269 23.7001 18.5609 25.0558 18.5609C26.7848 18.5609 28.2093 17.9911 29.3292 16.8515L31.3039 19.1209C30.5965 19.9658 29.7026 20.6043 28.6219 21.0366C27.5413 21.4689 26.3231 21.685 24.9674 21.685C23.2383 21.685 21.7156 21.3411 20.3992 20.6535C19.0827 19.9658 18.061 19.0128 17.3341 17.7947C16.6267 16.5568 16.2731 15.1618 16.2731 13.6096C16.2731 12.0771 16.6169 10.7017 17.3046 9.4835C18.0119 8.24567 18.9845 7.28291 20.2223 6.59522C21.4602 5.90754 22.8552 5.5637 24.4074 5.5637C25.9399 5.5637 27.3055 5.90754 28.504 6.59522C29.7222 7.26326 30.6653 8.21619 31.3333 9.45403C32.021 10.6722 32.3649 12.0869 32.3649 13.698ZM24.4074 8.51092C23.2285 8.51092 22.2264 8.86458 21.4012 9.57192C20.5956 10.2596 20.1044 11.1831 19.9276 12.3423H28.8577C28.7005 11.2027 28.2191 10.2792 27.4135 9.57192C26.608 8.86458 25.6059 8.51092 24.4074 8.51092Z" fill="#FAF9F7"/>
<path d="M45.4297 20.624C44.9974 20.9777 44.4669 21.2429 43.8382 21.4197C43.2291 21.5966 42.5807 21.685 41.893 21.685C40.164 21.685 38.8279 21.2331 37.8848 20.3293C36.9417 19.4255 36.4701 18.109 36.4701 16.38V8.80564H33.8766V5.85842H36.4701V2.26281H40.1542V5.85842H44.3687V8.80564H40.1542V16.2916C40.1542 17.0579 40.3408 17.6473 40.7141 18.0599C41.0874 18.4529 41.6278 18.6494 42.3351 18.6494C43.1603 18.6494 43.848 18.4332 44.3982 18.001L45.4297 20.624Z" fill="#FAF9F7"/>
<path d="M57.6122 20.624C57.1799 20.9777 56.6494 21.2429 56.0207 21.4197C55.4116 21.5966 54.7632 21.685 54.0755 21.685C52.3465 21.685 51.0104 21.2331 50.0673 20.3293C49.1242 19.4255 48.6526 18.109 48.6526 16.38V8.80564H46.0591V5.85842H48.6526V2.26281H52.3366V5.85842H56.5512V8.80564H52.3366V16.2916C52.3366 17.0579 52.5233 17.6473 52.8966 18.0599C53.2699 18.4529 53.8103 18.6494 54.5176 18.6494C55.3428 18.6494 56.0305 18.4332 56.5806 18.001L57.6122 20.624Z" fill="#FAF9F7"/>
<path d="M74.9852 13.698C74.9852 13.9534 74.9656 14.3169 74.9263 14.7885H62.5774C62.7935 15.9477 63.3535 16.8712 64.2573 17.5589C65.1808 18.2269 66.3204 18.5609 67.6761 18.5609C69.4051 18.5609 70.8296 17.9911 71.9496 16.8515L73.9242 19.1209C73.2169 19.9658 72.3229 20.6043 71.2422 21.0366C70.1616 21.4689 68.9434 21.685 67.5877 21.685C65.8587 21.685 64.3359 21.3411 63.0195 20.6535C61.7031 19.9658 60.6814 19.0128 59.9544 17.7947C59.2471 16.5568 58.8934 15.1618 58.8934 13.6096C58.8934 12.0771 59.2372 10.7017 59.9249 9.4835C60.6322 8.24567 61.6048 7.28291 62.8427 6.59522C64.0805 5.90754 65.4755 5.5637 67.0277 5.5637C68.5603 5.5637 69.9258 5.90754 71.1243 6.59522C72.3425 7.26326 73.2856 8.21619 73.9537 9.45403C74.6414 10.6722 74.9852 12.0869 74.9852 13.698ZM67.0277 8.51092C65.8488 8.51092 64.8468 8.86458 64.0215 9.57192C63.216 10.2596 62.7248 11.1831 62.5479 12.3423H71.478C71.3208 11.2027 70.8394 10.2792 70.0339 9.57192C69.2283 8.86458 68.2262 8.51092 67.0277 8.51092Z" fill="#FAF9F7"/>
<path d="M82.0966 8.03936C83.1576 6.38892 85.0242 5.5637 87.6964 5.5637V9.07089C87.382 9.01194 87.0971 8.98247 86.8417 8.98247C85.4073 8.98247 84.2874 9.40491 83.4818 10.2498C82.6762 11.075 82.2735 12.2735 82.2735 13.8454V21.4787H78.5894V5.74053H82.0966V8.03936Z" fill="#FAF9F7"/>
<path d="M105.715 10.7508C106.855 11.1241 107.758 11.7529 108.426 12.637C109.094 13.5015 109.429 14.5822 109.429 15.879C109.429 17.6669 108.741 19.0521 107.365 20.0345C105.99 20.9973 103.986 21.4787 101.353 21.4787H91.0968V0.848145H100.764C103.2 0.848145 105.076 1.32952 106.393 2.29228C107.709 3.23539 108.368 4.54199 108.368 6.21209C108.368 7.23379 108.132 8.1376 107.66 8.92353C107.189 9.70945 106.54 10.3185 105.715 10.7508ZM94.9282 3.85431V9.54244H100.351C101.687 9.54244 102.709 9.30666 103.416 8.83511C104.143 8.34391 104.507 7.63657 104.507 6.71311C104.507 5.77 104.143 5.06267 103.416 4.59111C102.709 4.09991 101.687 3.85431 100.351 3.85431H94.9282ZM101.117 18.4725C104.084 18.4725 105.568 17.4803 105.568 15.4958C105.568 13.5114 104.084 12.5191 101.117 12.5191H94.9282V18.4725H101.117Z" fill="#FAF9F7"/>
<path d="M120.303 21.685C118.711 21.685 117.277 21.3411 116 20.6535C114.723 19.9658 113.721 19.0128 112.994 17.7947C112.286 16.5568 111.933 15.1618 111.933 13.6096C111.933 12.0574 112.286 10.6722 112.994 9.45403C113.721 8.23584 114.723 7.28291 116 6.59522C117.277 5.90754 118.711 5.5637 120.303 5.5637C121.914 5.5637 123.358 5.90754 124.635 6.59522C125.912 7.28291 126.904 8.23584 127.612 9.45403C128.339 10.6722 128.702 12.0574 128.702 13.6096C128.702 15.1618 128.339 16.5568 127.612 17.7947C126.904 19.0128 125.912 19.9658 124.635 20.6535C123.358 21.3411 121.914 21.685 120.303 21.685ZM120.303 18.5315C121.658 18.5315 122.778 18.0796 123.663 17.1757C124.547 16.2719 124.989 15.0832 124.989 13.6096C124.989 12.136 124.547 10.9473 123.663 10.0435C122.778 9.13966 121.658 8.68775 120.303 8.68775C118.947 8.68775 117.827 9.13966 116.943 10.0435C116.078 10.9473 115.646 12.136 115.646 13.6096C115.646 15.0832 116.078 16.2719 116.943 17.1757C117.827 18.0796 118.947 18.5315 120.303 18.5315Z" fill="#FAF9F7"/>
<path d="M141.793 21.4787L137.755 16.0263L133.688 21.4787H129.621L135.751 13.4917L129.886 5.74053H133.983L137.844 10.8982L141.705 5.74053H145.683L139.789 13.4328L145.949 21.4787H141.793Z" fill="#FAF9F7"/>
</svg>
