<svg width="532" height="541" viewBox="0 0 532 541" fill="none" xmlns="http://www.w3.org/2000/svg">
<g clip-path="url(#clip0)">
<path d="M266.09 540.5C412.59 540.5 531.351 467.832 531.351 378.192C531.351 288.552 412.59 215.884 266.09 215.884C119.591 215.884 0.829224 288.552 0.829224 378.192C0.829224 467.832 119.591 540.5 266.09 540.5Z" fill="#F5F5F5"/>
<path d="M400.32 445.603C399.254 445.603 397.832 445.485 396.411 444.655L349.495 417.525C347.837 416.577 346.771 414.919 346.771 413.142C346.771 411.364 347.718 409.824 349.495 408.758L427.095 363.975C428.517 363.146 430.057 363.027 431.005 363.027C432.071 363.027 433.493 363.146 434.914 363.975L481.83 391.106C483.488 392.053 484.555 393.712 484.555 395.489C484.555 397.266 483.607 398.806 481.83 399.873L404.23 444.655C402.927 445.366 401.387 445.603 400.32 445.603Z" fill="#E0E0E0"/>
<path d="M301.751 504.958C295.59 504.958 289.785 504.247 284.217 502.944C278.53 501.641 273.317 499.627 268.697 497.257L268.578 497.139C267.63 496.665 266.446 495.836 264.906 494.888C263.484 493.94 261.944 492.992 260.404 492.045C258.863 490.978 257.442 490.031 256.02 489.083C254.598 488.135 253.532 487.306 252.703 486.713C248.675 483.633 245.713 479.96 243.699 476.051C241.566 471.667 240.856 467.047 241.803 462.308C242.633 457.806 245.121 453.422 248.912 449.039C252.584 445.011 257.679 441.22 264.55 437.547C272.132 433.519 279.478 430.557 286.468 428.78C293.458 427.003 300.092 426.055 306.371 425.937H306.964C313.006 425.937 318.811 426.647 324.261 428.188C329.71 429.728 334.805 431.742 339.544 434.23C341.439 435.296 343.453 436.481 345.586 437.902C347.718 439.324 349.614 440.627 351.154 441.812C354.116 443.945 356.13 446.314 357.196 448.92C358.262 451.408 358.618 454.015 358.262 456.503C358.381 456.503 358.618 456.503 358.736 456.503H359.092C361.343 456.503 363.357 457.214 365.015 458.398C367.266 459.938 368.451 462.663 367.977 465.388C367.74 467.284 367.148 469.298 366.555 471.43C365.726 473.918 364.304 476.525 362.29 479.131C360.395 481.619 357.788 483.988 354.471 486.713C351.272 489.32 346.889 491.926 341.676 494.769C335.16 498.205 328.407 500.812 321.773 502.47C315.138 504.01 308.622 504.84 302.462 504.958H301.751ZM297.604 464.796C297.841 464.914 298.078 465.151 298.315 465.27C300.448 466.691 302.462 467.402 304.476 467.639C304.831 467.639 305.186 467.758 305.542 467.758C306.49 467.758 307.319 467.639 308.03 467.284C307.793 467.165 307.674 467.047 307.437 466.81C305.305 465.388 303.172 464.559 301.158 464.322C300.803 464.322 300.448 464.203 300.092 464.203C299.263 464.322 298.433 464.44 297.604 464.796Z" fill="#E0E0E0"/>
<path d="M162.782 483.277L10.3073 395.489C7.10851 393.593 7.10851 390.632 10.3073 388.736L319.759 210.079C322.958 208.183 328.17 208.183 331.369 210.079L483.844 297.986C487.043 299.881 487.043 302.843 483.844 304.739L174.392 483.277C171.194 485.173 165.981 485.173 162.782 483.277Z" fill="#E0E0E0"/>
<path d="M152.593 36.2789L144.774 40.7809C144.774 40.4255 144.893 40.0701 144.893 39.7147V37.4637C144.893 33.4356 142.049 31.8954 138.613 33.791C137.192 34.6203 135.889 35.9235 134.822 37.3452C134.23 32.3693 130.32 30.4738 125.463 33.1986C120.25 36.1605 116.104 43.5058 116.104 49.4294V52.7467C116.104 54.2868 116.34 55.59 116.933 56.6563L110.535 60.329C108.64 61.3952 107.1 64.1201 107.1 66.3711C107.1 68.6221 108.64 69.4514 110.535 68.3851L152.593 44.3351C154.489 43.2688 156.029 40.544 156.029 38.293C156.029 36.1605 154.489 35.2127 152.593 36.2789Z" fill="#EBEBEB"/>
<path d="M101.294 15.6646L97.0293 17.3232V7.84537C97.0293 0.381566 91.1056 -1.39553 84.5896 2.27713C78.0736 6.06827 72.8608 15.0722 72.8608 22.536V23.9577C71.4391 23.3653 69.5436 23.6023 67.411 24.787C62.7906 27.5119 58.9995 34.0279 58.9995 39.3592V39.9516L53.0758 43.3873C49.9955 45.1644 47.5076 49.4294 47.5076 52.9836C47.5076 56.5378 49.9955 57.9595 53.0758 56.1824L101.413 28.3412C104.493 26.5641 106.981 22.2991 106.981 18.7449C106.863 15.4276 104.375 13.8875 101.294 15.6646Z" fill="#EBEBEB"/>
<path d="M37.3193 361.132L45.3754 356.511C45.3754 356.511 50.2328 336.608 48.2188 318.6C45.4939 293.365 28.9077 283.887 22.6286 286.02C16.3495 288.153 14.454 295.498 24.8796 310.544C31.1587 319.429 38.7409 337.911 37.3193 361.132Z" fill="#14B86E"/>
<g opacity="0.15">
<path opacity="0.15" d="M37.3193 361.132L45.3754 356.511C45.3754 356.511 50.2328 336.608 48.2188 318.6C45.4939 293.365 28.9077 283.887 22.6286 286.02C16.3495 288.153 14.454 295.498 24.8796 310.544C31.1587 319.429 38.7409 337.911 37.3193 361.132Z" fill="black"/>
</g>
<path d="M40.6367 351.417C40.2812 351.299 40.0443 351.062 40.1628 350.706C44.5463 327.486 36.4901 301.303 26.4199 290.404C26.183 290.167 26.183 289.811 26.4199 289.574C26.6568 289.337 27.0123 289.337 27.2492 289.574C37.5564 300.711 45.731 327.249 41.3475 350.825C41.229 351.18 40.9921 351.417 40.6367 351.417Z" fill="white"/>
<path d="M15.0462 376.889C13.743 377.481 10.4258 374.638 9.47798 373.927C7.81936 372.742 6.63463 371.084 5.80532 369.188C4.85754 367.056 4.73906 364.805 5.21296 362.435C5.4499 361.25 5.80532 360.066 6.27921 358.999C6.63463 357.815 7.10852 356.748 7.46394 355.564C7.81936 354.497 8.17478 353.313 8.17478 352.128C7.93784 349.758 6.04227 347.981 4.1467 346.56C2.13266 344.901 0.000142977 342.65 0.237089 339.925C0.355562 337.793 1.54029 335.779 3.08044 334.12C4.50212 332.461 6.16074 331.04 7.46394 329.263C8.41173 327.959 9.12257 326.538 9.12257 324.998C9.12257 324.05 8.76715 323.102 8.29325 322.154C7.34547 320.259 6.16074 318.482 5.56837 316.468C4.97601 314.454 5.21296 311.966 6.87158 310.662C8.17478 309.596 10.0703 309.478 11.8474 309.715C13.3876 309.952 14.9277 310.662 16.2309 311.492C20.6144 314.217 22.8654 319.666 27.6044 321.799C29.3815 322.628 31.3955 322.865 33.2911 323.457C35.1866 324.05 37.0822 325.116 37.9115 326.893C39.4517 330.447 36.0159 334.594 37.0822 338.385C38.03 341.702 41.1103 343.124 42.7689 346.204C43.4797 347.507 43.5982 349.048 43.3613 350.588C43.0058 353.076 42.532 354.971 41.2288 357.696C40.044 359.947 36.9637 364.331 36.9637 364.331C36.9637 364.331 15.2832 376.77 15.0462 376.889Z" fill="#14B86E"/>
<path d="M27.3675 370.491C27.0121 370.491 26.7752 370.136 26.8936 369.899C28.9077 347.744 19.6668 322.747 12.4399 315.283C12.203 315.046 12.203 314.691 12.4399 314.454C12.6769 314.217 13.0323 314.217 13.2692 314.454C20.6146 322.154 30.0924 347.508 27.9599 370.017C27.9599 370.254 27.7229 370.491 27.3675 370.491Z" fill="white"/>
<path d="M25.235 343.124H25.1165C18.1266 340.518 9.2411 339.688 9.12263 339.688C8.76721 339.688 8.53027 339.333 8.64874 339.096C8.64874 338.74 8.88568 338.504 9.2411 338.622C9.35958 338.622 18.3635 339.451 25.4719 342.058C25.7089 342.176 25.9458 342.532 25.8273 342.769C25.7089 343.006 25.4719 343.243 25.235 343.124Z" fill="white"/>
<path d="M20.3775 389.802L162.19 471.667C166.81 474.274 172.26 474.392 176.999 471.904L462.519 307.108C467.021 304.502 470.694 298.697 470.694 294.195C470.694 289.574 467.021 283.769 462.519 281.281L321.299 199.772C316.797 197.165 309.452 197.165 305.068 199.772L20.3775 363.975C15.8755 366.582 12.2029 372.387 12.2029 376.889C12.2029 381.509 15.8755 387.314 20.3775 389.802Z" fill="#37474F"/>
<path d="M162.19 471.667L20.3775 389.802C15.8755 387.196 12.2029 381.391 12.2029 376.889C12.2029 372.268 15.8755 366.463 20.3775 363.975L169.89 277.608V473.8C167.166 473.8 164.559 473.089 162.19 471.667Z" fill="#263238"/>
<path d="M165.507 457.095C169.417 459.346 175.933 459.346 179.842 457.095L462.401 293.958C468.443 290.403 468.443 284.717 462.401 281.163L321.062 199.535C316.56 196.928 309.215 196.928 304.831 199.535L20.3777 363.975C15.8757 366.582 15.8757 370.847 20.3777 373.335L165.507 457.095Z" fill="#455A64"/>
<path d="M179.25 440.746C183.515 443.234 190.505 443.234 194.77 440.746L437.876 300.355C442.141 297.867 442.141 293.839 437.876 291.47L304.95 214.699C300.685 212.211 293.695 212.211 289.43 214.699L46.323 355.09C42.058 357.578 42.058 361.606 46.323 363.975L179.25 440.746Z" fill="#37474F"/>
<path d="M297.723 212.804C300.329 212.922 302.936 213.514 304.95 214.581L437.876 291.351C442.142 293.839 442.142 297.867 437.876 300.237L411.575 315.401L297.723 242.659V212.804Z" fill="#263238"/>
<path d="M289.43 220.504C293.695 218.016 300.685 218.016 304.95 220.504L437.876 297.275C438.706 297.749 439.417 298.341 439.89 298.934C439.417 299.526 438.706 300 437.995 300.474L194.77 440.746C190.505 443.234 183.515 443.234 179.25 440.746L46.323 363.975C45.4937 363.501 44.7829 362.909 44.309 362.317C44.7829 361.724 45.3752 361.25 46.2045 360.776L289.43 220.504Z" fill="#FAFAFA"/>
<path d="M389.303 255.454L365.727 241.83C364.305 241 364.305 239.697 365.608 238.986C366.911 238.275 369.162 238.275 370.584 239.105L394.16 252.729C395.582 253.558 395.582 254.862 394.279 255.572C392.857 256.402 390.724 256.283 389.303 255.454Z" fill="#263238"/>
<path d="M348.785 232.233C347.482 231.522 347.482 230.219 348.785 229.508C350.088 228.798 352.221 228.798 353.524 229.508C354.827 230.219 354.827 231.522 353.524 232.233C352.339 232.944 350.206 232.944 348.785 232.233Z" fill="#263238"/>
<path d="M339.307 226.665C338.004 225.954 338.004 224.651 339.307 223.94C340.61 223.229 342.743 223.229 344.046 223.94C345.349 224.651 345.349 225.954 344.046 226.665C342.743 227.376 340.61 227.376 339.307 226.665Z" fill="#263238"/>
<path d="M415.722 270.737C414.419 270.026 414.419 268.723 415.722 268.012C417.025 267.301 419.158 267.301 420.461 268.012C421.764 268.723 421.764 270.026 420.461 270.737C419.158 271.566 417.025 271.566 415.722 270.737Z" fill="#263238"/>
<path d="M406.126 265.287C404.823 264.576 404.823 263.273 406.126 262.562C407.429 261.851 409.562 261.851 410.865 262.562C412.168 263.273 412.168 264.576 410.865 265.287C409.562 265.998 407.429 265.998 406.126 265.287Z" fill="#263238"/>
<path d="M173.326 401.531V402.005C173.326 402.834 173.919 403.782 174.629 404.256L202.234 420.25C202.944 420.605 204.129 420.605 204.84 420.25L250.689 393.83C251.4 393.475 251.992 392.409 251.992 391.579V391.106C251.992 390.276 251.4 389.328 250.689 388.855L223.085 372.861C222.374 372.505 221.189 372.505 220.478 372.861L174.629 399.28C173.919 399.636 173.326 400.702 173.326 401.531Z" fill="#14B86E"/>
<path d="M173.326 401.531V402.005C173.326 402.834 173.919 403.782 174.629 404.256L202.234 420.25C202.944 420.605 204.129 420.605 204.84 420.25L250.689 393.83C251.4 393.475 251.992 392.409 251.992 391.579V391.106C251.992 390.276 251.4 389.328 250.689 388.855L223.085 372.861C222.374 372.505 221.189 372.505 220.478 372.861L174.629 399.28C173.919 399.636 173.326 400.702 173.326 401.531Z" fill="#14B86E"/>
<path opacity="0.3" d="M250.689 388.736L223.085 372.742C222.374 372.387 221.189 372.387 220.478 372.742L203.655 382.457V420.368C204.129 420.368 204.603 420.25 204.958 420.013L250.807 393.593C251.518 393.238 252.111 392.172 252.111 391.343V390.869C251.992 390.158 251.4 389.21 250.689 388.736Z" fill="white"/>
<path opacity="0.15" d="M250.689 388.736L223.085 372.742C222.374 372.387 221.189 372.387 220.478 372.742L203.655 382.457V420.368C204.129 420.368 204.603 420.25 204.958 420.013L250.807 393.593C251.518 393.238 252.111 392.172 252.111 391.343V390.869C251.992 390.158 251.4 389.21 250.689 388.736Z" fill="black"/>
<path opacity="0.3" d="M203.537 382.576L174.629 399.28C173.919 399.636 173.326 400.702 173.326 401.531V402.005C173.326 402.834 173.919 403.782 174.629 404.256L202.234 420.25C202.589 420.487 203.063 420.605 203.537 420.605V382.576Z" fill="white"/>
<path opacity="0.2" d="M203.537 382.576L174.629 399.28C173.919 399.636 173.326 400.702 173.326 401.531V402.005C173.326 402.834 173.919 403.782 174.629 404.256L202.234 420.25C202.589 420.487 203.063 420.605 203.537 420.605V382.576Z" fill="black"/>
<path d="M197.85 414.208L174.629 400.82C173.919 400.465 173.919 399.754 174.629 399.28L220.479 372.861C221.189 372.505 222.374 372.505 223.085 372.861L250.689 388.855C251.4 389.21 251.4 389.921 250.689 390.395L243.107 394.778L240.5 396.318L204.959 416.814C204.248 417.17 203.063 417.17 202.352 416.814L200.101 415.511L197.85 414.208Z" fill="#14B86E"/>
<path opacity="0.3" d="M197.85 414.208L174.629 400.82C173.919 400.465 173.919 399.754 174.629 399.28L220.479 372.861C221.189 372.505 222.374 372.505 223.085 372.861L250.689 388.855C251.4 389.21 251.4 389.921 250.689 390.395L243.107 394.778L240.5 396.318L204.959 416.814C204.248 417.17 203.063 417.17 202.352 416.814L200.101 415.511L197.85 414.208Z" fill="white"/>
<path opacity="0.15" d="M218.938 391.935L250.689 388.855L219.293 390.632L223.085 372.861C222.729 372.624 222.137 372.505 221.663 372.624L215.739 396.674L174.155 400.109C174.155 400.346 174.274 400.702 174.629 400.939L208.157 399.043L203.537 417.288L209.46 399.043L215.147 398.688C215.858 398.688 216.569 398.332 217.042 397.858C217.516 397.385 217.872 396.911 217.99 396.2L218.938 391.935Z" fill="black"/>
<path opacity="0.3" d="M183.989 399.162L215.621 396.555L216.806 392.053L217.398 389.565L221.544 372.505C221.071 372.505 220.715 372.624 220.36 372.742L197.494 386.011L174.629 399.28C174.274 399.517 174.155 399.754 174.155 399.991L180.553 399.517L183.989 399.162Z" fill="white"/>
<path d="M216.45 369.07C219.294 367.411 224.033 367.411 226.876 369.07C229.719 370.728 229.719 373.453 226.876 375.112C224.033 376.77 219.294 376.77 216.45 375.112C213.607 373.453 213.607 370.728 216.45 369.07Z" fill="#F28F8F"/>
<path d="M217.991 373.098C217.872 373.098 217.872 373.098 217.754 372.979L217.635 372.861L218.109 370.965V370.847C218.109 370.728 218.227 370.728 218.227 370.728L219.294 370.136C219.412 370.136 219.412 370.136 219.531 370.136C219.649 370.136 219.649 370.136 219.768 370.136L225.336 373.335C225.454 373.335 225.454 373.453 225.454 373.453C225.454 373.453 225.454 373.572 225.336 373.572L224.151 374.282C224.033 374.282 224.033 374.282 223.914 374.282C223.796 374.282 223.796 374.282 223.677 374.282L219.886 372.15L219.649 373.216C219.649 373.216 219.649 373.335 219.531 373.335C219.412 373.335 219.412 373.335 219.294 373.335L217.991 373.098Z" fill="#FAFAFA"/>
<path d="M269.645 381.272L238.486 363.264C237.776 362.909 237.776 362.198 238.486 361.724L351.391 296.564C352.102 296.209 353.287 296.209 353.998 296.564L385.156 314.572C385.867 314.927 385.867 315.638 385.156 316.112L272.251 381.272C271.54 381.746 270.356 381.746 269.645 381.272Z" fill="#14B86E"/>
<path d="M263.721 361.013C263.603 361.132 263.484 361.132 263.366 361.132C263.247 361.132 263.129 361.132 263.129 361.132L256.613 360.421L260.404 362.672C260.523 362.672 260.523 362.791 260.523 362.791C260.523 362.791 260.523 362.909 260.404 362.909L259.693 363.383C259.575 363.383 259.575 363.383 259.456 363.501C259.338 363.501 259.219 363.501 259.219 363.383L253.177 359.947C253.059 359.947 253.059 359.829 253.059 359.829C253.059 359.829 253.059 359.71 253.177 359.71L253.77 359.355C253.888 359.236 254.006 359.236 254.125 359.236C254.243 359.236 254.362 359.236 254.362 359.236L260.878 359.947L257.087 357.696C256.968 357.696 256.968 357.578 256.968 357.578C256.968 357.578 256.968 357.459 257.087 357.459L257.798 356.985C257.916 356.985 257.916 356.985 258.035 356.985C258.153 356.985 258.272 356.985 258.272 356.985L264.314 360.421C264.432 360.421 264.432 360.54 264.432 360.54C264.432 360.54 264.432 360.658 264.314 360.658L263.721 361.013Z" fill="#FAFAFA"/>
<path d="M263.247 358.407C262.892 358.17 262.655 357.933 262.418 357.696C262.181 357.459 262.062 357.222 262.062 356.985C262.062 356.748 262.062 356.511 262.299 356.274C262.418 356.038 262.655 355.801 263.01 355.564C263.366 355.327 263.721 355.208 264.195 355.09C264.55 354.971 265.024 354.971 265.38 354.971C265.735 354.971 266.209 355.09 266.564 355.09C266.92 355.208 267.275 355.327 267.631 355.564L268.105 355.801C268.223 355.801 268.223 355.919 268.223 355.919C268.223 355.919 268.223 356.038 268.105 356.038L265.024 357.815C265.143 357.933 265.38 357.933 265.498 357.933C265.617 357.933 265.854 357.933 265.972 357.933C266.091 357.933 266.328 357.933 266.446 357.815C266.564 357.815 266.801 357.696 266.92 357.578C267.157 357.459 267.275 357.341 267.394 357.222C267.512 357.104 267.512 356.985 267.512 356.985C267.512 356.867 267.512 356.867 267.631 356.867L267.749 356.748L268.46 356.274C268.579 356.274 268.579 356.156 268.697 356.156C268.815 356.156 268.934 356.156 268.934 356.274C269.052 356.274 269.052 356.393 269.171 356.511C269.171 356.63 269.171 356.748 269.171 356.985C269.171 357.222 269.052 357.341 268.815 357.578C268.579 357.815 268.342 357.933 267.986 358.17C267.631 358.407 267.275 358.525 266.92 358.644C266.564 358.762 266.091 358.762 265.735 358.762C265.261 358.762 264.906 358.644 264.432 358.525C264.077 358.881 263.603 358.644 263.247 358.407ZM264.195 356.274C263.958 356.393 263.84 356.511 263.84 356.63C263.721 356.748 263.721 356.867 263.721 356.985C263.721 357.104 263.721 357.222 263.84 357.222C263.84 357.341 263.958 357.341 264.077 357.459L266.209 356.274C266.091 356.274 265.972 356.156 265.854 356.156C265.735 356.156 265.617 356.038 265.38 356.038C265.261 356.038 265.024 356.038 264.906 356.038C264.55 356.156 264.313 356.156 264.195 356.274Z" fill="#FAFAFA"/>
<path d="M273.91 352.839L272.133 350.825C272.133 350.825 272.133 350.706 272.014 350.706C272.014 350.706 272.014 350.588 272.133 350.588L272.844 350.232C272.962 350.232 272.962 350.232 273.081 350.232C273.199 350.232 273.318 350.232 273.318 350.232L276.161 353.55L276.279 353.668C276.279 353.668 276.279 353.787 276.161 353.787L275.45 354.142C275.332 354.142 275.332 354.261 275.213 354.261C275.095 354.261 275.095 354.261 274.976 354.261L271.541 353.313L273.081 355.208C273.081 355.208 273.081 355.327 273.199 355.327C273.199 355.327 273.199 355.445 273.081 355.445L272.488 355.919C272.37 355.919 272.37 356.038 272.251 356.038C272.133 356.038 272.133 356.038 272.014 356.038L266.328 354.379C266.328 354.379 266.328 354.379 266.209 354.379C266.091 354.379 266.091 354.261 266.091 354.261C266.091 354.261 266.091 354.142 266.209 354.142L266.92 353.787C267.039 353.787 267.039 353.668 267.157 353.668C267.276 353.668 267.276 353.668 267.394 353.668L270.83 354.734L269.053 352.72C269.053 352.72 269.053 352.602 268.934 352.602C268.934 352.602 268.934 352.483 269.053 352.483L269.763 352.128C269.882 352.128 269.882 352.128 270 352.128C270.119 352.128 270.119 352.128 270.237 352.128L273.91 352.839Z" fill="#FAFAFA"/>
<path d="M278.057 349.877C277.701 349.64 277.464 349.403 277.227 349.166C276.99 348.929 276.872 348.692 276.872 348.455C276.872 348.218 276.872 347.981 277.109 347.744C277.227 347.507 277.464 347.27 277.82 347.034C278.175 346.797 278.53 346.678 279.004 346.56C279.36 346.441 279.834 346.441 280.189 346.441C280.544 346.441 281.018 346.56 281.374 346.56C281.729 346.678 282.085 346.797 282.44 347.034L282.914 347.27C283.032 347.27 283.032 347.389 283.032 347.389C283.032 347.389 283.032 347.507 282.914 347.507L279.834 349.285C279.952 349.403 280.189 349.403 280.308 349.403C280.426 349.403 280.663 349.403 280.781 349.403C280.9 349.403 281.137 349.403 281.255 349.285C281.374 349.285 281.611 349.166 281.729 349.048C281.966 348.929 282.085 348.811 282.203 348.692C282.322 348.574 282.322 348.455 282.322 348.455C282.322 348.337 282.322 348.337 282.44 348.337L282.559 348.218L283.269 347.744C283.388 347.744 283.388 347.744 283.506 347.626C283.625 347.626 283.743 347.626 283.743 347.744C283.862 347.744 283.862 347.863 283.98 347.981C283.98 348.1 283.98 348.218 283.98 348.455C283.98 348.692 283.862 348.811 283.625 349.048C283.506 349.285 283.151 349.403 282.795 349.64C282.44 349.877 282.085 349.995 281.729 350.114C281.374 350.232 280.9 350.232 280.544 350.232C280.071 350.232 279.715 350.114 279.241 349.995C278.886 350.232 278.53 350.114 278.057 349.877ZM279.004 347.744C278.767 347.863 278.649 347.981 278.649 348.1C278.53 348.218 278.53 348.337 278.53 348.455C278.53 348.574 278.53 348.692 278.649 348.692C278.649 348.811 278.767 348.811 278.886 348.929L281.018 347.744C280.9 347.744 280.781 347.626 280.663 347.626C280.544 347.626 280.426 347.507 280.189 347.507C280.071 347.507 279.834 347.507 279.715 347.507C279.36 347.626 279.241 347.626 279.004 347.744Z" fill="#FAFAFA"/>
<path d="M282.914 344.783C282.914 344.546 282.914 344.427 283.032 344.19C283.151 344.072 283.269 343.835 283.506 343.716C283.862 343.479 284.336 343.361 284.691 343.242C285.047 343.242 285.52 343.124 285.876 343.242C285.876 343.124 285.876 343.006 285.876 342.887C285.876 342.769 285.994 342.65 285.994 342.532C286.113 342.413 286.113 342.295 286.231 342.176C286.35 342.058 286.468 341.939 286.587 341.939C286.942 341.702 287.298 341.584 287.653 341.584C288.008 341.465 288.364 341.465 288.719 341.584C289.075 341.584 289.43 341.702 289.667 341.821C290.022 341.939 290.259 342.058 290.615 342.295L293.103 343.716C293.221 343.716 293.221 343.835 293.221 343.835C293.221 343.835 293.221 343.953 293.103 343.953L292.392 344.309C292.273 344.309 292.273 344.309 292.155 344.309C292.036 344.309 291.918 344.309 291.918 344.309L289.43 342.887C288.956 342.65 288.601 342.532 288.245 342.532C287.89 342.532 287.653 342.65 287.298 342.769C287.061 342.887 286.942 343.124 286.942 343.242C286.942 343.479 287.061 343.598 287.534 343.835L290.022 345.257C290.141 345.257 290.141 345.375 290.141 345.375C290.141 345.375 290.141 345.493 290.022 345.493L289.312 345.849C289.193 345.849 289.193 345.849 289.075 345.849C288.956 345.849 288.838 345.849 288.838 345.73L286.35 344.309C285.876 344.072 285.52 343.953 285.165 343.953C284.81 343.953 284.573 344.072 284.217 344.19C283.98 344.309 283.862 344.546 283.862 344.664C283.862 344.901 284.099 345.138 284.454 345.375L286.942 346.797C287.061 346.797 287.061 346.915 287.061 346.915C287.061 346.915 287.061 347.034 286.942 347.034L286.231 347.389C286.113 347.389 286.113 347.389 285.994 347.389C285.876 347.389 285.757 347.389 285.757 347.389L281.374 344.901C281.255 344.901 281.255 344.783 281.255 344.783C281.255 344.783 281.255 344.664 281.374 344.664L282.085 344.309C282.203 344.309 282.203 344.309 282.322 344.309C282.44 344.309 282.559 344.309 282.559 344.309L282.914 344.783Z" fill="#FAFAFA"/>
<path d="M290.97 340.992C290.852 340.873 290.733 340.755 290.733 340.636C290.733 340.518 290.615 340.399 290.733 340.162C290.733 340.044 290.852 339.807 290.97 339.57C291.089 339.333 291.326 339.214 291.681 338.977C292.037 338.741 292.273 338.622 292.629 338.504C292.984 338.385 293.34 338.385 293.695 338.385C294.051 338.385 294.406 338.385 294.761 338.504C295.117 338.622 295.472 338.741 295.709 338.859L298.434 340.399C298.553 340.399 298.553 340.518 298.553 340.518C298.553 340.518 298.553 340.636 298.434 340.636L297.723 340.992C297.605 340.992 297.605 340.992 297.486 340.992C297.368 340.992 297.249 340.992 297.249 340.873L296.894 340.755C296.894 340.992 296.894 341.11 296.775 341.347C296.657 341.584 296.42 341.821 296.065 341.939C295.828 342.058 295.472 342.176 295.235 342.295C294.998 342.413 294.643 342.413 294.406 342.413C294.169 342.413 293.814 342.413 293.577 342.295C293.34 342.295 293.103 342.176 292.866 342.058C292.392 341.821 292.273 341.584 292.273 341.228C292.392 340.873 292.629 340.636 292.984 340.281L294.288 339.214C294.051 339.096 293.814 338.977 293.458 339.096C293.221 339.096 292.866 339.214 292.629 339.333C292.51 339.451 292.392 339.451 292.273 339.57C292.273 339.688 292.155 339.688 292.155 339.807C292.155 339.925 292.155 339.925 292.155 339.925L292.037 340.044L291.207 340.518C291.089 340.518 291.089 340.518 290.97 340.518C291.089 341.11 291.089 341.11 290.97 340.992ZM295.235 341.584C295.472 341.465 295.591 341.347 295.709 341.228C295.828 341.11 295.828 340.992 295.828 340.873C295.828 340.755 295.828 340.636 295.709 340.518C295.591 340.399 295.591 340.281 295.354 340.281H295.235L294.169 341.11C293.932 341.228 293.814 341.465 293.814 341.584C293.814 341.702 293.814 341.821 293.932 341.821C294.051 341.939 294.169 341.939 294.406 341.821C294.761 341.821 294.998 341.702 295.235 341.584Z" fill="#FAFAFA"/>
<path d="M294.406 335.66C294.524 335.66 294.524 335.66 294.643 335.66C294.761 335.66 294.88 335.66 294.88 335.66L295.591 336.134C295.709 336.134 295.709 336.253 295.709 336.253C295.709 336.253 295.709 336.371 295.591 336.371L294.761 336.845C294.643 336.845 294.643 336.845 294.524 336.845C294.406 336.845 294.287 336.845 294.287 336.845L293.576 336.371C293.458 336.371 293.458 336.253 293.458 336.253C293.458 336.253 293.458 336.134 293.576 336.134L294.406 335.66ZM300.922 339.214C301.04 339.214 301.04 339.333 301.04 339.333C301.04 339.333 301.04 339.451 300.922 339.451L300.211 339.807C300.093 339.807 300.093 339.807 299.974 339.925C299.856 339.925 299.737 339.925 299.737 339.807L295.354 337.319C295.235 337.319 295.235 337.2 295.235 337.2C295.235 337.2 295.235 337.082 295.354 337.082L296.064 336.726C296.183 336.726 296.183 336.726 296.301 336.726C296.42 336.726 296.538 336.726 296.538 336.845L300.922 339.214Z" fill="#FAFAFA"/>
<path d="M303.41 337.793C303.528 337.793 303.528 337.911 303.528 337.911C303.528 337.911 303.528 338.03 303.41 338.03L302.699 338.385C302.581 338.385 302.581 338.385 302.462 338.385C302.344 338.385 302.225 338.385 302.225 338.385L296.183 334.831C296.064 334.831 296.064 334.712 296.064 334.712C296.064 334.712 296.064 334.594 296.183 334.594L296.894 334.239C297.012 334.239 297.012 334.239 297.131 334.239C297.249 334.239 297.368 334.239 297.368 334.239L303.41 337.793Z" fill="#FAFAFA"/>
<path d="M266.565 365.989L358.737 312.795C359.921 312.084 361.58 312.084 362.409 312.558C363.357 313.032 363.12 314.098 362.054 314.69L269.882 367.885C268.697 368.596 267.039 368.596 266.209 368.122C265.261 367.648 265.38 366.7 266.565 365.989Z" fill="#FAFAFA"/>
<path d="M272.962 369.78L365.134 316.586C366.319 315.875 367.977 315.875 368.807 316.349C369.755 316.823 369.518 317.889 368.451 318.482L276.279 371.676C275.095 372.387 273.436 372.387 272.607 371.913C271.659 371.321 271.896 370.373 272.962 369.78Z" fill="#FAFAFA"/>
<path d="M136.244 404.256L88.0256 376.533L303.647 252.018L352.694 279.267L136.244 404.256Z" fill="#E0E0E0"/>
<path d="M123.212 231.049L328.17 112.694L336.345 117.433C338.477 118.618 340.255 121.698 340.255 124.067V275.357C340.255 277.845 338.477 280.807 336.345 281.992L139.087 395.963C136.955 397.148 133.519 397.148 131.387 395.963L127.003 393.475C124.871 392.29 123.094 389.21 123.094 386.841L123.212 231.049Z" fill="#14B86E"/>
<path opacity="0.2" d="M123.212 231.049L328.17 112.694L336.345 117.433C338.477 118.618 340.255 121.698 340.255 124.067V275.357C340.255 277.845 338.477 280.807 336.345 281.992L139.087 395.963C136.955 397.148 133.519 397.148 131.387 395.963L127.003 393.475C124.871 392.29 123.094 389.21 123.094 386.841L123.212 231.049Z" fill="black"/>
<path d="M327.104 99.425L327.933 98.9511L324.735 97.0555C324.498 96.937 324.142 96.7001 323.905 96.7001L233.629 63.2907C231.259 62.4614 228.179 63.4092 226.757 65.5417L125.818 212.922C124.397 215.055 123.212 218.846 123.212 221.334C123.212 225.599 123.212 231.167 123.212 231.167L126.292 232.944L328.17 112.694V102.861C328.17 101.676 327.815 100.491 327.104 99.425Z" fill="#14B86E"/>
<path opacity="0.1" d="M230.904 66.134C230.548 66.4894 230.193 66.8448 229.838 67.2002L128.899 214.581C128.188 215.647 127.477 217.187 127.003 218.846L123.923 217.069C124.16 216.358 124.397 215.528 124.752 214.818C124.752 214.818 124.752 214.818 124.752 214.699C124.871 214.344 124.989 214.107 125.226 213.751C125.226 213.751 125.226 213.633 125.344 213.633C125.463 213.277 125.7 213.041 125.937 212.685L226.876 65.3047C226.994 65.0677 227.231 64.8308 227.35 64.7123C227.468 64.5938 227.705 64.3569 227.942 64.2384L230.904 66.134Z" fill="black"/>
<path opacity="0.35" d="M327.815 98.951C327.578 98.8325 327.222 98.5956 326.985 98.4771L236.709 65.0677C234.813 64.3569 232.444 64.8308 230.785 66.134L227.705 64.3569C229.364 63.0537 231.615 62.5798 233.629 63.2906L323.905 96.7C324.142 96.8185 324.497 96.937 324.734 97.1739L327.815 98.951Z" fill="white"/>
<path d="M125.226 213.751C125.344 213.396 125.581 213.159 125.818 212.922C125.581 213.159 125.463 213.396 125.226 213.751Z" fill="#14B86E"/>
<path d="M227.231 64.8308C227.35 64.7124 227.587 64.4754 227.824 64.3569C227.587 64.4754 227.35 64.7124 227.231 64.8308Z" fill="#14B86E"/>
<path d="M123.923 217.069C124.16 216.239 124.397 215.528 124.752 214.818C124.397 215.528 124.16 216.239 123.923 217.069Z" fill="#14B86E"/>
<path d="M124.752 214.818C124.871 214.462 124.989 214.225 125.226 213.988C124.989 214.225 124.871 214.462 124.752 214.818Z" fill="#14B86E"/>
<path opacity="0.2" d="M125.107 213.87C125.107 213.87 125.107 213.751 125.226 213.751C125.226 213.751 125.226 213.87 125.107 213.87Z" fill="black"/>
<path opacity="0.2" d="M226.757 65.4232C226.876 65.1862 227.113 64.9493 227.231 64.8308C226.994 65.0678 226.876 65.1862 226.757 65.4232Z" fill="black"/>
<path d="M229.838 67.3188L128.899 214.699C127.477 216.832 126.292 220.623 126.292 223.111C126.292 227.376 126.292 232.944 126.292 232.944L331.369 114.589V104.756C331.369 102.268 329.473 99.4249 327.104 98.5956L236.827 65.1862C234.34 64.12 231.259 65.1862 229.838 67.3188Z" fill="#14B86E"/>
<path opacity="0.05" d="M331.369 104.756C331.369 103.572 330.895 102.387 330.303 101.321L127.121 218.964C126.647 220.386 126.411 221.926 126.411 223.111C126.411 227.376 126.411 232.944 126.411 232.944L331.487 114.59L331.369 104.756Z" fill="black"/>
<path d="M322.602 63.1722C322.602 62.1059 322.247 61.3951 321.654 61.0397C321.062 60.6842 315.967 57.7224 315.375 57.4855C314.783 57.1301 313.953 57.1301 313.006 57.7224L144.892 154.87C142.997 155.937 141.575 158.543 141.575 160.675V362.08C141.575 363.146 141.931 363.857 142.523 364.212C143.115 364.568 148.21 367.411 148.802 367.766C149.394 368.122 150.224 368.122 151.172 367.529L319.285 270.382C321.18 269.315 322.602 266.709 322.602 264.576V63.1722Z" fill="#14B86E"/>
<path opacity="0.95" d="M322.602 63.1722C322.602 62.1059 322.247 61.3951 321.654 61.0397C321.062 60.6842 315.967 57.7224 315.375 57.4855C314.783 57.1301 313.953 57.1301 313.006 57.7224L144.892 154.87C142.997 155.937 141.575 158.543 141.575 160.675V362.08C141.575 363.146 141.931 363.857 142.523 364.212C143.115 364.568 148.21 367.411 148.802 367.766C149.394 368.122 150.224 368.122 151.172 367.529L319.285 270.382C321.18 269.315 322.602 266.709 322.602 264.576V63.1722Z" fill="white"/>
<path d="M151.053 367.411L319.166 270.263C321.062 269.197 322.483 266.59 322.483 264.458V63.0537C322.483 60.9212 320.943 60.0919 319.166 61.1582L151.053 158.306C149.157 159.372 147.736 161.979 147.736 164.111V365.515C147.736 367.648 149.276 368.477 151.053 367.411Z" fill="#14B86E"/>
<path opacity="0.8" d="M151.053 367.411L319.166 270.263C321.062 269.197 322.483 266.59 322.483 264.458V63.0537C322.483 60.9212 320.943 60.0919 319.166 61.1582L151.053 158.306C149.157 159.372 147.736 161.979 147.736 164.111V365.515C147.736 367.648 149.276 368.477 151.053 367.411Z" fill="white"/>
<path d="M147.736 365.515C147.736 366.463 147.973 367.174 148.565 367.529C147.499 366.937 143.115 364.331 142.523 364.094C141.931 363.738 141.575 363.027 141.575 361.961V160.439C141.575 159.372 141.931 158.188 142.523 157.121L148.802 160.676C148.21 161.742 147.854 162.927 147.854 163.993V365.515H147.736Z" fill="#14B86E"/>
<path opacity="0.7" d="M147.736 365.515C147.736 366.463 147.973 367.174 148.565 367.529C147.499 366.937 143.115 364.331 142.523 364.094C141.931 363.738 141.575 363.027 141.575 361.961V160.439C141.575 159.372 141.931 158.188 142.523 157.121L148.802 160.676C148.21 161.742 147.854 162.927 147.854 163.993V365.515H147.736Z" fill="white"/>
<path opacity="0.05" d="M147.736 365.515C147.736 366.463 147.973 367.174 148.565 367.529C147.499 366.937 143.115 364.331 142.523 364.094C141.931 363.738 141.575 363.027 141.575 361.961V160.439C141.575 159.372 141.931 158.188 142.523 157.121L148.802 160.676C148.21 161.742 147.854 162.927 147.854 163.993V365.515H147.736Z" fill="black"/>
<path d="M209.105 213.278C208.394 231.996 209.579 272.159 209.579 272.159C209.579 272.159 229.482 278.201 242.988 275.95C256.494 273.699 285.401 253.203 285.401 253.203L280.544 209.723L209.105 213.278Z" fill="#37474F"/>
<path d="M255.191 271.448L258.39 240.882C271.066 233.3 275.213 222.874 275.213 222.874C263.721 237.92 251.637 235.551 251.637 235.551V273.106C252.821 272.633 254.006 272.04 255.191 271.448Z" fill="#263238"/>
<path d="M288.482 156.884C291.681 140.535 293.102 118.855 279.004 114.945C275.331 113.879 265.853 114.59 265.853 114.59L250.57 115.3C242.04 116.367 230.075 118.025 226.994 118.855C218.82 120.869 216.332 134.256 212.659 163.993C210.408 182.593 208.394 197.165 208.394 215.292C223.44 228.798 270.355 223.466 281.018 214.699C281.492 194.203 282.677 186.621 288.482 156.884Z" fill="#455A64"/>
<path d="M247.964 109.732C247.846 112.694 251.281 117.788 256.494 121.224C261.707 124.778 266.209 126.2 266.801 127.622C264.313 128.096 262.062 129.28 260.167 133.545C258.39 137.573 258.39 137.81 252.348 133.545C246.305 129.28 240.856 119.684 240.856 116.485C240.856 113.286 245.595 107.007 247.964 107.6V109.732Z" fill="#37474F"/>
<path d="M266.801 127.74C268.578 125.845 270.237 120.987 270.474 118.855C270.711 116.722 271.303 111.272 271.303 111.272C271.303 111.272 272.725 111.628 273.436 112.576C274.147 113.523 277.345 120.276 277.227 123.949C277.108 127.622 276.279 132.716 274.976 134.848C273.673 136.981 272.843 133.19 272.014 131.768C270.948 129.873 269.526 127.74 266.801 127.74Z" fill="#37474F"/>
<path d="M264.432 132.005C264.432 132.005 264.669 145.393 263.484 152.619C263.484 152.619 267.512 153.33 271.422 152.382C271.422 152.382 269.407 154.87 261.825 153.804C261.944 153.686 264.195 139.706 264.432 132.005Z" fill="#37474F"/>
<path d="M296.183 70.0436C296.064 58.3148 286.349 48.837 274.502 49.0739C263.484 49.1924 254.599 57.7225 253.651 68.5035L243.936 61.6321C243.936 61.6321 240.382 61.0397 237.657 63.8831C235.051 66.7264 236.591 75.2565 240.145 83.668C240.145 83.668 243.581 98.9511 245.002 101.439C246.306 103.927 249.031 104.638 249.031 104.638L248.675 95.2784L287.416 92.5535L283.625 89.8286C291.207 86.2745 296.42 78.6922 296.183 70.0436Z" fill="#263238"/>
<path d="M248.319 84.142C247.135 84.8529 245.95 82.3649 243.699 80.9432C241.803 79.7585 237.538 77.8629 234.695 82.4834C231.615 87.5777 237.183 94.5676 240.974 95.9893C246.661 98.1218 248.675 93.6199 248.675 93.6199L247.49 117.314C255.191 131.413 278.175 130.465 270.355 118.736L271.303 109.614C271.303 109.614 277.464 110.443 280.426 109.969C285.402 109.14 288.482 105.112 289.903 99.7805C292.154 91.1319 292.984 84.142 290.733 67.2004C288.245 48.6001 266.564 48.7186 255.072 56.3009C243.462 63.8831 248.319 84.142 248.319 84.142Z" fill="#FFA8A7"/>
<path d="M295.472 49.9033C293.932 49.074 292.036 48.9555 290.259 49.3109C290.615 46.586 288.837 43.9796 286.468 42.9134C283.625 41.6102 281.018 42.0841 278.412 43.9796C278.886 42.0841 277.227 40.1885 275.331 39.7146C273.436 39.2407 271.422 39.9515 269.645 40.6624C266.92 41.7286 264.195 42.9134 261.47 43.7427C256.613 45.4013 251.4 46.3491 247.016 48.9555C245.95 49.5479 245.002 50.2587 244.292 51.325C243.344 52.7466 242.988 54.4053 243.107 56.1824C243.107 56.7747 243.225 57.2486 243.344 57.841C242.988 57.4856 242.633 57.1301 242.159 56.8932C240.027 55.8269 237.539 56.6562 236.591 58.7888L243.936 62.5799C243.699 64.0016 243.581 65.5417 243.462 66.9634C243.107 70.873 242.278 75.375 243.225 79.2846C243.344 79.7585 243.344 80.2324 243.699 80.5878C243.699 80.5878 245.595 82.0095 247.49 84.2605C248.083 84.9713 248.794 86.0376 249.623 86.393C250.571 86.6299 251.874 86.156 252.111 85.2082C252.348 84.6159 252.229 84.0235 252.229 83.4311C251.992 81.0617 251.755 78.5738 251.518 76.2043C251.4 75.6119 251.4 74.9011 251.637 74.3087C251.992 73.4794 252.703 73.0055 253.414 72.4132C255.073 70.9915 256.139 68.859 256.257 66.608C256.257 65.8971 256.257 65.1863 256.494 64.5939C256.613 64.12 257.087 63.2907 257.679 63.2907C258.864 63.2907 264.906 64.5939 266.446 64.8309C274.502 65.8971 283.151 66.1341 290.141 62.2245C292.866 60.6843 297.604 57.4856 298.078 54.0498C298.197 52.6282 297.131 50.8511 295.472 49.9033Z" fill="#263238"/>
<path d="M271.422 109.732C271.422 109.732 260.285 107.718 256.376 105.704C253.769 104.401 251.637 102.031 250.926 100.491C250.926 100.491 251.755 103.809 254.006 106.652C256.85 110.206 270.948 112.694 270.948 112.694L271.422 109.732Z" fill="#F28F8F"/>
<path d="M270.948 82.128C270.948 83.3127 270 84.2605 268.934 84.2605C267.749 84.2605 266.801 83.3127 266.801 82.128C266.801 80.9433 267.749 79.9955 268.815 79.9955C270 79.9955 270.948 80.9433 270.948 82.128Z" fill="#263238"/>
<path d="M266.92 74.4273L262.062 76.7967C261.47 75.3751 262.062 73.7164 263.365 73.1241C264.669 72.4132 266.327 73.0056 266.92 74.4273Z" fill="#263238"/>
<path d="M267.038 95.16L275.805 98.3588C274.976 100.847 272.369 102.268 269.882 101.321C267.512 100.373 266.209 97.648 267.038 95.16Z" fill="#B16668"/>
<path d="M272.606 101.439C272.251 98.9511 270 97.174 267.512 97.5294C267.275 97.5294 267.157 97.6479 266.92 97.6479C267.275 99.3065 268.341 100.728 270 101.321C270.829 101.558 271.659 101.557 272.606 101.439Z" fill="#F28F8F"/>
<path d="M290.022 75.9674L285.283 73.4794C285.875 72.1762 287.534 71.7024 288.837 72.4132C290.14 73.124 290.733 74.6642 290.022 75.9674Z" fill="#263238"/>
<path d="M287.652 81.7726C287.652 82.9574 286.705 83.9052 285.638 83.9052C284.454 83.9052 283.506 82.9574 283.506 81.7726C283.506 80.5879 284.454 79.6401 285.52 79.6401C286.705 79.6401 287.652 80.5879 287.652 81.7726Z" fill="#263238"/>
<path d="M276.99 80.4694L277.464 93.9753L285.402 92.0797L276.99 80.4694Z" fill="#F28F8F"/>
<path d="M335.042 277.371C334.923 277.49 334.923 277.608 334.805 277.727L249.386 250.597C242.633 247.635 234.814 250.004 230.904 256.283L139.561 392.053L136.126 393.949C135.059 394.541 134.23 394.541 133.519 394.186L227.468 254.388C231.378 248.109 239.197 245.739 245.95 248.701L335.042 277.371Z" fill="#14B86E"/>
<path opacity="0.4" d="M222.493 269.552L222.729 269.315L139.561 391.935L136.126 393.83C135.059 394.423 134.23 394.423 133.519 394.067L219.175 267.42L222.493 269.552Z" fill="white"/>
<path opacity="0.4" d="M335.042 277.371C334.923 277.49 334.923 277.608 334.805 277.727L249.386 250.596C242.633 247.635 234.813 250.004 230.904 256.283L227.468 254.269C231.378 248.109 239.197 245.621 245.95 248.582L335.042 277.371Z" fill="white"/>
<path d="M340.136 123.12C339.899 122.053 339.307 121.698 338.596 122.172C338.359 122.409 338.004 122.764 337.648 123.238L337.174 123.83L252.822 252.018L240.263 269.552C238.842 271.566 235.761 272.751 233.273 272.159L222.374 269.552L139.443 238.986C138.851 238.868 138.258 238.868 137.784 238.868C137.547 238.868 137.31 238.986 137.192 239.105L140.272 237.328L219.768 266.472L230.193 270.263C232.563 270.855 235.643 269.671 237.183 267.657L249.741 250.123L334.686 121.343C334.923 120.987 335.279 120.632 335.634 120.513L328.289 116.248L331.369 114.471L336.464 117.433C338.241 118.499 339.781 120.869 340.136 123.12Z" fill="#14B86E"/>
<path opacity="0.4" d="M252.94 252.018L240.382 269.552C238.96 271.566 235.88 272.751 233.392 272.159L222.492 269.552L222.729 269.315L223.203 268.486L230.312 270.145C232.681 270.737 235.761 269.552 237.302 267.538L249.741 250.241L252.94 252.018Z" fill="white"/>
<path opacity="0.1" d="M336.345 117.433L331.251 114.471L328.17 116.248L335.516 120.513C335.16 120.75 334.805 120.987 334.568 121.343L249.86 250.123L249.741 250.241L252.821 251.9L337.174 123.712L337.648 123.12C338.004 122.646 338.359 122.29 338.596 122.053C339.307 121.579 339.899 121.816 340.136 123.001C339.781 120.869 338.241 118.499 336.345 117.433Z" fill="black"/>
<path d="M141.22 241.474L123.094 231.048V386.722C123.094 389.21 124.871 392.172 127.003 393.356L131.387 395.844C133.519 397.029 136.955 397.029 139.087 395.844L141.22 394.541V241.474Z" fill="#14B86E"/>
<path opacity="0.15" d="M141.22 241.474L123.094 231.048V386.722C123.094 389.21 124.871 392.172 127.003 393.356L131.387 395.844C133.519 397.029 136.955 397.029 139.087 395.844L141.22 394.541V241.474Z" fill="black"/>
<path d="M340.255 124.067V275.357C340.255 276.661 339.781 278.082 339.07 279.267C338.478 280.333 337.648 281.163 336.819 281.755L336.7 281.873C336.582 281.992 336.582 281.992 336.464 281.992L139.206 395.844C138.14 396.437 137.31 396.555 136.6 396.2C136.007 395.844 135.533 395.252 135.415 394.304C135.415 394.067 135.415 393.83 135.415 393.593V242.422C135.415 239.934 137.31 238.394 139.798 238.986L222.729 269.552L233.629 272.159C235.998 272.751 239.197 271.566 240.619 269.552L253.177 252.018L337.53 123.83L338.004 123.238C339.07 121.224 340.255 121.698 340.255 124.067Z" fill="#14B86E"/>
<path d="M336.463 281.992C336.582 281.992 336.582 281.873 336.7 281.873L336.819 281.755C337.648 281.163 338.477 280.215 339.07 279.267C339.781 278.082 340.254 276.661 340.254 275.476L252.94 252.137L311.465 296.564L336.463 281.992Z" fill="#14B86E"/>
<path opacity="0.2" d="M336.463 281.992C336.582 281.992 336.582 281.873 336.7 281.873L336.819 281.755C337.648 281.163 338.477 280.215 339.07 279.267C339.781 278.082 340.254 276.661 340.254 275.476L252.94 252.137L311.465 296.564L336.463 281.992Z" fill="black"/>
<path d="M135.296 393.712C135.296 395.015 135.77 395.844 136.481 396.2C137.192 396.555 138.139 396.437 139.087 395.844L206.972 356.63L222.492 269.552L135.178 391.106L135.296 393.712Z" fill="#14B86E"/>
<path opacity="0.15" d="M230.904 256.283L136.481 396.2C135.77 395.844 135.296 394.897 135.296 393.712V391.224L227.468 254.388L230.904 256.283Z" fill="black"/>
<path d="M339.07 279.267C338.478 280.333 337.648 281.163 336.819 281.755L336.701 281.873L139.087 395.963C138.021 396.555 137.192 396.674 136.481 396.318L231.023 256.283C234.932 250.004 242.87 247.635 249.623 250.597L339.07 279.267Z" fill="#14B86E"/>
<path opacity="0.15" d="M123.923 217.069L127.003 218.846C126.529 220.267 126.292 221.808 126.292 223.111C126.292 227.376 126.292 232.944 126.292 232.944L123.212 231.167C123.212 231.167 123.212 225.599 123.212 221.334C123.212 220.031 123.449 218.49 123.923 217.069Z" fill="black"/>
<path d="M140.39 237.328L137.31 239.223L134.111 237.328L126.292 232.826L129.372 231.048L140.39 237.328Z" fill="#14B86E"/>
<path opacity="0.1" d="M140.509 237.446L129.254 231.048L126.174 232.826L133.993 237.328L137.192 239.105C137.429 238.986 137.547 238.986 137.784 238.868C138.258 238.749 138.85 238.749 139.443 238.986L145.722 241.356L218.109 268.012L219.294 266.353L140.509 237.446Z" fill="black"/>
<path d="M226.994 118.855C216.924 119.565 210.053 121.935 203.537 137.573C199.39 147.644 182.922 183.778 181.382 189.82C179.487 196.81 175.34 250.241 175.34 250.241L184.936 253.795C184.936 253.795 181.619 265.287 178.894 271.803C175.696 279.386 191.334 277.727 196.31 270.855C201.286 263.984 204.721 254.743 201.997 251.544C198.324 247.279 194.414 244.554 194.414 244.554L204.958 196.928L226.994 150.131C226.876 150.131 237.894 127.029 226.994 118.855Z" fill="#FFA8A7"/>
<path d="M194.414 244.554C189.32 241.711 184.7 241.83 184.7 241.83C184.7 241.83 189.794 240.171 194.888 241.83L194.414 244.554Z" fill="#F28F8F"/>
<path d="M229.245 118.381C223.559 118.381 213.014 118.025 206.261 130.346C199.39 142.668 189.794 166.125 189.794 166.125C189.794 166.125 193.822 175.959 215.265 178.091L231.733 143.142C231.733 143.142 235.761 127.029 229.245 118.381Z" fill="#37474F"/>
<path d="M302.106 126.437C310.636 133.071 324.379 143.615 331.014 147.88C336.108 141.72 345.349 129.399 347.6 126.674C350.443 123.238 359.566 117.551 359.566 117.551L363.001 131.294C363.001 131.294 345.823 163.045 339.544 168.85C333.028 175.011 328.17 172.523 315.375 166.599C303.291 161.031 290.14 154.159 290.14 154.159C292.747 131.057 290.97 118.617 279.952 114.708C287.415 115.656 294.998 120.868 302.106 126.437Z" fill="#FFA8A7"/>
<path d="M324.261 143.26C319.877 144.445 310.636 157.477 312.295 165.77L288.956 154.278C291.799 138.402 292.391 118.736 279.004 114.945C278.056 114.708 276.634 114.471 275.094 114.471C281.729 113.76 286.112 113.997 293.221 119.328C300.092 124.423 324.261 143.26 324.261 143.26Z" fill="#37474F"/>
<path d="M331.014 147.88C327.696 150.842 326.63 156.055 325.919 158.188C325.919 158.188 325.208 152.027 329.118 146.577L331.014 147.88Z" fill="#F28F8F"/>
<path d="M363.594 102.268L371.65 97.4109C371.65 97.4109 372.597 140.535 372.597 141.957C372.597 143.378 374.256 144.682 374.256 144.682L366.2 149.539C366.2 149.539 364.541 148.117 364.541 146.814C364.423 145.392 363.594 102.268 363.594 102.268Z" fill="#37474F"/>
<path d="M371.887 115.419C371.887 115.419 374.138 116.011 375.085 119.565C375.915 123.12 376.388 129.991 374.374 132.242C372.36 134.493 369.517 135.441 367.621 134.611C364.186 133.071 365.252 126.081 367.977 124.423C372.479 121.816 371.887 118.973 371.887 118.973V115.419Z" fill="#FFA8A7"/>
<path d="M353.642 102.387L357.196 106.652L357.788 137.099L354.234 143.023L366.081 149.539C365.015 148.591 364.541 147.762 364.423 146.814L363.712 107.837L353.642 102.387Z" fill="#455A64"/>
<path d="M354.234 143.023L354.352 144.919L366.2 151.435V149.539L354.234 143.023Z" fill="#14B86E"/>
<path d="M366.2 151.435L374.256 146.577L374.137 144.682L366.2 149.539V151.435Z" fill="#14B86E"/>
<path opacity="0.1" d="M366.2 151.435L374.256 146.577L374.137 144.682L366.2 149.539V151.435Z" fill="black"/>
<path d="M356.011 81.1801C354.471 80.8247 352.694 81.4171 351.035 83.1942L350.917 83.3126C347.6 86.8668 346.059 93.5013 347.481 98.1218V98.2402C348.192 100.61 349.614 102.031 351.154 102.268L358.025 103.927L362.29 82.7203L356.011 81.1801Z" fill="#14B86E"/>
<path opacity="0.7" d="M356.011 81.1801C354.471 80.8247 352.694 81.4171 351.035 83.1942L350.917 83.3126C347.6 86.8668 346.059 93.5013 347.481 98.1218V98.2402C348.192 100.61 349.614 102.031 351.154 102.268L358.025 103.927L362.29 82.7203L356.011 81.1801Z" fill="white"/>
<path opacity="0.05" d="M351.272 102.268L358.144 103.927L359.565 96.9369L347.007 93.9751C347.007 95.3968 347.126 96.8185 347.481 98.1217V98.2401C348.311 100.61 349.614 102.031 351.272 102.268Z" fill="black"/>
<path d="M369.991 81.7724C368.214 81.417 366.2 82.0094 364.305 83.7865C364.068 84.0234 363.949 84.1419 363.712 84.3789C363.475 84.6158 363.238 84.8527 363.001 85.2082C362.646 85.6821 362.291 86.1559 361.935 86.6298C361.343 87.5776 360.869 88.5254 360.395 89.5917C359.21 92.435 358.618 95.6338 358.618 98.5956C358.618 100.136 358.855 101.557 359.329 102.861C360.158 105.704 361.817 107.363 363.594 107.955L356.959 106.415C354.59 105.822 352.576 103.927 351.746 101.202C351.391 99.8988 351.154 98.5956 351.154 97.0555C351.036 93.9752 351.628 90.6579 352.813 87.8146C353.287 86.7483 353.76 85.8005 354.353 84.8527C354.708 84.3789 355.064 83.905 355.419 83.4311C355.656 83.1941 355.893 82.8387 356.13 82.6018C356.367 82.3648 356.485 82.2463 356.722 82.0094C358.618 80.3508 360.987 79.7584 363.12 80.2323H363.357C363.475 80.2323 363.475 80.2323 363.594 80.2323L369.991 81.7724Z" fill="#14B86E"/>
<path opacity="0.1" d="M357.314 106.415C354.945 105.704 352.931 103.927 352.102 101.202C351.746 99.8988 351.509 98.5956 351.509 97.0554L358.973 98.5956C358.973 100.136 359.21 101.557 359.684 102.861C360.513 105.704 362.172 107.363 363.949 107.955L357.314 106.415Z" fill="black"/>
<path d="M374.493 86.8668C376.27 92.672 374.374 100.965 370.228 105.349C368.095 107.6 365.844 108.429 363.949 107.955H363.83C361.935 107.481 360.395 105.704 359.565 102.861C357.788 97.0555 359.684 88.7624 363.83 84.3789C365.844 82.1279 368.095 81.2986 370.109 81.7725C372.005 82.2464 373.664 84.0235 374.493 86.8668Z" fill="#14B86E"/>
<path opacity="0.2" d="M374.493 86.8668C376.27 92.672 374.374 100.965 370.228 105.349C368.095 107.6 365.844 108.429 363.949 107.955H363.83C361.935 107.481 360.395 105.704 359.565 102.861C357.788 97.0555 359.684 88.7624 363.83 84.3789C365.844 82.1279 368.095 81.2986 370.109 81.7725C372.005 82.2464 373.664 84.0235 374.493 86.8668Z" fill="black"/>
<path d="M401.979 76.915C401.979 76.915 394.278 84.3788 390.487 100.373C389.776 103.453 389.302 106.415 389.065 109.021C388.117 119.921 390.368 126.437 390.368 126.437C385.629 120.513 380.061 114.708 372.834 111.035C368.332 108.784 364.067 107.363 364.067 107.363C362.29 107.007 360.869 105.349 360.039 102.742C359.565 100.965 359.328 99.0695 359.447 97.0555C359.565 95.7522 359.684 94.5675 360.039 93.2643C360.75 90.0655 362.29 86.9852 364.304 84.7343C366.2 82.7202 368.214 81.8909 369.991 82.3648C369.991 82.3648 374.493 82.8387 379.469 82.8387C387.525 82.9572 395.107 80.1138 401.979 76.915Z" fill="#14B86E"/>
<path opacity="0.7" d="M401.979 76.915C401.979 76.915 394.278 84.3788 390.487 100.373C389.776 103.453 389.302 106.415 389.065 109.021C388.117 119.921 390.368 126.437 390.368 126.437C385.629 120.513 380.061 114.708 372.834 111.035C368.332 108.784 364.067 107.363 364.067 107.363C362.29 107.007 360.869 105.349 360.039 102.742C359.565 100.965 359.328 99.0695 359.447 97.0555C359.565 95.7522 359.684 94.5675 360.039 93.2643C360.75 90.0655 362.29 86.9852 364.304 84.7343C366.2 82.7202 368.214 81.8909 369.991 82.3648C369.991 82.3648 374.493 82.8387 379.469 82.8387C387.525 82.9572 395.107 80.1138 401.979 76.915Z" fill="white"/>
<path opacity="0.05" d="M389.065 109.021C388.117 119.921 390.368 126.437 390.368 126.437C385.629 120.513 380.061 114.708 372.834 111.035C368.332 108.784 364.067 107.363 364.067 107.363C362.29 107.007 360.869 105.349 360.039 102.742C359.565 100.965 359.328 99.0695 359.447 97.0554C367.503 98.4771 380.772 101.439 389.065 109.021Z" fill="black"/>
<path d="M423.186 84.7343C425.081 90.7764 425.2 98.0033 423.896 104.993C422.356 113.997 418.447 122.883 412.878 128.806C403.045 139.35 391.672 136.744 387.407 122.883C386.459 119.684 385.985 116.248 385.867 112.694C385.63 103.808 387.999 94.2121 392.264 86.5114C392.856 85.4451 393.449 84.3789 394.16 83.3126C394.397 82.8387 394.752 82.4833 394.989 82.1279C395.344 81.5355 395.818 80.9431 396.292 80.4693C396.766 79.8769 397.24 79.403 397.714 78.8106C407.666 68.2665 419.039 70.8729 423.186 84.7343Z" fill="#14B86E"/>
<path opacity="0.1" d="M424.015 104.993C422.475 113.997 418.565 122.883 412.997 128.806C403.163 139.35 391.79 136.744 387.525 122.883C386.577 119.684 386.103 116.248 385.985 112.694C387.288 114.234 391.079 115.893 391.79 113.76C391.909 116.959 392.382 120.039 393.212 122.883C394.396 126.792 396.292 129.754 398.543 131.413C400.557 132.716 402.808 133.071 405.178 132.36C407.547 131.65 410.035 129.872 412.404 127.385C417.143 122.29 420.579 114.826 422.238 107.007C422.238 106.77 423.185 107.244 424.015 104.993Z" fill="black"/>
<path d="M422.001 85.919C423.896 91.9612 423.778 99.5434 422.238 106.77C420.579 114.59 417.143 122.172 412.405 127.148C410.035 129.636 407.547 131.413 405.178 132.124C402.69 132.834 400.557 132.597 398.543 131.176C396.292 129.636 394.397 126.674 393.212 122.646C392.383 119.921 391.909 116.841 391.79 113.523C391.79 112.339 391.79 111.035 391.79 109.851C391.909 107.718 392.146 105.467 392.62 103.335C392.738 102.861 392.738 102.387 392.857 102.031C392.975 101.321 393.212 100.491 393.33 99.7804C393.923 97.2925 394.752 94.8045 395.818 92.4351C395.818 92.4351 395.818 92.4351 395.818 92.3166C396.529 90.7764 397.24 89.2363 397.951 87.8146C398.543 86.7484 399.136 85.8006 399.728 84.8528C399.965 84.4974 400.32 84.1419 400.557 83.6681C400.913 83.1942 401.268 82.8387 401.624 82.3649C401.979 82.0094 402.334 81.5355 402.69 81.1801C405.059 78.6922 407.547 76.9151 409.917 76.2043C415.248 74.9011 419.75 78.4552 422.001 85.919Z" fill="#14B86E"/>
<path opacity="0.3" d="M422.001 85.919C423.896 91.9612 423.778 99.5434 422.238 106.77C420.579 114.59 417.143 122.172 412.405 127.148C410.035 129.636 407.547 131.413 405.178 132.124C402.69 132.834 400.557 132.597 398.543 131.176C396.292 129.636 394.397 126.674 393.212 122.646C392.383 119.921 391.909 116.841 391.79 113.523C391.79 112.339 391.79 111.035 391.79 109.851C391.909 107.718 392.146 105.467 392.62 103.335C392.738 102.861 392.738 102.387 392.857 102.031C392.975 101.321 393.212 100.491 393.33 99.7804C393.923 97.2925 394.752 94.8045 395.818 92.4351C395.818 92.4351 395.818 92.4351 395.818 92.3166C396.529 90.7764 397.24 89.2363 397.951 87.8146C398.543 86.7484 399.136 85.8006 399.728 84.8528C399.965 84.4974 400.32 84.1419 400.557 83.6681C400.913 83.1942 401.268 82.8387 401.624 82.3649C401.979 82.0094 402.334 81.5355 402.69 81.1801C405.059 78.6922 407.547 76.9151 409.917 76.2043C415.248 74.9011 419.75 78.4552 422.001 85.919Z" fill="black"/>
<path d="M404.585 94.923L401.268 111.391C398.898 111.272 394.87 111.035 391.671 111.154C391.671 110.798 391.671 110.324 391.671 109.969C391.79 107.837 392.027 105.586 392.501 103.453C392.619 102.979 392.619 102.505 392.738 102.15C392.856 101.439 393.093 100.61 393.212 99.8988C393.804 97.4109 394.633 94.923 395.699 92.5535C395.699 92.5535 395.699 92.5535 395.699 92.435C395.818 92.0796 395.936 91.7242 396.173 91.3688C400.083 93.5013 404.585 94.923 404.585 94.923Z" fill="#14B86E"/>
<g opacity="0.4">
<path opacity="0.4" d="M404.585 94.923L401.268 111.391C398.898 111.272 394.87 111.035 391.671 111.154C391.671 110.798 391.671 110.324 391.671 109.969C391.79 107.837 392.027 105.586 392.501 103.453C392.619 102.979 392.619 102.505 392.738 102.15C392.856 101.439 393.093 100.61 393.212 99.8988C393.804 97.4109 394.633 94.923 395.699 92.5535C395.699 92.5535 395.699 92.5535 395.699 92.435C395.818 92.0796 395.936 91.7242 396.173 91.3688C400.083 93.5013 404.585 94.923 404.585 94.923Z" fill="white"/>
</g>
<path d="M401.979 111.154C400.32 111.628 398.78 110.561 398.069 108.31V108.192C397.003 104.519 398.188 99.3065 400.794 96.4631C401.505 95.7523 402.216 95.1599 402.926 95.0415C404.585 94.5676 406.125 95.6338 406.836 97.8848V98.0033C407.902 101.676 406.718 106.889 404.111 109.732C403.4 110.443 402.69 111.035 401.979 111.154Z" fill="#14B86E"/>
<g opacity="0.7">
<path opacity="0.7" d="M401.979 111.154C400.32 111.628 398.78 110.561 398.069 108.31V108.192C397.003 104.519 398.188 99.3065 400.794 96.4631C401.505 95.7523 402.216 95.1599 402.926 95.0415C404.585 94.5676 406.125 95.6338 406.836 97.8848V98.0033C407.902 101.676 406.718 106.889 404.111 109.732C403.4 110.443 402.69 111.035 401.979 111.154Z" fill="white"/>
</g>
<path d="M397.95 68.7403C397.003 68.9773 396.055 68.5034 395.699 67.5556L390.605 51.0879C390.368 50.1401 390.842 49.1923 391.79 48.8369C392.738 48.5999 393.685 49.0738 394.041 50.0216L399.135 66.4894C399.491 67.4371 398.898 68.5034 397.95 68.7403Z" fill="#E0E0E0"/>
<path d="M384.208 77.3888C383.615 77.6258 382.905 77.3888 382.431 77.0334L369.754 65.3046C369.043 64.5937 369.043 63.5275 369.636 62.8166C370.346 62.1058 371.413 62.1058 372.123 62.6982L384.8 74.427C385.511 75.1378 385.511 76.2041 384.919 76.9149C384.8 77.1519 384.445 77.2704 384.208 77.3888Z" fill="#E0E0E0"/>
<path d="M392.856 161.742C392.619 161.86 392.264 161.86 391.908 161.742C390.961 161.505 390.368 160.557 390.605 159.609L394.515 142.786C394.752 141.838 395.7 141.246 396.647 141.483C397.595 141.72 398.187 142.668 397.951 143.615L394.041 160.438C393.922 161.149 393.449 161.623 392.856 161.742Z" fill="#E0E0E0"/>
<path d="M424.133 154.633C423.185 154.87 422.238 154.396 421.882 153.449L416.788 136.981C416.551 136.033 417.025 135.085 417.973 134.73C418.92 134.493 419.868 134.967 420.224 135.915L425.318 152.382C425.673 153.33 425.081 154.278 424.133 154.633Z" fill="#E0E0E0"/>
<path d="M442.733 132.123C442.141 132.36 441.43 132.123 440.956 131.768L428.28 120.039C427.569 119.328 427.569 118.262 428.161 117.551C428.872 116.84 429.938 116.84 430.649 117.433L443.326 129.162C444.037 129.872 444.037 130.939 443.444 131.65C443.326 131.768 443.089 132.005 442.733 132.123Z" fill="#E0E0E0"/>
<path d="M454.581 109.85C454.344 109.969 453.988 109.969 453.633 109.85L436.81 105.941C435.862 105.704 435.27 104.756 435.507 103.808C435.744 102.861 436.691 102.268 437.639 102.505L454.462 106.415C455.41 106.652 456.002 107.599 455.765 108.547C455.647 109.14 455.173 109.614 454.581 109.85Z" fill="#E0E0E0"/>
<path d="M453.751 84.6157L437.165 89.7101C436.217 89.947 435.27 89.4731 434.914 88.5253C434.677 87.5776 435.151 86.6298 436.099 86.2744L452.567 81.18C453.514 80.9431 454.462 81.417 454.818 82.3647C455.173 83.3125 454.699 84.3788 453.751 84.6157Z" fill="#E0E0E0"/>
<path d="M428.635 75.8488C428.043 76.0858 427.332 75.8488 426.858 75.4934C426.147 74.7826 426.147 73.7163 426.739 73.0055L438.468 60.3289C439.179 59.618 440.245 59.618 440.956 60.2104C441.667 60.9212 441.667 61.9875 441.075 62.6983L429.346 75.3749C429.227 75.6119 428.872 75.7303 428.635 75.8488Z" fill="#E0E0E0"/>
<path d="M414.3 68.2665C414.063 68.3849 413.707 68.3849 413.352 68.2665C412.404 68.0295 411.812 67.0817 412.049 66.1339L415.958 49.3108C416.195 48.363 417.143 47.7706 418.091 48.0076C419.039 48.2445 419.631 49.1923 419.394 50.1401L415.485 66.9633C415.366 67.5556 414.892 68.0295 414.3 68.2665Z" fill="#E0E0E0"/>
<path d="M347.718 126.674C351.154 122.409 351.272 119.684 353.879 117.551C356.485 115.419 359.21 115.3 363.12 116.485C366.081 117.314 369.636 116.959 370.82 118.025C371.176 118.262 370.583 120.158 369.28 120.868C367.622 121.698 364.897 121.461 362.883 121.461C358.262 121.461 362.053 125.963 357.67 130.465C355.774 133.663 347.718 126.674 347.718 126.674Z" fill="#FFA8A7"/>
<path d="M452.33 195.27L494.269 168.376L512.633 174.3L452.33 195.27Z" fill="#14B86E"/>
<path d="M452.33 195.27L488.583 165.059L480.526 155.7L452.33 195.27Z" fill="#14B86E"/>
<path d="M488.583 165.059V172.049L452.33 195.27L488.583 165.059Z" fill="#14B86E"/>
<path opacity="0.25" d="M488.583 165.059V172.049L452.33 195.27L488.583 165.059Z" fill="black"/>
<path d="M497.113 160.912C496.757 160.912 496.402 160.794 496.165 160.557C495.691 160.083 495.81 159.372 496.283 158.898C496.994 158.306 497.705 157.595 498.416 157.003C498.89 156.529 499.601 156.529 500.075 157.003C500.548 157.477 500.548 158.187 500.075 158.661C499.364 159.372 498.653 160.083 497.824 160.675C497.705 160.912 497.35 160.912 497.113 160.912Z" fill="#E0E0E0"/>
<path d="M503.392 154.752C503.155 154.752 502.799 154.633 502.562 154.515C502.089 154.041 501.97 153.33 502.444 152.856C503.629 151.435 504.932 149.894 505.998 148.354C506.354 147.88 507.183 147.762 507.657 148.117C508.131 148.473 508.249 149.302 507.894 149.776C506.709 151.435 505.406 152.975 504.221 154.396C503.984 154.633 503.629 154.752 503.392 154.752ZM510.263 145.392C510.026 145.392 509.789 145.392 509.671 145.155C509.078 144.8 508.96 144.089 509.315 143.497C510.263 141.957 511.329 140.18 512.159 138.521C512.514 137.929 513.225 137.692 513.817 138.047C514.41 138.403 514.647 139.113 514.291 139.706C513.343 141.483 512.396 143.141 511.329 144.8C511.092 145.155 510.737 145.392 510.263 145.392ZM515.713 135.085C515.594 135.085 515.357 135.085 515.239 134.967C514.647 134.73 514.41 134.019 514.647 133.427C515.357 131.65 516.187 129.872 516.779 128.095C517.016 127.503 517.727 127.148 518.319 127.385C518.912 127.621 519.267 128.332 519.03 128.925C518.319 130.82 517.608 132.597 516.779 134.374C516.661 134.73 516.187 135.085 515.713 135.085ZM519.741 124.067C519.623 124.067 519.504 124.067 519.386 124.067C518.793 123.83 518.438 123.238 518.556 122.646C519.149 120.869 519.622 118.973 519.978 117.077C520.096 116.485 520.807 116.011 521.4 116.13C521.992 116.248 522.466 116.959 522.347 117.551C521.873 119.447 521.4 121.461 520.807 123.238C520.689 123.712 520.215 124.067 519.741 124.067ZM522.347 112.694C522.229 112.694 522.229 112.694 522.11 112.694C521.518 112.575 521.044 111.983 521.163 111.391C521.518 109.495 521.755 107.6 521.873 105.704C521.992 105.112 522.584 104.519 523.177 104.638C523.769 104.756 524.361 105.23 524.243 105.941C524.006 107.955 523.769 109.851 523.532 111.865C523.414 112.22 522.94 112.694 522.347 112.694ZM523.414 101.084C522.703 101.084 522.229 100.491 522.229 99.8988C522.229 98.951 522.229 98.1217 522.229 97.1739C522.229 96.1077 522.229 95.1599 522.229 94.0936C522.229 93.3828 522.703 92.9089 523.414 92.9089C524.124 92.9089 524.598 93.3828 524.598 94.0936C524.598 95.1599 524.598 96.2261 524.598 97.1739C524.598 98.1217 524.598 99.0695 524.598 100.017C524.598 100.491 524.124 101.084 523.414 101.084ZM523.058 89.3547C522.466 89.3547 521.992 88.8808 521.873 88.2884C521.637 86.3929 521.4 84.4973 521.044 82.6017C520.926 82.0094 521.4 81.2985 521.992 81.1801C522.703 81.0616 523.295 81.5355 523.414 82.1279C523.769 84.0234 524.006 86.0375 524.243 88.0515C524.361 88.6439 523.888 89.2362 523.177 89.3547C523.058 89.3547 523.058 89.3547 523.058 89.3547ZM521.044 77.8628C520.57 77.8628 519.978 77.5074 519.859 76.915C519.386 75.0195 518.793 73.2424 518.201 71.3468C517.964 70.7544 518.319 70.0436 518.912 69.8067C519.504 69.5697 520.215 69.9251 520.452 70.5175C521.044 72.4131 521.637 74.3086 522.11 76.2042C522.229 76.7966 521.873 77.5074 521.281 77.6259C521.163 77.8628 521.044 77.8628 521.044 77.8628ZM517.253 66.8448C516.779 66.8448 516.305 66.6079 516.187 66.134C515.476 64.3569 514.528 62.5798 513.699 60.9212C513.343 60.3288 513.58 59.618 514.173 59.2626C514.765 58.9071 515.476 59.1441 515.831 59.7365C516.779 61.5135 517.608 63.2906 518.438 65.0677C518.675 65.6601 518.438 66.3709 517.845 66.6079C517.608 66.7264 517.372 66.8448 517.253 66.8448ZM511.685 56.5377C511.329 56.5377 510.974 56.3007 510.737 55.9453C509.671 54.4052 508.604 52.7465 507.42 51.3249C507.064 50.851 507.064 50.0217 507.657 49.6662C508.131 49.3108 508.96 49.3108 509.315 49.9032C510.5 51.4433 511.685 53.102 512.87 54.7606C513.225 55.3529 513.106 56.0638 512.514 56.4192C512.159 56.4192 511.922 56.5377 511.685 56.5377ZM504.458 47.4153C504.103 47.4153 503.866 47.2968 503.629 47.0598C502.325 45.7566 500.904 44.335 499.482 43.0318C499.008 42.5579 499.008 41.847 499.364 41.3731C499.837 40.8992 500.548 40.8992 501.022 41.2547C502.562 42.5579 503.984 43.9795 505.287 45.4012C505.761 45.8751 505.761 46.5859 505.287 47.0598C505.05 47.2968 504.695 47.4153 504.458 47.4153ZM495.809 39.596C495.572 39.596 495.336 39.4776 495.099 39.3591C493.558 38.1744 492.018 36.9896 490.478 35.9234C489.886 35.568 489.767 34.8571 490.123 34.2648C490.478 33.6724 491.189 33.5539 491.781 33.9093C493.44 35.0941 494.98 36.2788 496.52 37.4635C496.994 37.8189 497.113 38.6483 496.757 39.1221C496.52 39.3591 496.165 39.596 495.809 39.596ZM486.213 32.8431C485.976 32.8431 485.739 32.8431 485.621 32.7246C483.962 31.7768 482.303 30.7106 480.645 29.8813C480.053 29.5258 479.816 28.815 480.171 28.2226C480.526 27.6303 481.237 27.3933 481.83 27.7487C483.607 28.6965 485.265 29.6443 486.924 30.7106C487.516 31.066 487.635 31.7768 487.279 32.3692C486.924 32.7246 486.569 32.8431 486.213 32.8431ZM475.906 27.2748C475.787 27.2748 475.551 27.2748 475.432 27.1564C473.655 26.3271 471.878 25.4978 470.101 24.7869C469.508 24.55 469.153 23.8391 469.508 23.2468C469.745 22.6544 470.456 22.299 471.049 22.6544C472.826 23.3652 474.721 24.1945 476.38 25.0239C476.972 25.2608 477.209 25.9716 476.972 26.564C476.735 27.0379 476.38 27.2748 475.906 27.2748ZM356.248 24.4315C355.774 24.4315 355.3 24.0761 355.182 23.6022C354.945 23.0098 355.3 22.299 355.893 22.062C357.788 21.3512 359.565 20.7588 361.461 20.1665C362.053 19.9295 362.764 20.2849 363.001 20.8773C363.238 21.4697 362.883 22.1805 362.29 22.4175C360.513 23.0098 358.618 23.6022 356.841 24.313C356.485 24.313 356.367 24.4315 356.248 24.4315ZM465.125 22.7729C465.006 22.7729 464.888 22.7729 464.769 22.6544C462.992 21.9436 461.097 21.3512 459.32 20.7588C458.727 20.5219 458.372 19.9295 458.49 19.2187C458.727 18.6263 459.32 18.2709 460.031 18.3894C461.926 18.9817 463.822 19.5741 465.599 20.2849C466.191 20.5219 466.547 21.2327 466.31 21.8251C466.073 22.5359 465.599 22.7729 465.125 22.7729ZM367.385 20.7588C366.911 20.7588 366.437 20.4034 366.2 19.9295C365.963 19.3372 366.437 18.6263 367.029 18.5078C368.925 17.9155 370.82 17.4416 372.716 16.9677C373.308 16.8492 374.019 17.2046 374.138 17.797C374.256 18.3894 373.901 19.1002 373.308 19.2187C371.413 19.6926 369.517 20.1665 367.74 20.7588C367.622 20.7588 367.503 20.7588 367.385 20.7588ZM453.988 19.2187C453.87 19.2187 453.751 19.2187 453.633 19.2187C451.856 18.7448 449.96 18.2709 448.065 17.797C447.472 17.6785 446.999 16.9677 447.117 16.3753C447.235 15.783 447.828 15.3091 448.539 15.4275C450.434 15.9014 452.448 16.3753 454.225 16.8492C454.818 16.9677 455.173 17.6785 455.055 18.2709C454.936 18.9817 454.462 19.2187 453.988 19.2187ZM378.758 17.9155C378.166 17.9155 377.692 17.5601 377.573 16.9677C377.455 16.3753 377.81 15.6645 378.521 15.546C380.417 15.1906 382.431 14.7167 384.326 14.3613C385.037 14.2428 385.629 14.7167 385.748 15.3091C385.866 15.9014 385.393 16.6123 384.8 16.7307C382.905 17.0862 381.009 17.4416 379.113 17.9155C378.877 17.9155 378.758 17.9155 378.758 17.9155ZM442.615 16.7307C442.497 16.7307 442.497 16.7307 442.378 16.7307C440.482 16.3753 438.587 16.0199 436.691 15.783C436.099 15.6645 435.625 15.0721 435.744 14.4798C435.862 13.8874 436.454 13.4135 437.047 13.532C439.061 13.7689 440.956 14.1243 442.852 14.4798C443.444 14.5982 443.918 15.1906 443.8 15.9014C443.681 16.2569 443.089 16.7307 442.615 16.7307ZM390.25 15.9014C389.658 15.9014 389.184 15.4275 389.065 14.8352C388.947 14.2428 389.421 13.532 390.013 13.532C391.909 13.295 393.923 12.9396 395.818 12.8211C396.411 12.7027 397.003 13.1766 397.121 13.8874C397.24 14.4798 396.766 15.0721 396.055 15.1906C394.16 15.4275 392.264 15.6645 390.25 15.9014C390.25 15.9014 390.368 15.9014 390.25 15.9014ZM431.005 14.9537H430.886C428.991 14.7167 427.095 14.5982 425.081 14.4798C424.37 14.4798 423.896 13.8874 424.015 13.1766C424.015 12.4657 424.607 12.1103 425.318 12.1103C427.332 12.2288 429.228 12.4657 431.242 12.5842C431.834 12.7027 432.308 13.295 432.308 13.8874C432.071 14.5982 431.597 14.9537 431.005 14.9537ZM401.86 14.5982C401.268 14.5982 400.676 14.1243 400.676 13.532C400.676 12.8211 401.149 12.3472 401.742 12.2288C403.756 12.1103 405.651 11.9918 407.665 11.8734C408.376 11.7549 408.85 12.3472 408.85 13.0581C408.85 13.7689 408.376 14.2428 407.665 14.2428C405.77 14.3613 403.874 14.4798 401.86 14.5982ZM419.394 14.2428C419.276 14.2428 419.276 14.2428 419.394 14.2428C417.617 14.2428 415.959 14.1243 414.3 14.1243H413.589C412.997 14.1243 412.404 13.6505 412.404 12.9396C412.404 12.2288 412.878 11.7549 413.589 11.7549H414.3C415.959 11.7549 417.736 11.7549 419.394 11.8734C420.105 11.8734 420.579 12.4657 420.579 13.0581C420.461 13.6505 419.987 14.2428 419.394 14.2428Z" fill="#E0E0E0"/>
<path d="M347.955 27.6302C347.481 27.6302 347.007 27.3933 346.889 26.9194C346.652 26.327 346.889 25.6162 347.481 25.3792C348.429 25.0238 349.377 24.6684 350.206 24.313C350.799 24.076 351.509 24.4315 351.746 25.0238C351.983 25.6162 351.746 26.327 351.035 26.564C350.088 26.9194 349.258 27.2748 348.311 27.6302C348.192 27.5118 348.074 27.6302 347.955 27.6302Z" fill="#E0E0E0"/>
<path d="M84.1158 135.559L138.613 108.903L99.2804 146.222L84.1158 135.559Z" fill="#14B86E"/>
<path d="M138.613 108.903L78.5476 128.688L63.3831 118.025L138.613 108.903Z" fill="#14B86E"/>
<path d="M78.5477 128.688L80.9172 143.971L84.116 135.559L138.614 108.903L78.5477 128.688Z" fill="#14B86E"/>
<path opacity="0.25" d="M78.5477 128.688L80.9172 143.971L84.116 135.559L138.614 108.903L78.5477 128.688Z" fill="black"/>
<path d="M80.9172 143.971L89.2104 139.113L84.116 135.559L80.9172 143.971Z" fill="#14B86E"/>
<path opacity="0.25" d="M84.1158 135.559L89.2102 139.113L87.907 139.943L84.1158 135.559Z" fill="black"/>
<path d="M88.2625 295.498C88.144 295.498 88.0255 295.498 87.907 295.379C86.0115 294.668 84.1159 293.958 82.3388 293.247C81.7464 293.01 81.391 292.299 81.628 291.707C81.8649 291.114 82.5758 290.759 83.1681 290.996C84.9452 291.707 86.7223 292.417 88.6179 293.128C89.2103 293.365 89.5657 294.076 89.3287 294.668C89.2103 295.261 88.7364 295.498 88.2625 295.498ZM77.2445 291.114C77.126 291.114 76.8891 291.114 76.7706 290.996C74.875 290.166 73.0979 289.337 71.3208 288.508C70.7285 288.271 70.4915 287.56 70.7285 286.968C70.9654 286.375 71.6762 286.138 72.2686 286.375C74.0457 287.205 75.8228 288.034 77.5999 288.863C78.1923 289.1 78.4292 289.811 78.1923 290.403C78.0738 290.877 77.7184 291.114 77.2445 291.114ZM66.5819 285.901C66.345 285.901 66.2265 285.901 65.9895 285.783C64.2124 284.835 62.4354 283.769 60.7767 282.821C60.1844 282.466 60.0659 281.755 60.4213 281.163C60.7767 280.57 61.4876 280.452 62.0799 280.807C63.7386 281.873 65.3972 282.821 67.1743 283.769C67.7666 284.124 68.0036 284.835 67.6482 285.428C67.4112 285.665 67.0558 285.901 66.5819 285.901ZM56.5117 279.741C56.2748 279.741 56.0378 279.622 55.8009 279.504C54.1422 278.319 52.4836 277.134 50.9435 275.95C50.4696 275.594 50.3511 274.765 50.7065 274.291C51.0619 273.817 51.8913 273.699 52.3651 274.054C53.9053 275.239 55.4454 276.424 57.1041 277.49C57.6964 277.845 57.8149 278.556 57.341 279.148C57.341 279.504 56.8671 279.741 56.5117 279.741ZM47.2708 272.277C47.0339 272.277 46.6784 272.159 46.4415 271.922C44.9013 270.618 43.4797 269.197 42.1765 267.657C41.7026 267.183 41.7026 266.472 42.1765 265.998C42.6504 265.524 43.3612 265.524 43.8351 265.998C45.1383 267.42 46.56 268.723 47.9816 270.145C48.4555 270.618 48.4555 271.329 48.1001 271.803C47.9816 272.159 47.6262 272.277 47.2708 272.277ZM39.2146 263.747C38.8592 263.747 38.5038 263.629 38.2669 263.273C36.9637 261.733 35.7789 260.074 34.7127 258.416C34.3572 257.823 34.4757 257.113 35.0681 256.757C35.6605 256.402 36.3713 256.52 36.7267 257.113C37.793 258.653 38.9777 260.311 40.1624 261.733C40.5178 262.207 40.5178 263.036 39.9255 263.392C39.6885 263.629 39.4516 263.747 39.2146 263.747ZM32.5802 253.914C32.2247 253.914 31.7508 253.677 31.5139 253.321C30.5661 251.544 29.6183 249.767 28.789 247.99C28.5521 247.398 28.789 246.687 29.3814 246.45C29.9737 246.213 30.6846 246.45 30.9215 247.042C31.7508 248.819 32.5802 250.596 33.5279 252.255C33.8834 252.847 33.6464 253.558 33.054 253.914C32.9356 253.914 32.6986 253.914 32.5802 253.914ZM27.6043 243.251C27.1304 243.251 26.6565 242.896 26.538 242.422C25.8272 240.526 25.2348 238.631 24.6425 236.735C24.4055 236.143 24.8794 235.432 25.4718 235.313C26.0641 235.077 26.775 235.55 26.8935 236.143C27.4858 238.038 28.0782 239.934 28.6705 241.711C28.9075 242.303 28.5521 243.014 27.9597 243.251C27.8412 243.133 27.7228 243.251 27.6043 243.251ZM24.287 231.878C23.6947 231.878 23.2208 231.522 23.1023 230.93C22.6284 229.034 22.273 227.02 22.0361 225.006C21.9176 224.414 22.3915 223.703 22.9838 223.703C23.5762 223.585 24.287 224.059 24.287 224.651C24.6425 226.546 24.9979 228.561 25.3533 230.456C25.4718 231.048 25.1164 231.759 24.4055 231.878C24.524 231.878 24.4055 231.878 24.287 231.878ZM22.3915 220.149C21.7991 220.149 21.3252 219.675 21.2067 219.083C20.9698 217.187 20.8513 215.173 20.7329 213.159C20.7329 212.448 21.2067 211.974 21.7991 211.856C22.3915 211.856 22.9838 212.33 23.1023 212.922C23.2208 214.936 23.3393 216.95 23.5762 218.727C23.6947 219.32 23.2208 219.912 22.5099 220.03C22.5099 220.149 22.5099 220.149 22.3915 220.149ZM21.7991 208.302C21.0883 208.302 20.6144 207.709 20.6144 207.117C20.6144 205.103 20.7329 203.089 20.9698 201.075C21.0883 200.482 21.5622 200.008 22.273 200.008C22.8654 200.127 23.4577 200.601 23.3393 201.312C23.1023 203.207 22.9838 205.221 22.9838 207.117C22.9838 207.828 22.5099 208.302 21.7991 208.302ZM22.9838 196.573C22.8654 196.573 22.8654 196.573 22.7469 196.573C22.1545 196.454 21.6806 195.862 21.7991 195.151C22.1545 193.137 22.6284 191.242 23.1023 189.227C23.2208 188.635 23.9316 188.161 24.524 188.398C25.1164 188.517 25.5902 189.227 25.3533 189.82C24.8794 191.715 24.4055 193.611 24.0501 195.507C24.0501 196.099 23.5762 196.573 22.9838 196.573ZM26.0641 185.081C25.9457 185.081 25.8272 185.081 25.7087 184.962C25.1164 184.725 24.7609 184.015 24.9979 183.422C25.7087 181.527 26.4196 179.631 27.2489 177.854C27.4858 177.262 28.1967 177.025 28.789 177.262C29.3814 177.499 29.6183 178.209 29.3814 178.802C28.5521 180.579 27.8412 182.356 27.2489 184.252C27.0119 184.844 26.538 185.081 26.0641 185.081ZM30.9215 174.3C30.6846 174.3 30.5661 174.3 30.3292 174.181C29.7368 173.826 29.4999 173.115 29.8553 172.523C30.8031 170.746 31.8693 168.969 32.9356 167.31C33.291 166.718 34.0018 166.599 34.5942 166.955C35.1866 167.31 35.305 168.021 34.9496 168.613C33.8834 170.272 32.9356 171.93 31.9878 173.589C31.7508 174.063 31.277 174.3 30.9215 174.3ZM37.3191 164.348C37.0821 164.348 36.8452 164.23 36.6082 164.111C36.1343 163.756 36.0159 162.926 36.3713 162.453C37.556 160.912 38.8592 159.372 40.2809 157.832C40.7548 157.358 41.4656 157.358 41.9395 157.714C42.4134 158.188 42.4134 158.898 42.058 159.372C40.7548 160.794 39.4516 162.334 38.2669 163.874C38.0299 164.23 37.6745 164.348 37.3191 164.348ZM45.3752 155.581C45.0198 155.581 44.7829 155.463 44.5459 155.226C44.072 154.752 44.072 154.041 44.5459 153.567C45.9676 152.145 47.5078 150.842 49.1664 149.657C49.6403 149.302 50.4696 149.302 50.825 149.894C51.1804 150.368 51.1804 151.198 50.5881 151.553C49.0479 152.738 47.6262 154.041 46.2045 155.344C45.8491 155.581 45.6122 155.581 45.3752 155.581ZM54.6161 148.354C54.2607 148.354 53.9053 148.117 53.6683 147.88C53.3129 147.288 53.4314 146.577 54.0238 146.222C55.6824 145.156 57.4595 144.089 59.1181 143.141C59.7105 142.786 60.4213 143.023 60.7767 143.615C61.1321 144.208 60.8952 144.919 60.3028 145.274C58.6442 146.222 56.9856 147.288 55.327 148.354C55.09 148.236 54.8531 148.354 54.6161 148.354ZM64.9233 142.549C64.4494 142.549 64.094 142.312 63.857 141.838C63.6201 141.246 63.857 140.535 64.4494 140.298C66.2265 139.469 68.1221 138.758 70.0176 138.047C70.61 137.81 71.3208 138.166 71.5578 138.758C71.7947 139.35 71.4393 140.061 70.8469 140.298C69.0698 141.009 67.1743 141.72 65.3972 142.549C65.2787 142.549 65.1602 142.549 64.9233 142.549Z" fill="#E0E0E0"/>
<path d="M362.054 458.161C362.054 457.687 361.817 457.332 361.461 457.095C360.751 456.503 359.921 456.266 358.855 456.384C357.789 456.384 356.841 456.621 356.13 457.095L351.391 459.583C351.747 458.872 352.102 458.161 352.22 457.45C352.339 456.858 352.457 456.266 352.457 455.673C352.457 454.726 352.457 449.157 352.457 448.683C352.457 447.617 352.22 446.551 351.747 445.366C351.036 443.708 349.614 442.167 347.482 440.627C346.06 439.561 344.283 438.258 342.269 436.955C340.255 435.651 338.359 434.467 336.701 433.519C332.317 431.149 327.697 429.372 322.721 427.951C317.745 426.529 312.295 425.937 306.49 425.937C300.685 425.937 294.524 426.884 288.008 428.543C281.492 430.202 274.621 433.045 267.394 436.836C261.233 440.153 256.494 443.471 253.414 447.025C250.215 450.579 248.32 454.015 247.727 457.45C247.49 458.517 247.372 459.583 247.49 460.649C247.49 461.834 247.49 466.81 247.49 467.758C247.49 470.127 248.083 472.378 249.149 474.629C250.689 477.828 253.177 480.671 256.494 483.278C257.205 483.87 258.153 484.581 259.575 485.41C260.878 486.358 262.299 487.306 263.84 488.253C265.38 489.201 266.801 490.149 268.223 491.097C269.645 492.045 270.83 492.637 271.659 493.229C275.805 495.48 280.544 497.139 285.757 498.442C290.97 499.745 296.538 500.338 302.343 500.219C308.149 500.219 314.191 499.39 320.351 497.968C326.512 496.428 332.672 494.059 338.951 490.86C343.927 488.253 347.837 485.766 350.799 483.396C353.761 481.027 356.012 478.894 357.67 476.762C359.329 474.748 360.395 472.733 360.987 470.956C361.58 469.061 361.935 467.402 362.291 465.744C362.291 465.625 362.291 465.625 362.291 465.507C362.054 464.914 362.054 458.161 362.054 458.161ZM344.283 466.573C343.69 467.521 342.743 468.468 341.558 469.653C340.373 470.719 338.833 472.023 336.937 473.207C335.042 474.511 332.672 475.932 329.711 477.472C325.564 479.605 321.417 481.264 317.152 482.33C312.887 483.396 308.741 483.988 304.713 484.107C300.685 484.225 296.657 483.87 292.865 483.041C289.074 482.211 285.52 481.027 282.321 479.368C281.374 478.894 280.189 478.302 278.886 477.472C277.582 476.643 276.161 475.814 274.739 474.866C273.317 473.918 272.014 473.089 270.83 472.26C269.645 471.43 268.697 470.719 267.986 470.127C265.617 467.995 263.84 465.862 262.892 463.493C262.773 463.256 262.655 462.9 262.536 462.663C263.247 460.649 264.55 458.517 266.564 456.503C268.815 454.133 272.014 451.882 276.161 449.631C281.018 447.025 285.757 445.011 290.141 443.708C292.629 442.997 294.998 442.404 297.249 442.049L296.064 442.641C295.235 442.997 294.88 443.589 294.761 444.181C294.643 444.774 294.998 445.366 295.59 445.722L296.42 446.196C294.406 445.959 292.273 445.959 290.141 446.196C288.008 446.432 285.402 447.38 282.558 448.92C279.952 450.342 278.056 451.882 276.753 453.541C275.687 454.963 275.213 456.503 275.213 458.043C275.213 458.28 275.213 464.085 275.213 465.27C275.213 465.507 275.213 465.744 275.213 465.981C275.331 467.758 276.161 469.653 277.582 471.43C279.004 473.326 281.137 475.103 283.862 476.88C286.586 478.657 289.43 480.079 292.51 481.027C295.59 482.093 298.671 482.685 301.751 482.922C304.831 483.159 307.912 483.041 310.873 482.448C313.835 481.856 316.679 480.908 319.285 479.486C321.536 478.302 323.195 477.235 324.379 476.288C325.564 475.34 326.393 474.392 326.986 473.563C327.46 472.733 327.815 471.904 327.815 471.193C327.815 470.482 327.934 469.772 327.815 469.061C329.829 469.179 332.199 469.061 335.042 468.587C337.885 468.113 341.084 466.928 344.52 465.033C344.757 464.914 344.875 464.796 345.112 464.677C344.994 465.625 344.638 466.099 344.283 466.573ZM301.988 459.583C304.95 459.938 307.793 461.123 310.755 463.019C311.821 463.73 312.65 464.44 313.361 465.033C313.006 465.27 312.532 465.625 311.94 465.862C309.452 467.165 306.727 467.639 303.765 467.284C300.803 466.928 297.841 465.862 294.998 463.966C293.932 463.256 292.984 462.545 292.273 461.834C292.629 461.597 293.102 461.36 293.576 461.005C296.301 459.82 299.026 459.228 301.988 459.583ZM335.042 452.593C333.739 453.185 332.317 453.422 330.777 453.541C328.881 453.659 327.223 453.185 325.801 452.238L309.807 441.694C311.466 441.93 313.006 442.167 314.665 442.523C318.456 443.471 322.247 444.892 325.919 446.788C327.697 447.736 329.474 448.683 331.132 449.868C332.554 450.816 333.857 451.764 335.042 452.593Z" fill="#14B86E"/>
<path opacity="0.2" d="M362.054 458.161C362.054 457.687 361.817 457.332 361.461 457.095C360.751 456.503 359.921 456.266 358.855 456.384C357.789 456.384 356.841 456.621 356.13 457.095L351.391 459.583C351.747 458.872 352.102 458.161 352.22 457.45C352.339 456.858 352.457 456.266 352.457 455.673C352.457 454.726 352.457 449.157 352.457 448.683C352.457 447.617 352.22 446.551 351.747 445.366C351.036 443.708 349.614 442.167 347.482 440.627C346.06 439.561 344.283 438.258 342.269 436.955C340.255 435.651 338.359 434.467 336.701 433.519C332.317 431.149 327.697 429.372 322.721 427.951C317.745 426.529 312.295 425.937 306.49 425.937C300.685 425.937 294.524 426.884 288.008 428.543C281.492 430.202 274.621 433.045 267.394 436.836C261.233 440.153 256.494 443.471 253.414 447.025C250.215 450.579 248.32 454.015 247.727 457.45C247.49 458.517 247.372 459.583 247.49 460.649C247.49 461.834 247.49 466.81 247.49 467.758C247.49 470.127 248.083 472.378 249.149 474.629C250.689 477.828 253.177 480.671 256.494 483.278C257.205 483.87 258.153 484.581 259.575 485.41C260.878 486.358 262.299 487.306 263.84 488.253C265.38 489.201 266.801 490.149 268.223 491.097C269.645 492.045 270.83 492.637 271.659 493.229C275.805 495.48 280.544 497.139 285.757 498.442C290.97 499.745 296.538 500.338 302.343 500.219C308.149 500.219 314.191 499.39 320.351 497.968C326.512 496.428 332.672 494.059 338.951 490.86C343.927 488.253 347.837 485.766 350.799 483.396C353.761 481.027 356.012 478.894 357.67 476.762C359.329 474.748 360.395 472.733 360.987 470.956C361.58 469.061 361.935 467.402 362.291 465.744C362.291 465.625 362.291 465.625 362.291 465.507C362.054 464.914 362.054 458.161 362.054 458.161ZM344.283 466.573C343.69 467.521 342.743 468.468 341.558 469.653C340.373 470.719 338.833 472.023 336.937 473.207C335.042 474.511 332.672 475.932 329.711 477.472C325.564 479.605 321.417 481.264 317.152 482.33C312.887 483.396 308.741 483.988 304.713 484.107C300.685 484.225 296.657 483.87 292.865 483.041C289.074 482.211 285.52 481.027 282.321 479.368C281.374 478.894 280.189 478.302 278.886 477.472C277.582 476.643 276.161 475.814 274.739 474.866C273.317 473.918 272.014 473.089 270.83 472.26C269.645 471.43 268.697 470.719 267.986 470.127C265.617 467.995 263.84 465.862 262.892 463.493C262.773 463.256 262.655 462.9 262.536 462.663C263.247 460.649 264.55 458.517 266.564 456.503C268.815 454.133 272.014 451.882 276.161 449.631C281.018 447.025 285.757 445.011 290.141 443.708C292.629 442.997 294.998 442.404 297.249 442.049L296.064 442.641C295.235 442.997 294.88 443.589 294.761 444.181C294.643 444.774 294.998 445.366 295.59 445.722L296.42 446.196C294.406 445.959 292.273 445.959 290.141 446.196C288.008 446.432 285.402 447.38 282.558 448.92C279.952 450.342 278.056 451.882 276.753 453.541C275.687 454.963 275.213 456.503 275.213 458.043C275.213 458.28 275.213 464.085 275.213 465.27C275.213 465.507 275.213 465.744 275.213 465.981C275.331 467.758 276.161 469.653 277.582 471.43C279.004 473.326 281.137 475.103 283.862 476.88C286.586 478.657 289.43 480.079 292.51 481.027C295.59 482.093 298.671 482.685 301.751 482.922C304.831 483.159 307.912 483.041 310.873 482.448C313.835 481.856 316.679 480.908 319.285 479.486C321.536 478.302 323.195 477.235 324.379 476.288C325.564 475.34 326.393 474.392 326.986 473.563C327.46 472.733 327.815 471.904 327.815 471.193C327.815 470.482 327.934 469.772 327.815 469.061C329.829 469.179 332.199 469.061 335.042 468.587C337.885 468.113 341.084 466.928 344.52 465.033C344.757 464.914 344.875 464.796 345.112 464.677C344.994 465.625 344.638 466.099 344.283 466.573ZM301.988 459.583C304.95 459.938 307.793 461.123 310.755 463.019C311.821 463.73 312.65 464.44 313.361 465.033C313.006 465.27 312.532 465.625 311.94 465.862C309.452 467.165 306.727 467.639 303.765 467.284C300.803 466.928 297.841 465.862 294.998 463.966C293.932 463.256 292.984 462.545 292.273 461.834C292.629 461.597 293.102 461.36 293.576 461.005C296.301 459.82 299.026 459.228 301.988 459.583ZM335.042 452.593C333.739 453.185 332.317 453.422 330.777 453.541C328.881 453.659 327.223 453.185 325.801 452.238L309.807 441.694C311.466 441.93 313.006 442.167 314.665 442.523C318.456 443.471 322.247 444.892 325.919 446.788C327.697 447.736 329.474 448.683 331.132 449.868C332.554 450.816 333.857 451.764 335.042 452.593Z" fill="black"/>
<path opacity="0.1" d="M262.655 462.782C263.366 460.768 264.669 458.635 266.683 456.621C268.934 454.252 272.133 452.001 276.279 449.75C281.137 447.143 285.875 445.129 290.259 443.826C292.747 443.115 295.116 442.523 297.367 442.167L301.632 439.916C302.462 439.561 303.291 439.324 304.357 439.324C305.424 439.324 306.253 439.561 306.845 440.035L309.689 441.93C311.347 442.167 312.887 442.404 314.546 442.76C318.337 443.708 322.128 445.129 325.801 447.025C327.578 447.973 329.355 448.92 331.014 450.105C332.435 451.053 333.739 451.882 334.923 452.83C335.16 452.711 335.397 452.593 335.634 452.475C337.056 451.764 337.885 450.816 338.122 449.75C338.359 448.683 337.648 447.499 335.871 446.195C334.449 445.129 332.791 443.944 331.014 442.76C329.237 441.575 327.578 440.627 325.801 439.679C322.128 437.784 318.337 436.362 314.546 435.414C310.755 434.467 306.845 434.111 302.817 434.348C298.789 434.585 294.642 435.296 290.14 436.718C285.757 438.021 281.018 440.035 276.161 442.641C272.014 444.774 268.815 447.143 266.564 449.513C264.313 451.882 262.773 454.252 262.181 456.621C261.588 458.991 261.825 461.36 262.773 463.729C263.247 464.914 263.958 465.98 264.787 467.165C263.958 466.099 263.247 464.914 262.773 463.729C262.892 463.256 262.773 463.019 262.655 462.782Z" fill="black"/>
<path opacity="0.1" d="M310.755 455.792C307.911 453.896 304.949 452.712 301.988 452.356C299.026 452.001 296.301 452.475 293.694 453.896C291.206 455.2 290.14 456.74 290.377 458.517C290.496 459.583 291.207 460.768 292.391 461.952C292.747 461.716 293.221 461.479 293.694 461.123C296.301 459.701 299.144 459.228 301.988 459.583C304.949 459.938 307.793 461.123 310.755 463.019C311.821 463.73 312.65 464.44 313.361 465.033C313.124 465.151 313.006 465.27 312.769 465.507C314.901 464.203 315.849 462.782 315.612 461.242C315.257 459.583 313.716 457.687 310.755 455.792Z" fill="black"/>
<path opacity="0.1" d="M301.751 476.051C298.67 475.814 295.59 475.221 292.51 474.155C289.429 473.089 286.586 471.786 283.861 470.009C281.136 468.231 279.004 466.454 277.582 464.559C276.16 462.663 275.331 460.886 275.213 459.109C275.213 458.754 275.213 458.398 275.213 458.043C275.213 458.161 275.213 458.28 275.213 458.398C275.213 458.635 275.213 464.44 275.213 465.625C275.213 465.862 275.213 466.099 275.213 466.336C275.331 468.113 276.16 470.009 277.582 471.786C279.004 473.681 281.136 475.458 283.861 477.235C286.586 479.013 289.429 480.434 292.51 481.382C295.59 482.448 298.67 483.041 301.751 483.278V476.051Z" fill="black"/>
<path opacity="0.1" d="M327.933 462.189C327.933 462.9 327.933 463.611 327.933 464.322V469.416C329.947 469.535 332.317 469.416 335.16 468.942V461.715C332.317 462.189 329.947 462.308 327.933 462.189Z" fill="black"/>
<path opacity="0.1" d="M285.638 490.978C280.425 489.675 275.686 488.016 271.54 485.765C270.592 485.292 269.526 484.581 268.104 483.633C266.683 482.685 265.261 481.856 263.721 480.79C262.181 479.842 260.759 478.894 259.456 477.946C258.152 476.998 257.086 476.288 256.375 475.814C253.058 473.207 250.57 470.364 249.03 467.165C247.964 464.914 247.371 462.545 247.371 460.175V460.294C247.371 461.479 247.371 466.454 247.371 467.402C247.371 469.772 247.964 472.023 249.03 474.274C250.57 477.472 253.058 480.316 256.375 482.922C257.086 483.514 258.034 484.225 259.456 485.055C260.759 486.002 262.181 486.95 263.721 487.898C265.261 488.846 266.683 489.794 268.104 490.741C269.526 491.689 270.711 492.281 271.54 492.874C275.686 495.125 280.425 496.783 285.638 498.087C290.851 499.39 296.419 499.982 302.224 499.864V492.637C296.419 492.874 290.851 492.281 285.638 490.978Z" fill="black"/>
<path d="M347.481 440.39C349.614 441.93 351.036 443.589 351.746 445.129C352.457 446.788 352.694 448.328 352.22 449.987C351.865 451.527 351.036 453.067 349.732 454.489C348.429 455.91 346.77 457.095 344.756 458.161C341.202 460.057 338.003 461.242 335.279 461.715C332.435 462.189 330.066 462.308 328.052 462.189C328.052 462.9 328.052 463.611 328.052 464.322C328.052 465.033 327.696 465.862 327.222 466.691C326.749 467.521 325.801 468.468 324.616 469.416C323.431 470.364 321.773 471.43 319.522 472.615C316.915 474.037 314.072 474.984 311.11 475.577C308.148 476.169 305.068 476.288 301.988 476.051C298.907 475.814 295.827 475.221 292.747 474.155C289.667 473.089 286.823 471.786 284.098 470.009C281.373 468.231 279.241 466.454 277.819 464.559C276.398 462.663 275.568 460.886 275.45 459.109C275.331 457.332 275.805 455.555 276.99 453.896C278.175 452.238 280.07 450.697 282.795 449.276C285.757 447.736 288.245 446.788 290.377 446.551C292.51 446.314 294.642 446.314 296.656 446.551L295.827 446.077C295.235 445.603 294.879 445.129 294.998 444.537C295.116 443.945 295.472 443.471 296.301 442.997L301.869 440.035C302.699 439.68 303.528 439.443 304.594 439.443C305.66 439.443 306.49 439.68 307.082 440.153L325.919 452.475C327.341 453.422 329 453.778 330.895 453.778C332.791 453.659 334.449 453.304 335.871 452.475C337.293 451.764 338.122 450.816 338.359 449.75C338.596 448.683 337.885 447.499 336.108 446.196C334.686 445.129 333.028 443.945 331.251 442.76C329.473 441.575 327.815 440.627 326.038 439.68C322.365 437.784 318.574 436.362 314.783 435.414C310.992 434.467 307.082 434.111 303.054 434.348C299.026 434.585 294.879 435.296 290.377 436.718C285.994 438.021 281.255 440.035 276.398 442.641C272.251 444.774 269.052 447.143 266.801 449.513C264.55 451.882 263.01 454.252 262.418 456.621C261.825 458.991 262.062 461.36 263.01 463.73C263.958 466.099 265.735 468.232 268.104 470.364C268.697 470.956 269.645 471.667 270.948 472.497C272.132 473.326 273.554 474.274 274.857 475.103C276.279 476.051 277.582 476.88 279.004 477.709C280.307 478.539 281.492 479.249 282.44 479.605C285.757 481.264 289.193 482.448 292.984 483.278C296.775 484.107 300.684 484.462 304.831 484.344C308.978 484.225 313.124 483.633 317.271 482.567C321.536 481.5 325.682 479.842 329.829 477.709C332.791 476.169 335.16 474.748 337.056 473.444C338.951 472.141 340.491 470.956 341.676 469.89C342.861 468.824 343.809 467.758 344.401 466.81C344.993 465.862 345.586 465.033 345.941 464.203C346.297 463.493 346.534 462.9 346.771 462.545C347.007 462.189 347.481 461.715 348.311 461.36L356.13 457.214C356.959 456.858 357.788 456.621 358.855 456.503C359.921 456.503 360.75 456.74 361.461 457.214C361.935 457.569 362.172 457.924 362.054 458.517C361.817 460.175 361.343 461.834 360.75 463.73C360.158 465.625 359.092 467.521 357.433 469.535C355.774 471.549 353.523 473.8 350.562 476.169C347.6 478.539 343.572 481.027 338.714 483.633C332.554 486.95 326.393 489.32 320.114 490.741C313.953 492.282 307.911 492.992 302.106 492.992C296.301 492.992 290.733 492.4 285.52 491.215C280.307 489.912 275.568 488.253 271.422 486.002C270.474 485.529 269.408 484.818 267.986 483.87C266.564 482.922 265.143 482.093 263.602 481.027C262.062 480.079 260.641 479.131 259.337 478.183C258.034 477.235 256.968 476.525 256.257 476.051C252.94 473.444 250.452 470.601 248.912 467.402C247.372 464.203 246.898 460.886 247.49 457.45C248.201 454.015 250.097 450.579 253.177 447.025C256.376 443.471 260.996 440.153 267.157 436.836C274.383 433.045 281.255 430.202 287.771 428.543C294.287 426.884 300.448 425.937 306.253 425.937C312.058 425.937 317.389 426.529 322.484 427.951C327.459 429.372 332.198 431.268 336.463 433.519C338.122 434.467 340.018 435.533 342.032 436.955C344.283 438.139 345.941 439.324 347.481 440.39ZM295.116 464.085C297.96 465.98 300.921 467.047 303.883 467.402C306.845 467.758 309.57 467.284 312.058 465.981C314.664 464.559 315.849 463.019 315.612 461.36C315.375 459.583 313.717 457.806 310.755 455.91C307.911 454.015 304.95 452.83 301.988 452.475C299.026 452.119 296.301 452.593 293.695 454.015C291.207 455.318 290.14 456.858 290.377 458.635C290.614 460.294 292.273 462.189 295.116 464.085Z" fill="#14B86E"/>
<path d="M349.14 408.166V408.995C349.14 410.417 350.088 412.075 351.272 412.786L398.188 439.916C399.372 440.627 401.386 440.627 402.571 439.916L480.171 395.134C481.356 394.423 482.304 392.764 482.304 391.342V390.513C482.304 389.092 481.356 387.433 480.171 386.722L433.256 359.592C432.071 358.881 430.057 358.881 428.872 359.592L351.272 404.375C350.088 405.085 349.14 406.744 349.14 408.166Z" fill="#14B86E"/>
<path d="M349.14 408.166V408.995C349.14 410.417 350.088 412.075 351.272 412.786L398.188 439.916C399.372 440.627 401.386 440.627 402.571 439.916L480.171 395.134C481.356 394.423 482.304 392.764 482.304 391.342V390.513C482.304 389.092 481.356 387.433 480.171 386.722L433.256 359.592C432.071 358.881 430.057 358.881 428.872 359.592L351.272 404.375C350.088 405.085 349.14 406.744 349.14 408.166Z" fill="#14B86E"/>
<path opacity="0.2" d="M400.32 376.059L351.272 404.374C350.088 405.085 349.14 406.744 349.14 408.166V408.995C349.14 410.417 350.088 412.075 351.272 412.786L398.188 439.916C398.78 440.272 399.609 440.39 400.32 440.39V376.059Z" fill="black"/>
<path opacity="0.15" d="M400.32 376.059L351.272 404.374C350.088 405.085 349.14 406.744 349.14 408.166V408.995C349.14 410.417 350.088 412.075 351.272 412.786L398.188 439.916C398.78 440.272 399.609 440.39 400.32 440.39V376.059Z" fill="black"/>
<path opacity="0.2" d="M480.171 386.604L433.256 359.473C432.071 358.762 430.057 358.762 428.872 359.473L400.32 376.059V440.39C401.149 440.39 401.86 440.272 402.453 439.916L480.052 395.134C481.237 394.423 482.185 392.764 482.185 391.342V390.513C482.303 388.973 481.356 387.314 480.171 386.604Z" fill="black"/>
<path d="M390.606 429.609L351.273 406.862C350.088 406.152 350.088 405.085 351.273 404.374L428.872 359.592C430.057 358.881 432.071 358.881 433.256 359.592L480.171 386.722C481.356 387.433 481.356 388.499 480.171 389.21L467.258 396.674L462.756 399.28L402.453 434.111C401.268 434.822 399.254 434.822 398.069 434.111L394.278 431.86L390.606 429.609Z" fill="#14B86E"/>
<path opacity="0.15" d="M426.384 391.816L480.171 386.603L426.858 389.565L433.256 359.473C432.545 359.118 431.716 358.999 430.886 358.999L420.816 399.635L350.325 405.441C350.325 405.915 350.562 406.388 351.154 406.862L408.021 403.545L400.202 434.467L410.272 403.427L419.987 402.834C421.172 402.716 422.356 402.242 423.186 401.531C424.015 400.82 424.607 399.872 424.844 398.688L426.384 391.816Z" fill="black"/>
<path opacity="0.3" d="M367.148 404.137L420.816 399.754L422.711 392.053L423.778 387.788L430.886 359.118C430.175 359.118 429.464 359.355 428.872 359.592L390.131 381.983L351.272 404.374C350.68 404.73 350.443 405.085 350.443 405.559L361.224 404.73L367.148 404.137Z" fill="white"/>
</g>
<defs>
<clipPath id="clip0">
<rect width="531.352" height="540" fill="white" transform="translate(0 0.5)"/>
</clipPath>
</defs>
</svg>
