<svg width="125" height="28" viewBox="0 0 125 28" fill="none" xmlns="http://www.w3.org/2000/svg">
<path d="M42.4966 13.02V15.61H47.0326V17.43H42.4966V21H40.2286V11.2H47.6346V13.02H42.4966ZM55.4139 18.9H50.8639L49.9959 21H47.6719L52.0399 11.2H54.2799L58.6619 21H56.2819L55.4139 18.9ZM54.6999 17.178L53.1459 13.426L51.5919 17.178H54.6999ZM64.4319 21.168C63.4332 21.168 62.5279 20.9533 61.7159 20.524C60.9132 20.0853 60.2785 19.4833 59.8119 18.718C59.3545 17.9433 59.1259 17.0707 59.1259 16.1C59.1259 15.1293 59.3545 14.2613 59.8119 13.496C60.2785 12.7213 60.9132 12.1193 61.7159 11.69C62.5279 11.2513 63.4379 11.032 64.4459 11.032C65.2952 11.032 66.0605 11.1813 66.7419 11.48C67.4325 11.7787 68.0112 12.208 68.4779 12.768L67.0219 14.112C66.3592 13.3467 65.5379 12.964 64.5579 12.964C63.9512 12.964 63.4099 13.0993 62.9339 13.37C62.4579 13.6313 62.0845 14 61.8139 14.476C61.5525 14.952 61.4219 15.4933 61.4219 16.1C61.4219 16.7067 61.5525 17.248 61.8139 17.724C62.0845 18.2 62.4579 18.5733 62.9339 18.844C63.4099 19.1053 63.9512 19.236 64.5579 19.236C65.5379 19.236 66.3592 18.8487 67.0219 18.074L68.4779 19.418C68.0112 19.9873 67.4325 20.4213 66.7419 20.72C66.0512 21.0187 65.2812 21.168 64.4319 21.168ZM77.7975 19.18V21H70.2095V11.2H77.6155V13.02H72.4635V15.148H77.0135V16.912H72.4635V19.18H77.7975ZM86.998 15.904C87.558 16.0813 87.9967 16.38 88.314 16.8C88.6314 17.2107 88.79 17.7193 88.79 18.326C88.79 19.1847 88.454 19.8473 87.782 20.314C87.1194 20.7713 86.1487 21 84.87 21H79.802V11.2H84.59C85.7847 11.2 86.6994 11.4287 87.334 11.886C87.978 12.3433 88.3 12.964 88.3 13.748C88.3 14.224 88.1834 14.6487 87.95 15.022C87.726 15.3953 87.4087 15.6893 86.998 15.904ZM82.056 12.908V15.218H84.31C84.87 15.218 85.2947 15.12 85.584 14.924C85.8734 14.728 86.018 14.4387 86.018 14.056C86.018 13.6733 85.8734 13.3887 85.584 13.202C85.2947 13.006 84.87 12.908 84.31 12.908H82.056ZM84.702 19.292C85.2994 19.292 85.7474 19.194 86.046 18.998C86.354 18.802 86.508 18.4987 86.508 18.088C86.508 17.276 85.906 16.87 84.702 16.87H82.056V19.292H84.702ZM95.4531 21.168C94.4358 21.168 93.5165 20.9487 92.6951 20.51C91.8831 20.0713 91.2438 19.4693 90.7771 18.704C90.3198 17.9293 90.0911 17.0613 90.0911 16.1C90.0911 15.1387 90.3198 14.2753 90.7771 13.51C91.2438 12.7353 91.8831 12.1287 92.6951 11.69C93.5165 11.2513 94.4358 11.032 95.4531 11.032C96.4705 11.032 97.3851 11.2513 98.1971 11.69C99.0091 12.1287 99.6485 12.7353 100.115 13.51C100.582 14.2753 100.815 15.1387 100.815 16.1C100.815 17.0613 100.582 17.9293 100.115 18.704C99.6485 19.4693 99.0091 20.0713 98.1971 20.51C97.3851 20.9487 96.4705 21.168 95.4531 21.168ZM95.4531 19.236C96.0318 19.236 96.5545 19.1053 97.0211 18.844C97.4878 18.5733 97.8518 18.2 98.1131 17.724C98.3838 17.248 98.5191 16.7067 98.5191 16.1C98.5191 15.4933 98.3838 14.952 98.1131 14.476C97.8518 14 97.4878 13.6313 97.0211 13.37C96.5545 13.0993 96.0318 12.964 95.4531 12.964C94.8744 12.964 94.3518 13.0993 93.8851 13.37C93.4184 13.6313 93.0498 14 92.7791 14.476C92.5178 14.952 92.3871 15.4933 92.3871 16.1C92.3871 16.7067 92.5178 17.248 92.7791 17.724C93.0498 18.2 93.4184 18.5733 93.8851 18.844C94.3518 19.1053 94.8744 19.236 95.4531 19.236ZM107.466 21.168C106.448 21.168 105.529 20.9487 104.708 20.51C103.896 20.0713 103.256 19.4693 102.79 18.704C102.332 17.9293 102.104 17.0613 102.104 16.1C102.104 15.1387 102.332 14.2753 102.79 13.51C103.256 12.7353 103.896 12.1287 104.708 11.69C105.529 11.2513 106.448 11.032 107.466 11.032C108.483 11.032 109.398 11.2513 110.21 11.69C111.022 12.1287 111.661 12.7353 112.128 13.51C112.594 14.2753 112.828 15.1387 112.828 16.1C112.828 17.0613 112.594 17.9293 112.128 18.704C111.661 19.4693 111.022 20.0713 110.21 20.51C109.398 20.9487 108.483 21.168 107.466 21.168ZM107.466 19.236C108.044 19.236 108.567 19.1053 109.034 18.844C109.5 18.5733 109.864 18.2 110.126 17.724C110.396 17.248 110.532 16.7067 110.532 16.1C110.532 15.4933 110.396 14.952 110.126 14.476C109.864 14 109.5 13.6313 109.034 13.37C108.567 13.0993 108.044 12.964 107.466 12.964C106.887 12.964 106.364 13.0993 105.898 13.37C105.431 13.6313 105.062 14 104.792 14.476C104.53 14.952 104.4 15.4933 104.4 16.1C104.4 16.7067 104.53 17.248 104.792 17.724C105.062 18.2 105.431 18.5733 105.898 18.844C106.364 19.1053 106.887 19.236 107.466 19.236ZM118.302 17.15L116.986 18.522V21H114.732V11.2H116.986V15.778L121.326 11.2H123.846L119.786 15.568L124.084 21H121.438L118.302 17.15Z" fill="#FAF9F7"/>
<path d="M18.4845 4.64917H20.9494V0.197167C20.5241 0.1365 19.0616 0 17.3584 0C13.8045 0 11.37 2.31817 11.37 6.57883V10.5H7.44824V15.477H11.37V28H16.1782V15.4782H19.9414L20.5387 10.5012H16.1771V7.07233C16.1782 5.63383 16.5517 4.64917 18.4845 4.64917Z" fill="white"/>
</svg>
