<svg width="110" height="22" viewBox="0 0 110 22" fill="none" xmlns="http://www.w3.org/2000/svg">
<path d="M45.4514 10.048H42.3154V8.2H50.8554V10.048H47.7194V18H45.4514V10.048ZM66.9099 8.2L63.7039 18H61.2679L59.1119 11.364L56.8859 18H54.4639L51.2439 8.2H53.5959L55.8079 15.088L58.1179 8.2H60.2179L62.4579 15.144L64.7399 8.2H66.9099ZM68.3761 8.2H70.6441V18H68.3761V8.2ZM75.1998 10.048H72.0638V8.2H80.6038V10.048H77.4678V18H75.1998V10.048ZM84.1908 10.048H81.0548V8.2H89.5948V10.048H86.4588V18H84.1908V10.048ZM98.6031 16.18V18H91.0151V8.2H98.4211V10.02H93.2691V12.148H97.8191V13.912H93.2691V16.18H98.6031ZM106.852 18L104.962 15.27H104.85H102.876V18H100.608V8.2H104.85C105.718 8.2 106.469 8.34467 107.104 8.634C107.748 8.92333 108.242 9.334 108.588 9.866C108.933 10.398 109.106 11.028 109.106 11.756C109.106 12.484 108.928 13.114 108.574 13.646C108.228 14.1687 107.734 14.57 107.09 14.85L109.288 18H106.852ZM106.81 11.756C106.81 11.2053 106.632 10.7853 106.278 10.496C105.923 10.1973 105.405 10.048 104.724 10.048H102.876V13.464H104.724C105.405 13.464 105.923 13.3147 106.278 13.016C106.632 12.7173 106.81 12.2973 106.81 11.756Z" fill="#FAF9F7"/>
<path d="M26 2.93837C25.0331 3.3625 24.0029 3.64362 22.9287 3.78012C24.0337 3.12037 24.8771 2.08362 25.2736 0.834C24.2434 1.44825 23.1059 1.88213 21.8936 2.12425C20.9154 1.08263 19.5211 0.4375 18.0001 0.4375C15.0491 0.4375 12.6734 2.83275 12.6734 5.76912C12.6734 6.19163 12.7091 6.59787 12.7969 6.98462C8.3655 6.7685 4.44438 4.64463 1.81025 1.40925C1.35037 2.20713 1.08063 3.12038 1.08063 4.1035C1.08063 5.9495 2.03125 7.58587 3.44825 8.53325C2.59187 8.517 1.75175 8.26837 1.04 7.87675C1.04 7.893 1.04 7.91412 1.04 7.93525C1.04 10.5255 2.88762 12.677 5.3105 13.1726C4.87663 13.2913 4.40375 13.3481 3.913 13.3481C3.57175 13.3481 3.22725 13.3286 2.90387 13.2571C3.5945 15.368 5.55425 16.9199 7.8845 16.9702C6.071 18.3889 3.76838 19.2436 1.27562 19.2436C0.8385 19.2436 0.41925 19.2241 0 19.1705C2.36112 20.6931 5.15938 21.5625 8.177 21.5625C17.9855 21.5625 23.348 13.4375 23.348 6.39475C23.348 6.15912 23.3399 5.93163 23.3285 5.70575C24.3864 4.955 25.2752 4.01737 26 2.93837Z" fill="white"/>
</svg>
