<svg width="97" height="66" viewBox="0 0 97 66" fill="none" xmlns="http://www.w3.org/2000/svg">
<g clip-path="url(#clip0_3385_18633)">
<path d="M30.2942 22.3118C30.2942 23.3219 30.2942 24.302 30.2942 25.3308C30.1286 25.3308 29.9629 25.3308 29.8011 25.3308C21.4746 25.3308 13.1444 25.3383 4.81799 25.3196C3.79412 25.3158 3.04881 25.9892 3.04881 27.0704C3.07139 37.5866 3.06387 48.1027 3.06387 58.6189C3.06387 59.5354 3.06387 60.4557 3.06387 61.3723C3.06387 62.3487 3.67367 62.9623 4.65236 62.9623C10.8934 62.966 17.1383 62.9623 23.3793 62.9623C32.0558 62.9623 40.7323 62.9698 49.4126 62.9698C61.8119 62.9698 74.215 62.966 86.6143 62.9623C88.519 62.9623 90.42 62.9623 92.3247 62.9623C93.3335 62.9623 93.9395 62.3562 93.9395 61.3573C93.9395 58.8957 93.9395 56.4378 93.9395 53.9762C93.9395 46.8981 93.9395 39.8162 93.9395 32.7381C93.9395 30.8339 93.9395 28.9297 93.9395 27.0255C93.9395 25.9331 93.3372 25.3308 92.223 25.3308C87.3672 25.3271 82.5113 25.3271 77.6517 25.3271C74.0983 25.3271 70.5412 25.3308 66.9877 25.3308C66.9049 25.3308 66.8221 25.3308 66.7092 25.3308C66.7092 24.3319 66.7092 23.3518 66.7092 22.3118C66.856 22.3118 67.0028 22.3118 67.1496 22.3118C74.8738 22.3155 82.6017 22.3155 90.3259 22.323C91.3046 22.323 92.2908 22.2856 93.2582 22.4053C95.2156 22.6447 96.9095 24.504 96.9584 26.4681C97.0149 28.8025 96.9923 31.137 96.9923 33.4751C96.9961 40.0669 96.9998 46.6624 96.9998 53.2542C96.9998 56.0188 96.9772 58.7872 96.9848 61.5519C96.9923 63.8826 94.9634 66.0262 92.3435 65.9963C88.4513 65.9514 84.5628 65.9851 80.6706 65.9851C73.5902 65.9851 66.5059 65.9851 59.4254 65.9851C46.8304 65.9851 34.2316 65.9851 21.6365 65.9851C15.9826 65.9851 10.3288 65.9476 4.67495 66C2.20562 66.0225 0.00356001 64.0247 0.0261453 61.5182C0.0299095 61.2676 0.0148526 61.0169 0.0148526 60.7663C0.0148526 49.5954 0.0186169 38.4246 0.00732422 27.2575C0.00732422 25.9705 0.285876 24.8071 1.1667 23.8344C2.05506 22.8542 3.16926 22.3192 4.49803 22.3192C10.9085 22.308 17.3189 22.3192 23.7294 22.3192C25.7583 22.3192 27.7872 22.3155 29.8161 22.3118C29.9629 22.3118 30.1135 22.3118 30.2942 22.3118Z" fill="black"/>
<path d="M54.5546 18.9074C47.4553 22.9403 40.4351 26.9245 33.3696 30.9387C33.3696 20.6171 33.3696 10.3366 33.3696 0C40.4125 4.50051 47.4365 8.98606 54.5207 13.509C54.5207 9.39758 54.5207 5.34973 54.5207 1.26448C57.5773 1.26448 60.5924 1.26448 63.6301 1.26448C63.6301 10.7818 63.6301 20.3028 63.6301 29.85C60.615 29.85 57.6111 29.85 54.5546 29.85C54.5546 26.2249 54.5546 22.6073 54.5546 18.9074ZM36.4186 5.54427C36.4186 12.3081 36.4186 18.9859 36.4186 25.7199C42.0085 22.5437 47.5494 19.3975 53.1317 16.225C47.5381 12.6486 42.0047 9.11325 36.4186 5.54427ZM60.5773 26.8085C60.5773 19.2778 60.5773 11.7881 60.5773 4.29849C59.5723 4.29849 58.5974 4.29849 57.6074 4.29849C57.6074 11.8106 57.6074 19.3002 57.6074 26.8085C58.6087 26.8085 59.5836 26.8085 60.5773 26.8085Z" fill="black"/>
<path d="M54.5546 18.9074C47.4553 22.9403 40.4351 26.9245 33.3696 30.9387C33.3696 20.6171 33.3696 10.3366 33.3696 0C40.4125 4.50051 47.4365 8.98606 54.5207 13.509C54.5207 9.39758 54.5207 5.34973 54.5207 1.26448C57.5773 1.26448 60.5924 1.26448 63.6301 1.26448C63.6301 10.7818 63.6301 20.3028 63.6301 29.85C60.615 29.85 57.6111 29.85 54.5546 29.85C54.5546 26.2249 54.5546 22.6073 54.5546 18.9074ZM36.4186 5.54427C36.4186 12.3081 36.4186 18.9859 36.4186 25.7199C42.0085 22.5437 47.5494 19.3975 53.1317 16.225C47.5381 12.6486 42.0047 9.11325 36.4186 5.54427ZM60.5773 26.8085C60.5773 19.2778 60.5773 11.7881 60.5773 4.29849C59.5723 4.29849 58.5974 4.29849 57.6074 4.29849C57.6074 11.8106 57.6074 19.3002 57.6074 26.8085C58.6087 26.8085 59.5836 26.8085 60.5773 26.8085Z" fill="#119C59"/>
<path d="M37.6611 40H24.5918V52.989H37.6611V40Z" fill="#119C59"/>
<path d="M61 40H43V43H61V40Z" fill="#119C59"/>
<path d="M74 40H61V43H74V40Z" fill="#119C59"/>
<path d="M61 46H43V53H61V46Z" fill="#119C59"/>
<path d="M74 46H61V53H74V46Z" fill="#119C59"/>
</g>
<defs>
<clipPath id="clip0_3385_18633">
<rect width="97" height="66" fill="white"/>
</clipPath>
</defs>
</svg>
