<svg width="84" height="89" viewBox="0 0 84 89" fill="none" xmlns="http://www.w3.org/2000/svg">
<g clip-path="url(#clip0_3383_102)">
<path d="M10.9618 80.6367C8.30221 78.9182 6.64893 75.9335 6.64893 72.7618V68.8123H25.2184V72.7618C25.2184 75.9576 23.5891 78.9484 20.9055 80.6367H10.9618Z" fill="#119C59"/>
<path d="M66.9641 70.1809H39.9604V72.0923H66.9641V70.1809Z" fill="black"/>
<path d="M66.9639 60.7925H25.2065V62.7039H66.9639V60.7925Z" fill="black"/>
<path d="M66.9639 32.2776H25.2065V34.189H66.9639V32.2776Z" fill="black"/>
<path d="M66.9639 41.8408H25.2065V43.7523H66.9639V41.8408Z" fill="black"/>
<path d="M66.9639 51.3982H25.2065V53.3096H66.9639V51.3982Z" fill="black"/>
<path d="M25.6318 19.6631H55.2112V25.8798H25.6318V19.6631Z" fill="#119C59"/>
<path d="M19.0008 59.1946V59.2187C19.2524 61.3351 20.9236 62.7039 21.1393 62.8124L21.8162 63.1561L23.5054 61.0035L22.7806 60.4246C22.7746 60.4186 21.9959 59.7734 21.906 58.9051V58.887C21.8401 58.3745 22.0378 57.8379 22.4991 57.3012L22.523 57.2711C23.5294 56.0048 23.9367 54.7566 23.769 53.4602C23.5174 51.4221 21.8701 50.1619 21.6305 50.0413L20.9177 49.6855L19.3123 51.9347L20.0371 52.4834C20.0431 52.4894 20.7739 53.0622 20.8578 53.828V53.8461C20.9236 54.3225 20.72 54.835 20.2408 55.4199C19.2943 56.6078 18.875 57.8861 19.0008 59.1946Z" fill="black"/>
<path d="M13.5378 59.1946V59.2187C13.7894 61.3351 15.4606 62.7039 15.6763 62.8124L16.3531 63.1561L18.0424 61.0035L17.3176 60.4246C17.3116 60.4186 16.5328 59.7734 16.443 58.9051V58.887C16.3771 58.3745 16.5748 57.8379 17.036 57.3012L17.06 57.2711C18.0663 56.0048 18.4737 54.7566 18.3059 53.4602C18.0543 51.4221 16.4071 50.1619 16.1674 50.0413L15.4546 49.6855L13.8493 51.9347L14.5741 52.4834C14.5801 52.4894 15.3109 53.0622 15.3947 53.828V53.8401C15.4606 54.3164 15.2569 54.8229 14.7837 55.4018C13.8493 56.5535 13.412 57.868 13.5378 59.1946Z" fill="black"/>
<path d="M8.11047 59.1945V59.2186C8.36205 61.3351 10.0333 62.7038 10.249 62.8124L10.9258 63.1561L12.6211 60.9974L11.8843 60.4185C11.8783 60.4125 11.0996 59.7673 11.0097 58.899V58.8809C10.9438 58.3684 11.1415 57.8317 11.6027 57.2951L11.6267 57.2649C12.633 55.9987 13.0404 54.7505 12.8726 53.4541C12.6211 51.416 10.9738 50.1558 10.7342 50.0352L10.0213 49.6794L8.41596 51.9286L9.14077 52.4773C9.14676 52.4833 9.87756 53.0561 9.96142 53.8219V53.834C10.0273 54.3103 9.82365 54.8229 9.34444 55.4078C8.40997 56.6077 7.98467 57.886 8.11047 59.1945Z" fill="black"/>
<path d="M74.6194 23.4739C73.4094 23.9925 72.0736 24.2518 70.642 24.2518C64.7237 24.2518 59.9076 19.4038 59.9076 13.4464C59.9076 11.8846 60.2191 10.3953 60.842 9.02047L61.7825 6.94019H14.586V49.4865H17.5032V9.84052H57.4576C57.1461 10.9922 56.9904 12.1922 56.9904 13.4102C56.9904 20.9896 63.1183 27.1521 70.642 27.1521C71.7142 27.1521 72.7565 27.0375 73.7449 26.8084V83.0183H26.9018C28.5491 81.2757 29.801 79.1592 30.5259 76.8377H33.467C34.9646 76.8377 36.3663 76.2529 37.4145 75.1976C38.4628 74.1424 39.0439 72.7254 39.0439 71.224C39.0439 68.1247 36.54 65.6042 33.461 65.6042H31.2387V63.4877H0V72.1466C0 77.2357 2.432 81.9932 6.52927 84.9418C6.06803 85.8222 5.83442 86.6965 5.83442 87.5467V88.9999H25.4402V87.5467C25.4402 87.0161 25.3563 86.4915 25.1826 85.9609H76.1589V85.4483H76.6321V22.6056L74.6194 23.4739ZM33.467 73.9073H31.1428C31.2087 73.3163 31.2447 72.7314 31.2447 72.1466V68.5468H33.467C34.9106 68.5468 36.1326 69.7768 36.1326 71.23C36.1267 72.6772 34.9106 73.9073 33.467 73.9073ZM21.9779 86.0634H9.23683C9.2548 86.0272 9.27876 85.997 9.30272 85.9609H21.7862H21.918C21.936 85.991 21.9539 86.0272 21.9779 86.0634ZM2.88127 66.4243H28.3215V72.1466C28.3215 76.5604 26.0213 80.7149 22.3133 83.0243H21.7742H8.92534C5.19347 80.7089 2.88127 76.5483 2.88127 72.1466V66.4243Z" fill="black"/>
<path d="M70.6481 0C63.2802 0 57.29 6.02981 57.29 13.4465C57.29 20.8631 63.2802 26.893 70.6481 26.893C78.016 26.893 84.0062 20.8631 84.0062 13.4465C84.0062 6.02981 78.01 0 70.6481 0ZM70.6481 24.5534C64.5621 24.5534 59.6142 19.5728 59.6142 13.4465C59.6142 7.32019 64.5621 2.33957 70.6481 2.33957C76.7341 2.33957 81.682 7.32019 81.682 13.4465C81.682 19.5728 76.7281 24.5534 70.6481 24.5534Z" fill="black"/>
<path d="M70.6478 22.7083C65.3824 22.7083 61.1055 18.403 61.1055 13.1028C61.1055 7.8026 65.4124 3.49731 70.6478 3.49731C75.9131 3.49731 80.1901 7.8026 80.1901 13.1028C80.1901 18.403 75.9131 22.7083 70.6478 22.7083Z" fill="#FFD552"/>
<path d="M77.3388 8.12817L68.066 17.1608L64.8013 13.2656L63.3218 14.4414L67.9342 19.9466L78.6386 9.49694L77.3388 8.12817Z" fill="black"/>
</g>
<defs>
<clipPath id="clip0_3383_102">
<rect width="84" height="89" fill="white"/>
</clipPath>
</defs>
</svg>
