<svg width="77" height="70" viewBox="0 0 77 70" fill="none" xmlns="http://www.w3.org/2000/svg">
<path d="M74.1938 33.3857C75.2035 33.3857 76.0236 34.2039 76.0236 35.2155C76.0236 36.2271 75.2035 37.0472 74.1938 37.0472H58.0065C56.9949 37.0472 56.1748 36.2271 56.1748 35.2155C56.1748 34.7097 56.3794 34.2523 56.7104 33.9213C57.0432 33.5903 57.5007 33.3857 58.0065 33.3857H66.0992H74.1938Z" fill="#FFC035"/>
<path d="M74.1938 37.0471C75.2035 37.0471 76.0236 37.8653 76.0236 38.8769C76.0236 39.8885 75.2035 40.7086 74.1938 40.7086H58.0065C56.9949 40.7086 56.1748 39.8885 56.1748 38.8769C56.1748 38.3711 56.3794 37.9137 56.7104 37.5827C57.0432 37.2517 57.5007 37.0471 58.0065 37.0471H74.1938Z" fill="#FFC035"/>
<path d="M74.1938 44.3701C75.2035 44.3701 76.0236 45.1883 76.0236 46.1999C76.0236 47.2115 75.2035 48.0316 74.1938 48.0316H58.0065C56.9949 48.0316 56.1748 47.2115 56.1748 46.1999C56.1748 45.6941 56.3794 45.2367 56.7104 44.9057C57.0432 44.5747 57.5007 44.3701 58.0065 44.3701H74.1938Z" fill="#FFC035"/>
<path d="M74.1938 40.7085C75.2035 40.7085 76.0236 41.5267 76.0236 42.5383C76.0236 43.5499 75.2035 44.3699 74.1938 44.3699H58.0065C56.9949 44.3699 56.1748 43.5499 56.1748 42.5383C56.1748 42.0325 56.3794 41.575 56.7104 41.244C57.0432 40.913 57.5007 40.7085 58.0065 40.7085H74.1938Z" fill="#FFC035"/>
<path d="M74.1938 48.0315C75.2035 48.0315 76.0236 48.8497 76.0236 49.8613C76.0236 50.8729 75.2035 51.6929 74.1938 51.6929H58.0065C56.9949 51.6929 56.1748 50.8729 56.1748 49.8613C56.1748 49.3555 56.3794 48.898 56.7104 48.567C57.0432 48.236 57.5007 48.0315 58.0065 48.0315H74.1938Z" fill="#FFC035"/>
<path d="M74.1938 55.3545C75.2035 55.3545 76.0236 56.1727 76.0236 57.1843C76.0236 58.1791 75.2296 58.9899 74.2421 59.0159C74.2254 59.0141 74.2105 59.0141 74.1938 59.0141H58.0065C57.9916 59.0141 57.9748 59.0141 57.96 59.0159C56.9707 58.9899 56.1748 58.181 56.1748 57.1843C56.1748 56.6785 56.3794 56.221 56.7104 55.89C57.0432 55.559 57.5007 55.3545 58.0065 55.3545H74.1938Z" fill="#FFC035"/>
<path d="M74.1938 51.6929C75.2035 51.6929 76.0236 52.5111 76.0236 53.5227C76.0236 54.5343 75.2035 55.3543 74.1938 55.3543H58.0065C56.9949 55.3543 56.1748 54.5343 56.1748 53.5227C56.1748 53.0169 56.3794 52.5594 56.7104 52.2284C57.0432 51.8974 57.5007 51.6929 58.0065 51.6929H74.1938Z" fill="#FFC035"/>
<path d="M74.2421 59.0156C75.2296 59.0398 76.0236 59.8506 76.0236 60.8454C76.0236 61.8403 75.2296 62.651 74.2421 62.6771C74.2254 62.6752 74.2105 62.6752 74.1938 62.6752H58.0065C57.9916 62.6752 57.9748 62.6752 57.96 62.6771C56.9707 62.651 56.1748 61.8421 56.1748 60.8454C56.1748 60.3396 56.3794 59.8822 56.7104 59.5512C57.0339 59.2276 57.4728 59.0268 57.96 59.0156C57.9748 59.0156 57.9916 59.0156 58.0065 59.0156H74.1938C74.2105 59.0156 74.2254 59.0156 74.2421 59.0156Z" fill="#FFC035"/>
<path d="M74.2421 62.6772C75.2296 62.7033 76.0236 63.5122 76.0236 64.507C76.0236 65.5186 75.2035 66.3368 74.1938 66.3368H58.0065C56.9949 66.3368 56.1748 65.5186 56.1748 64.507C56.1748 64.0012 56.3794 63.5438 56.7104 63.2109C57.0339 62.8892 57.4728 62.6884 57.96 62.6772C57.9748 62.6772 57.9916 62.6772 58.0065 62.6772H74.1938C74.2105 62.6772 74.2254 62.6772 74.2421 62.6772Z" fill="#FFC035"/>
<path d="M74.1938 66.3364C75.2035 66.3364 76.0236 67.1565 76.0236 68.1681C76.0236 69.1797 75.2035 69.9997 74.1938 69.9997H58.0065C56.9949 69.9997 56.1748 69.1797 56.1748 68.1681C56.1748 67.6623 56.3794 67.2048 56.7104 66.8738C57.0432 66.541 57.5007 66.3364 58.0065 66.3364H74.1938Z" fill="#FFC035"/>
<path opacity="0.2" d="M76.0236 68.1685C76.0236 69.1801 75.2035 70.0001 74.1938 70.0001H58.0065C56.9949 70.0001 56.1748 69.1801 56.1748 68.1685C56.1748 67.9714 56.2064 67.7798 56.2641 67.6013C56.5039 68.3358 57.192 68.8658 58.0065 68.8658H74.1938C75.0064 68.8658 75.6963 68.3358 75.9343 67.6013C75.992 67.7798 76.0236 67.9714 76.0236 68.1685Z" fill="black"/>
<path opacity="0.2" d="M76.0236 64.5052C76.0236 65.5167 75.2035 66.3368 74.1938 66.3368H58.0065C56.9949 66.3368 56.1748 65.5167 56.1748 64.5052C56.1748 64.308 56.2064 64.1165 56.2641 63.938C56.5039 64.6725 57.192 65.2025 58.0065 65.2025H74.1938C75.0064 65.2025 75.6963 64.6725 75.9343 63.938C75.992 64.1165 76.0236 64.308 76.0236 64.5052Z" fill="black"/>
<path opacity="0.2" d="M76.0236 60.8416C76.0236 61.8532 75.2035 62.6732 74.1938 62.6732H58.0065C56.9949 62.6732 56.1748 61.8532 56.1748 60.8416C56.1748 60.6445 56.2064 60.4529 56.2641 60.2744C56.5039 61.0089 57.192 61.5389 58.0065 61.5389H74.1938C75.0064 61.5389 75.6963 61.0089 75.9343 60.2744C75.992 60.4529 76.0236 60.6445 76.0236 60.8416Z" fill="black"/>
<path opacity="0.2" d="M76.0236 57.1785C76.0236 58.1901 75.2035 59.0101 74.1938 59.0101H58.0065C56.9949 59.0101 56.1748 58.1901 56.1748 57.1785C56.1748 56.9814 56.2064 56.7898 56.2641 56.6113C56.5039 57.3458 57.192 57.8758 58.0065 57.8758H74.1938C75.0064 57.8758 75.6963 57.3458 75.9343 56.6113C75.992 56.7898 76.0236 56.9814 76.0236 57.1785Z" fill="black"/>
<path opacity="0.2" d="M76.0236 53.5152C76.0236 54.5268 75.2035 55.3468 74.1938 55.3468H58.0065C56.9949 55.3468 56.1748 54.5268 56.1748 53.5152C56.1748 53.3181 56.2064 53.1265 56.2641 52.948C56.5039 53.6825 57.192 54.2125 58.0065 54.2125H74.1938C75.0064 54.2125 75.6963 53.6825 75.9343 52.948C75.992 53.1265 76.0236 53.3181 76.0236 53.5152Z" fill="black"/>
<path opacity="0.2" d="M76.0236 49.8516C76.0236 50.8632 75.2035 51.6832 74.1938 51.6832H58.0065C56.9949 51.6832 56.1748 50.8632 56.1748 49.8516C56.1748 49.6545 56.2064 49.4629 56.2641 49.2844C56.5039 50.0189 57.192 50.5489 58.0065 50.5489H74.1938C75.0064 50.5489 75.6963 50.0189 75.9343 49.2844C75.992 49.4629 76.0236 49.6545 76.0236 49.8516Z" fill="black"/>
<path opacity="0.2" d="M76.0236 46.1887C76.0236 47.2003 75.2035 48.0204 74.1938 48.0204H58.0065C56.9949 48.0204 56.1748 47.2003 56.1748 46.1887C56.1748 45.9916 56.2064 45.8001 56.2641 45.6216C56.5039 46.3561 57.192 46.8861 58.0065 46.8861H74.1938C75.0064 46.8861 75.6963 46.3561 75.9343 45.6216C75.992 45.8001 76.0236 45.9916 76.0236 46.1887Z" fill="black"/>
<path opacity="0.2" d="M76.0236 42.5252C76.0236 43.5368 75.2035 44.3568 74.1938 44.3568H58.0065C56.9949 44.3568 56.1748 43.5368 56.1748 42.5252C56.1748 42.3281 56.2064 42.1365 56.2641 41.958C56.5039 42.6925 57.192 43.2225 58.0065 43.2225H74.1938C75.0064 43.2225 75.6963 42.6925 75.9343 41.958C75.992 42.1365 76.0236 42.3281 76.0236 42.5252Z" fill="black"/>
<path opacity="0.2" d="M76.0236 38.8618C76.0236 39.8734 75.2035 40.6935 74.1938 40.6935H58.0065C56.9949 40.6935 56.1748 39.8734 56.1748 38.8618C56.1748 38.6647 56.2064 38.4732 56.2641 38.2947C56.5039 39.0292 57.192 39.5592 58.0065 39.5592H74.1938C75.0064 39.5592 75.6963 39.0292 75.9343 38.2947C75.992 38.4732 76.0236 38.6647 76.0236 38.8618Z" fill="black"/>
<path opacity="0.2" d="M76.0236 35.1985C76.0236 36.2101 75.2035 37.0302 74.1938 37.0302H58.0065C56.9949 37.0302 56.1748 36.2101 56.1748 35.1985C56.1748 35.0014 56.2064 34.8099 56.2641 34.6313C56.5039 35.3659 57.192 35.8958 58.0065 35.8958H74.1938C75.0064 35.8958 75.6963 35.3659 75.9343 34.6313C75.992 34.8099 76.0236 35.0014 76.0236 35.1985Z" fill="black"/>
<path d="M48.4448 65.2024V69.6765H38.1541H10.2907H0V65.2024H9.59339H38.8515H48.4448Z" fill="#303C44"/>
<path d="M76.7215 22.7623C76.7215 28.6292 71.9666 33.3859 66.0997 33.3859C60.2329 33.3859 55.478 28.6292 55.478 22.7623C55.478 16.8973 60.2329 12.1406 66.0997 12.1406C71.9666 12.1406 76.7215 16.8973 76.7215 22.7623Z" fill="#FFC035"/>
<path d="M48.4448 0.570312H0V5.04437H48.4448V0.570312Z" fill="#303C44"/>
<path d="M48.4448 5.04443V9.08522C48.4448 14.7754 46.483 20.0063 43.1972 24.1401H5.24577C1.96182 20.0063 0 14.7754 0 9.08522V5.04443H48.4448Z" fill="#ECEFF0"/>
<path d="M43.1976 24.1401C39.3614 28.9712 33.7158 32.3035 27.2836 33.1143V35.2156H21.162V33.1143C14.7299 32.3035 9.08429 28.9712 5.24805 24.1401H43.1976Z" fill="#119C59"/>
<path d="M24.2221 41.134C25.5628 41.134 26.6488 42.2219 26.6488 43.5607C26.6488 44.9015 25.5628 45.9874 24.2221 45.9874C22.8814 45.9874 21.7954 44.9015 21.7954 43.5607C21.7954 42.2219 22.8814 41.134 24.2221 41.134Z" fill="#119C59"/>
<path d="M38.8518 65.2025H9.59375C9.59375 57.1228 16.1431 50.5735 24.2209 50.5735H24.2228C32.3044 50.5753 38.8518 57.1228 38.8518 65.2025Z" fill="#119C59"/>
<path d="M27.2832 37.1323V35.2151H21.1616V37.1323C9.22706 38.6366 0 48.8232 0 61.1613V65.2021H9.59339C9.59339 57.1224 16.1427 50.5731 24.2206 50.5731H24.2224C32.304 50.5749 38.8515 57.1224 38.8515 65.2021H48.4448V61.1613C48.4448 48.8232 39.2159 38.6366 27.2832 37.1323ZM24.2224 45.9874C22.8817 45.9874 21.7957 44.9015 21.7957 43.5607C21.7957 42.2219 22.8817 41.134 24.2224 41.134C25.5632 41.134 26.6491 42.2219 26.6491 43.5607C26.6491 44.9015 25.5632 45.9874 24.2224 45.9874Z" fill="#ECEFF0"/>
<path opacity="0.2" d="M27.3225 33.1142C33.7547 32.3035 39.4003 28.9712 43.2365 24.1401C46.5223 20.0063 48.4841 14.7754 48.4841 9.08522V5.04443H45.3843V9.08522C45.3843 14.7754 43.4224 20.0063 40.1366 24.1401C36.3004 28.9712 30.6548 32.3035 24.2227 33.1142V35.2155V37.1327C36.1553 38.6371 45.3843 48.8237 45.3843 61.1617V65.2025H48.4841V61.1617C48.4841 48.8237 39.2552 38.6371 27.3225 37.1327V35.2155V33.1142Z" fill="black"/>
<path d="M66.0996 22.0183C65.5285 22.0183 65.0638 21.5536 65.0638 20.9825C65.0638 20.4107 65.5285 19.9455 66.0996 19.9455H67.8792C68.2899 19.9455 68.623 19.6124 68.623 19.2016C68.623 18.7909 68.2899 18.4578 67.8792 18.4578H66.8434V17.2021C66.8434 16.7913 66.5103 16.4583 66.0996 16.4583C65.6888 16.4583 65.3558 16.7913 65.3558 17.2021V18.5701C64.3263 18.8885 63.5762 19.8493 63.5762 20.9825C63.5762 22.374 64.7083 23.5059 66.0996 23.5059C66.6706 23.5059 67.1353 23.971 67.1353 24.543C67.1353 25.1141 66.6706 25.5788 66.0996 25.5788H64.32C63.9092 25.5788 63.5762 25.9118 63.5762 26.3226C63.5762 26.7333 63.9092 27.0664 64.32 27.0664H65.3558V28.3221C65.3558 28.7329 65.6888 29.066 66.0996 29.066C66.5103 29.066 66.8434 28.7329 66.8434 28.3221V26.9541C67.8728 26.6359 68.623 25.6755 68.623 24.5428C68.623 23.1507 67.4909 22.0183 66.0996 22.0183Z" fill="#C98B0E"/>
<path opacity="0.2" d="M76.7213 22.7623C76.7213 28.6292 71.9665 33.3859 66.0996 33.3859V12.1406C71.9665 12.1406 76.7213 16.8973 76.7213 22.7623Z" fill="url(#paint0_linear_3100_18878)"/>
<path opacity="0.2" d="M27.2835 37.1327C39.2162 38.6371 48.4451 48.8237 48.4451 61.1617V65.2025H24.2227V5.04443H48.4451V9.08522C48.4451 14.7754 46.4833 20.0063 43.1974 24.1401C39.3612 28.9712 33.7156 32.3035 27.2835 33.1142V37.1327Z" fill="url(#paint1_linear_3100_18878)"/>
<defs>
<linearGradient id="paint0_linear_3100_18878" x1="66.0996" y1="22.7633" x2="76.7213" y2="22.7633" gradientUnits="userSpaceOnUse">
<stop/>
<stop offset="1" stop-color="white" stop-opacity="0"/>
</linearGradient>
<linearGradient id="paint1_linear_3100_18878" x1="24.2227" y1="35.1235" x2="48.4451" y2="35.1235" gradientUnits="userSpaceOnUse">
<stop/>
<stop offset="1" stop-color="white" stop-opacity="0"/>
</linearGradient>
</defs>
</svg>
