<svg width="25" height="24" viewBox="0 0 25 24" fill="none" xmlns="http://www.w3.org/2000/svg">
<path d="M2.90479 3H8.77244C9.8099 3 10.8049 3.42143 11.5385 4.17157C12.2721 4.92172 12.6842 5.93913 12.6842 7V21C12.6842 20.2044 12.3751 19.4413 11.8249 18.8787C11.2747 18.3161 10.5285 18 9.75038 18H2.90479V3Z" stroke="#119C59" stroke-width="2" stroke-linecap="round" stroke-linejoin="round"/>
<path d="M22.4635 3H16.5959C15.5584 3 14.5634 3.42143 13.8298 4.17157C13.0962 4.92172 12.6841 5.93913 12.6841 7V21C12.6841 20.2044 12.9932 19.4413 13.5434 18.8787C14.0936 18.3161 14.8398 18 15.6179 18H22.4635V3Z" stroke="#119C59" stroke-width="2" stroke-linecap="round" stroke-linejoin="round"/>
</svg>
