<svg width="212" height="32" viewBox="0 0 212 32" fill="none" xmlns="http://www.w3.org/2000/svg">
<path d="M18.4545 8.5V26H15.1295L6.40449 15.375V26H2.40449V8.5H5.75449L14.4545 19.125V8.5H18.4545ZM36.3449 22.75V26H22.7949V8.5H36.0199V11.75H26.8199V15.55H34.9449V18.7H26.8199V22.75H36.3449ZM65.9732 8.5L60.2482 26H55.8982L52.0482 14.15L48.0732 26H43.7482L37.9982 8.5H42.1982L46.1482 20.8L50.2732 8.5H54.0232L58.0232 20.9L62.0982 8.5H65.9732ZM74.1842 26.3C72.8008 26.3 71.4592 26.1167 70.1592 25.75C68.8758 25.3667 67.8425 24.875 67.0592 24.275L68.4342 21.225C69.1842 21.775 70.0758 22.2167 71.1092 22.55C72.1425 22.8833 73.1758 23.05 74.2092 23.05C75.3592 23.05 76.2092 22.8833 76.7592 22.55C77.3092 22.2 77.5842 21.7417 77.5842 21.175C77.5842 20.7583 77.4175 20.4167 77.0842 20.15C76.7675 19.8667 76.3508 19.6417 75.8342 19.475C75.3342 19.3083 74.6508 19.125 73.7842 18.925C72.4508 18.6083 71.3592 18.2917 70.5092 17.975C69.6592 17.6583 68.9258 17.15 68.3092 16.45C67.7092 15.75 67.4092 14.8167 67.4092 13.65C67.4092 12.6333 67.6842 11.7167 68.2342 10.9C68.7842 10.0667 69.6092 9.40833 70.7092 8.925C71.8258 8.44167 73.1842 8.2 74.7842 8.2C75.9008 8.2 76.9925 8.33333 78.0592 8.6C79.1258 8.86667 80.0592 9.25 80.8592 9.75L79.6092 12.825C77.9925 11.9083 76.3758 11.45 74.7592 11.45C73.6258 11.45 72.7842 11.6333 72.2342 12C71.7008 12.3667 71.4342 12.85 71.4342 13.45C71.4342 14.05 71.7425 14.5 72.3592 14.8C72.9925 15.0833 73.9508 15.3667 75.2342 15.65C76.5675 15.9667 77.6592 16.2833 78.5092 16.6C79.3592 16.9167 80.0842 17.4167 80.6842 18.1C81.3008 18.7833 81.6092 19.7083 81.6092 20.875C81.6092 21.875 81.3258 22.7917 80.7592 23.625C80.2092 24.4417 79.3758 25.0917 78.2592 25.575C77.1425 26.0583 75.7842 26.3 74.1842 26.3ZM84.5766 8.5H88.6266V22.7H97.4016V26H84.5766V8.5ZM113.414 22.75V26H99.8645V8.5H113.089V11.75H103.889V15.55H112.014V18.7H103.889V22.75H113.414ZM120.462 11.8H114.862V8.5H130.112V11.8H124.512V26H120.462V11.8ZM136.36 11.8H130.76V8.5H146.01V11.8H140.41V26H136.36V11.8ZM161.939 22.75V26H148.389V8.5H161.614V11.75H152.414V15.55H160.539V18.7H152.414V22.75H161.939ZM176.512 26L173.137 21.125H172.937H169.412V26H165.362V8.5H172.937C174.487 8.5 175.828 8.75833 176.962 9.275C178.112 9.79167 178.995 10.525 179.612 11.475C180.228 12.425 180.537 13.55 180.537 14.85C180.537 16.15 180.22 17.275 179.587 18.225C178.97 19.1583 178.087 19.875 176.937 20.375L180.862 26H176.512ZM176.437 14.85C176.437 13.8667 176.12 13.1167 175.487 12.6C174.853 12.0667 173.928 11.8 172.712 11.8H169.412V17.9H172.712C173.928 17.9 174.853 17.6333 175.487 17.1C176.12 16.5667 176.437 15.8167 176.437 14.85Z" fill="#119C59"/>
<path d="M190.643 11.9H186.093L185.225 14H182.901L187.269 4.2H189.509L193.891 14H191.511L190.643 11.9ZM189.929 10.178L188.375 6.426L186.821 10.178H189.929ZM198.691 5.95C199.802 5.95 200.684 6.216 201.337 6.748C201.991 7.27067 202.317 7.994 202.317 8.918C202.317 9.83267 201.991 10.556 201.337 11.088C200.684 11.6107 199.802 11.872 198.691 11.872H197.235V14H195.023V5.95H198.691ZM198.537 10.164C199.051 10.164 199.438 10.0567 199.699 9.842C199.961 9.62733 200.091 9.31933 200.091 8.918C200.091 8.51667 199.961 8.20867 199.699 7.994C199.438 7.77933 199.051 7.672 198.537 7.672H197.235V10.164H198.537ZM207.805 5.95C208.916 5.95 209.798 6.216 210.451 6.748C211.105 7.27067 211.431 7.994 211.431 8.918C211.431 9.83267 211.105 10.556 210.451 11.088C209.798 11.6107 208.916 11.872 207.805 11.872H206.349V14H204.137V5.95H207.805ZM207.651 10.164C208.165 10.164 208.552 10.0567 208.813 9.842C209.075 9.62733 209.205 9.31933 209.205 8.918C209.205 8.51667 209.075 8.20867 208.813 7.994C208.552 7.77933 208.165 7.672 207.651 7.672H206.349V10.164H207.651Z" fill="#333333"/>
</svg>
