<svg xmlns="http://www.w3.org/2000/svg" width="33.114" height="33.114" viewBox="0 0 33.114 33.114"><defs><style>.a{fill:#ced6e0;}.b{fill:#fff;fill-rule:evenodd;}</style></defs><g transform="translate(-1132 -44)"><path class="a" d="M16.557,0A16.557,16.557,0,1,1,0,16.557,16.557,16.557,0,0,1,16.557,0Z" transform="translate(1132 44)"/><path class="b" d="M20.955,10.729a9.768,9.768,0,0,0-1.651-.18c-1.187,0-1.264.516-1.264,1.342v1.47h2.967L20.748,16.4H18.04v9.26H14.326V16.4H12.417V13.36h1.909V11.477c0-2.579,1.212-4.024,4.256-4.024a12.947,12.947,0,0,1,2.837.361Z" transform="translate(1132 44)"/></g></svg>