<svg xmlns="http://www.w3.org/2000/svg" width="33" height="33" viewBox="0 0 33 33"><defs><style>.a{fill:#ced6e0;fill-rule:evenodd;}.b{fill:#fff;}</style></defs><g transform="translate(-1174 -44)"><path class="a" d="M42,17.5A16.5,16.5,0,1,1,58.5,34,16.5,16.5,0,0,1,42,17.5Z" transform="translate(1132 43)"/><g transform="translate(781.3 -5301.25)"><path class="b" d="M53.907,11.191a2.11,2.11,0,1,0-2.14,1.942h.024A1.95,1.95,0,0,0,53.907,11.191Z" transform="translate(351 5344)"/><path class="b" d="M53.661,14.666H49.921V25.9h3.739Z" transform="translate(351 5344)"/><path class="b" d="M62.84,14.4c2.461,0,4.305,1.606,4.305,5.057V25.9H63.407V19.89c0-1.51-.541-2.54-1.895-2.54a2.046,2.046,0,0,0-1.919,1.365,2.554,2.554,0,0,0-.123.911V25.9H55.73s.049-10.181,0-11.235h3.74v1.591A3.713,3.713,0,0,1,62.84,14.4Z" transform="translate(351 5344)"/></g></g></svg>